Roman_opsz17.ufo
<glyph name="exclam" format="2">
	<unicode hex="0021"/>
	<advance width="498"/>
	<outline>
		<contour>
			<point x="250" y="338" type="curve" smooth="yes"/>
			<point x="268" y="338"/>
			<point x="268" y="348"/>
			<point x="270" y="374" type="curve" smooth="yes"/>
			<point x="291" y="696"/>
			<point x="311" y="1017"/>
			<point x="332" y="1340" type="curve"/>
			<point x="332" y="1398"/>
			<point x="284" y="1420"/>
			<point x="250" y="1420" type="curve" smooth="yes"/>
			<point x="216" y="1420"/>
			<point x="168" y="1398"/>
			<point x="168" y="1340" type="curve"/>
			<point x="189" y="1018"/>
			<point x="209" y="697"/>
			<point x="230" y="374" type="curve" smooth="yes"/>
			<point x="232" y="348"/>
			<point x="232" y="338"/>
		</contour>
		<contour>
			<point x="250" y="0" type="curve" smooth="yes"/>
			<point x="294" y="0"/>
			<point x="332" y="36"/>
			<point x="332" y="82" type="curve" smooth="yes"/>
			<point x="332" y="126"/>
			<point x="296" y="164"/>
			<point x="250" y="164" type="curve" smooth="yes"/>
			<point x="206" y="164"/>
			<point x="168" y="128"/>
			<point x="168" y="82" type="curve" smooth="yes"/>
			<point x="168" y="38"/>
			<point x="204" y="0"/>
		</contour>
	</outline>
</glyph>
<glyph name="numbersign" format="2">
	<unicode hex="0023"/>
	<advance width="1544"/>
	<outline>
		<contour>
			<point x="338" y="-390" type="curve" smooth="yes"/>
			<point x="366" y="-390"/>
			<point x="372" y="-362"/>
			<point x="376" y="-346" type="curve" smooth="yes"/>
			<point x="536" y="286" type="line"/>
			<point x="898" y="286" type="line"/>
			<point x="847" y="85"/>
			<point x="795" y="-116"/>
			<point x="744" y="-318" type="curve" smooth="yes"/>
			<point x="738" y="-338"/>
			<point x="736" y="-348"/>
			<point x="736" y="-354" type="curve" smooth="yes"/>
			<point x="736" y="-374"/>
			<point x="752" y="-390"/>
			<point x="772" y="-390" type="curve" smooth="yes"/>
			<point x="800" y="-390"/>
			<point x="806" y="-362"/>
			<point x="810" y="-346" type="curve" smooth="yes"/>
			<point x="970" y="286" type="line"/>
			<point x="1382" y="286" type="line" smooth="yes"/>
			<point x="1416" y="286"/>
			<point x="1450" y="286"/>
			<point x="1450" y="322" type="curve" smooth="yes"/>
			<point x="1450" y="356"/>
			<point x="1420" y="356"/>
			<point x="1390" y="356" type="curve" smooth="yes"/>
			<point x="990" y="356" type="line"/>
			<point x="1058" y="642" type="line"/>
			<point x="1390" y="642" type="line" smooth="yes"/>
			<point x="1420" y="642"/>
			<point x="1450" y="642"/>
			<point x="1450" y="676" type="curve" smooth="yes"/>
			<point x="1450" y="712"/>
			<point x="1416" y="712"/>
			<point x="1382" y="712" type="curve" smooth="yes"/>
			<point x="1078" y="712" type="line"/>
			<point x="1232" y="1316" type="line" smooth="yes"/>
			<point x="1238" y="1336"/>
			<point x="1240" y="1346"/>
			<point x="1240" y="1352" type="curve" smooth="yes"/>
			<point x="1240" y="1372"/>
			<point x="1224" y="1388"/>
			<point x="1204" y="1388" type="curve" smooth="yes"/>
			<point x="1176" y="1388"/>
			<point x="1170" y="1360"/>
			<point x="1166" y="1344" type="curve" smooth="yes"/>
			<point x="1006" y="712" type="line"/>
			<point x="644" y="712" type="line"/>
			<point x="798" y="1316" type="line" smooth="yes"/>
			<point x="804" y="1336"/>
			<point x="806" y="1346"/>
			<point x="806" y="1352" type="curve" smooth="yes"/>
			<point x="806" y="1372"/>
			<point x="790" y="1388"/>
			<point x="770" y="1388" type="curve" smooth="yes"/>
			<point x="742" y="1388"/>
			<point x="736" y="1360"/>
			<point x="732" y="1344" type="curve" smooth="yes"/>
			<point x="572" y="712" type="line"/>
			<point x="160" y="712" type="line" smooth="yes"/>
			<point x="126" y="712"/>
			<point x="92" y="712"/>
			<point x="92" y="676" type="curve" smooth="yes"/>
			<point x="92" y="642"/>
			<point x="122" y="642"/>
			<point x="152" y="642" type="curve" smooth="yes"/>
			<point x="552" y="642" type="line"/>
			<point x="484" y="356" type="line"/>
			<point x="152" y="356" type="line" smooth="yes"/>
			<point x="122" y="356"/>
			<point x="92" y="356"/>
			<point x="92" y="322" type="curve" smooth="yes"/>
			<point x="92" y="286"/>
			<point x="126" y="286"/>
			<point x="160" y="286" type="curve" smooth="yes"/>
			<point x="464" y="286" type="line"/>
			<point x="413" y="85"/>
			<point x="361" y="-116"/>
			<point x="310" y="-318" type="curve" smooth="yes"/>
			<point x="304" y="-338"/>
			<point x="302" y="-348"/>
			<point x="302" y="-354" type="curve" smooth="yes"/>
			<point x="302" y="-374"/>
			<point x="318" y="-390"/>
		</contour>
		<contour>
			<point x="556" y="356" type="line"/>
			<point x="624" y="642" type="line"/>
			<point x="986" y="642" type="line"/>
			<point x="918" y="356" type="line"/>
		</contour>
	</outline>
</glyph>
<glyph name="dollar" format="2">
  <advance width="458"/>
  <unicode hex="0024"/>
  <outline>
    <contour>
      <point x="216" y="-55" type="line"/>
      <point x="242" y="-55" type="line"/>
      <point x="242" y="-7" type="line"/>
      <point x="346" y="2"/>
      <point x="412" y="92"/>
      <point x="412" y="191" type="curve" smooth="yes"/>
      <point x="412" y="217"/>
      <point x="408" y="274"/>
      <point x="363" y="327" type="curve" smooth="yes"/>
      <point x="326" y="370"/>
      <point x="287" y="380"/>
      <point x="242" y="391" type="curve"/>
      <point x="242" y="676" type="line"/>
      <point x="297" y="673"/>
      <point x="372" y="651"/>
      <point x="391" y="558" type="curve"/>
      <point x="387" y="560"/>
      <point x="381" y="561"/>
      <point x="376" y="561" type="curve" smooth="yes"/>
      <point x="363" y="561"/>
      <point x="340" y="553"/>
      <point x="340" y="525" type="curve" smooth="yes"/>
      <point x="340" y="500"/>
      <point x="359" y="489"/>
      <point x="376" y="489" type="curve" smooth="yes"/>
      <point x="397" y="489"/>
      <point x="412" y="501"/>
      <point x="412" y="530" type="curve" smooth="yes"/>
      <point x="412" y="612"/>
      <point x="362" y="695"/>
      <point x="242" y="702" type="curve"/>
      <point x="242" y="749" type="line"/>
      <point x="216" y="749" type="line"/>
      <point x="216" y="702" type="line"/>
      <point x="117" y="693"/>
      <point x="46" y="613"/>
      <point x="46" y="518" type="curve" smooth="yes"/>
      <point x="46" y="452"/>
      <point x="78" y="410"/>
      <point x="94" y="392" type="curve" smooth="yes"/>
      <point x="131" y="353"/>
      <point x="158" y="346"/>
      <point x="216" y="330" type="curve"/>
      <point x="216" y="18" type="line"/>
      <point x="161" y="21"/>
      <point x="84" y="49"/>
      <point x="66" y="150" type="curve"/>
      <point x="70" y="148"/>
      <point x="77" y="147"/>
      <point x="82" y="147" type="curve" smooth="yes"/>
      <point x="99" y="147"/>
      <point x="118" y="158"/>
      <point x="118" y="183" type="curve" smooth="yes"/>
      <point x="118" y="211"/>
      <point x="95" y="219"/>
      <point x="82" y="219" type="curve" smooth="yes"/>
      <point x="65" y="219"/>
      <point x="46" y="211"/>
      <point x="46" y="178" type="curve" smooth="yes"/>
      <point x="46" y="78"/>
      <point x="107" y="-2"/>
      <point x="216" y="-8" type="curve"/>
    </contour>
    <contour>
      <point x="216" y="399" type="line"/>
      <point x="153" y="409"/>
      <point x="86" y="455"/>
      <point x="86" y="538" type="curve" smooth="yes"/>
      <point x="86" y="598"/>
      <point x="131" y="667"/>
      <point x="216" y="675" type="curve"/>
    </contour>
    <contour>
      <point x="242.0" y="120.232"/>
      <point x="242.0" y="221.464"/>
      <point x="242" y="323" type="curve"/>
      <point x="327" y="308"/>
      <point x="372" y="243"/>
      <point x="372" y="170" type="curve" smooth="yes"/>
      <point x="372" y="100"/>
      <point x="323" y="27"/>
      <point x="242" y="19" type="curve"/>
    </contour>
  </outline>
</glyph>
<glyph name="percent" format="2">
	<unicode hex="0025"/>
	<advance width="1544"/>
	<outline>
		<contour>
			<point x="1276" y="1428" type="line" smooth="yes"/>
			<point x="1290" y="1450"/>
			<point x="1292" y="1452"/>
			<point x="1292" y="1462" type="curve" smooth="yes"/>
			<point x="1292" y="1486"/>
			<point x="1274" y="1498"/>
			<point x="1258" y="1498" type="curve" smooth="yes"/>
			<point x="1238" y="1498"/>
			<point x="1230" y="1484"/>
			<point x="1216" y="1468" type="curve"/>
			<point x="1100" y="1302"/>
			<point x="940" y="1284"/>
			<point x="858" y="1284" type="curve" smooth="yes"/>
			<point x="658" y="1284"/>
			<point x="536" y="1400"/>
			<point x="498" y="1436" type="curve" smooth="yes"/>
			<point x="472" y="1460"/>
			<point x="434" y="1498"/>
			<point x="366" y="1498" type="curve" smooth="yes"/>
			<point x="230" y="1498"/>
			<point x="92" y="1340"/>
			<point x="92" y="1096" type="curve" smooth="yes"/>
			<point x="92" y="852"/>
			<point x="228" y="694"/>
			<point x="366" y="694" type="curve" smooth="yes"/>
			<point x="500" y="694"/>
			<point x="614" y="862"/>
			<point x="614" y="1096" type="curve" smooth="yes"/>
			<point x="614" y="1234"/>
			<point x="572" y="1328"/>
			<point x="566" y="1340" type="curve"/>
			<point x="688" y="1262"/>
			<point x="808" y="1252"/>
			<point x="860" y="1252" type="curve" smooth="yes"/>
			<point x="988" y="1252"/>
			<point x="1080" y="1300"/>
			<point x="1130" y="1334" type="curve"/>
			<point x="1132" y="1332" type="line"/>
			<point x="268" y="-36" type="line" smooth="yes"/>
			<point x="250" y="-64"/>
			<point x="250" y="-68"/>
			<point x="250" y="-74" type="curve" smooth="yes"/>
			<point x="250" y="-96"/>
			<point x="268" y="-110"/>
			<point x="286" y="-110" type="curve" smooth="yes"/>
			<point x="304" y="-110"/>
			<point x="310" y="-100"/>
			<point x="324" y="-78" type="curve" smooth="yes"/>
		</contour>
		<contour>
			<point x="368" y="726" type="curve" smooth="yes"/>
			<point x="316" y="726"/>
			<point x="186" y="774"/>
			<point x="186" y="1096" type="curve" smooth="yes"/>
			<point x="186" y="1420"/>
			<point x="316" y="1466"/>
			<point x="368" y="1466" type="curve" smooth="yes"/>
			<point x="478" y="1466"/>
			<point x="578" y="1308"/>
			<point x="578" y="1096" type="curve" smooth="yes"/>
			<point x="578" y="884"/>
			<point x="478" y="726"/>
		</contour>
		<contour>
			<point x="1204" y="-78" type="curve" smooth="yes"/>
			<point x="1152" y="-78"/>
			<point x="1022" y="-30"/>
			<point x="1022" y="292" type="curve" smooth="yes"/>
			<point x="1022" y="616"/>
			<point x="1152" y="662"/>
			<point x="1204" y="662" type="curve" smooth="yes"/>
			<point x="1314" y="662"/>
			<point x="1414" y="504"/>
			<point x="1414" y="292" type="curve" smooth="yes"/>
			<point x="1414" y="80"/>
			<point x="1314" y="-78"/>
		</contour>
		<contour>
			<point x="1450" y="292" type="curve" smooth="yes"/>
			<point x="1450" y="524"/>
			<point x="1336" y="694"/>
			<point x="1202" y="694" type="curve" smooth="yes"/>
			<point x="1066" y="694"/>
			<point x="928" y="536"/>
			<point x="928" y="292" type="curve" smooth="yes"/>
			<point x="928" y="48"/>
			<point x="1064" y="-110"/>
			<point x="1202" y="-110" type="curve" smooth="yes"/>
			<point x="1336" y="-110"/>
			<point x="1450" y="58"/>
		</contour>
	</outline>
</glyph>
<glyph name="ampersand" format="2">
	<unicode hex="0026"/>
	<advance width="1438"/>
	<outline>
		<contour>
			<point x="1194" y="856" type="curve" smooth="yes"/>
			<point x="1134" y="856"/>
			<point x="1040" y="856"/>
			<point x="982" y="860" type="curve"/>
			<point x="982" y="808" type="line"/>
			<point x="1048" y="808"/>
			<point x="1102" y="780"/>
			<point x="1102" y="726" type="curve" smooth="yes"/>
			<point x="1102" y="710"/>
			<point x="1074" y="652"/>
			<point x="1034" y="580" type="curve" smooth="yes"/>
			<point x="962" y="452"/>
			<point x="854" y="280"/>
			<point x="800" y="224" type="curve"/>
			<point x="770" y="262"/>
			<point x="572" y="516"/>
			<point x="474" y="774" type="curve"/>
			<point x="680" y="1022"/>
			<point x="702" y="1112"/>
			<point x="702" y="1176" type="curve" smooth="yes"/>
			<point x="702" y="1256"/>
			<point x="676" y="1420"/>
			<point x="546" y="1420" type="curve" smooth="yes"/>
			<point x="428" y="1420"/>
			<point x="306" y="1312"/>
			<point x="306" y="1118" type="curve" smooth="yes"/>
			<point x="306" y="1016"/>
			<point x="322" y="890"/>
			<point x="382" y="716" type="curve"/>
			<point x="299" y="620"/>
			<point x="217" y="524"/>
			<point x="134" y="428" type="curve" smooth="yes"/>
			<point x="90" y="378"/>
			<point x="66" y="322"/>
			<point x="66" y="256" type="curve" smooth="yes"/>
			<point x="66" y="92"/>
			<point x="220" y="-32"/>
			<point x="408" y="-32" type="curve" smooth="yes"/>
			<point x="596" y="-32"/>
			<point x="716" y="84"/>
			<point x="756" y="122" type="curve"/>
			<point x="810" y="72"/>
			<point x="920" y="-32"/>
			<point x="1080" y="-32" type="curve" smooth="yes"/>
			<point x="1222" y="-32"/>
			<point x="1342" y="76"/>
			<point x="1346" y="242" type="curve"/>
			<point x="1310" y="242" type="line"/>
			<point x="1306" y="86"/>
			<point x="1176" y="20"/>
			<point x="1088" y="20" type="curve" smooth="yes"/>
			<point x="970" y="20"/>
			<point x="872" y="138"/>
			<point x="824" y="194" type="curve"/>
			<point x="862" y="240"/>
			<point x="926" y="318"/>
			<point x="1058" y="556" type="curve" smooth="yes"/>
			<point x="1164" y="744"/>
			<point x="1190" y="798"/>
			<point x="1356" y="808" type="curve"/>
			<point x="1356" y="808"/>
			<point x="1356" y="808"/>
			<point x="1356" y="808" type="curve"/>
			<point x="1356" y="860" type="line"/>
			<point x="1318" y="856"/>
			<point x="1234" y="856"/>
		</contour>
		<contour>
			<point x="396" y="682" type="curve"/>
			<point x="494" y="460"/>
			<point x="636" y="258"/>
			<point x="730" y="150" type="curve"/>
			<point x="632" y="58"/>
			<point x="524" y="20"/>
			<point x="426" y="20" type="curve" smooth="yes"/>
			<point x="264" y="20"/>
			<point x="194" y="186"/>
			<point x="194" y="316" type="curve" smooth="yes"/>
			<point x="194" y="438"/>
			<point x="224" y="494"/>
		</contour>
		<contour>
			<point x="462" y="812" type="curve"/>
			<point x="424" y="916"/>
			<point x="402" y="1048"/>
			<point x="402" y="1156" type="curve" smooth="yes"/>
			<point x="402" y="1332"/>
			<point x="484" y="1388"/>
			<point x="548" y="1388" type="curve" smooth="yes"/>
			<point x="660" y="1388"/>
			<point x="666" y="1208"/>
			<point x="666" y="1178" type="curve" smooth="yes"/>
			<point x="666" y="1108"/>
			<point x="630" y="1008"/>
		</contour>
	</outline>
</glyph>
<glyph name="parenleft" format="2">
	<unicode hex="0028"/>
	<advance width="708"/>
	<outline>
		<contour>
			<point x="180" y="500" type="curve" smooth="yes"/>
			<point x="180" y="356"/>
			<point x="194" y="112"/>
			<point x="314" y="-146" type="curve" smooth="yes"/>
			<point x="410" y="-354"/>
			<point x="574" y="-500"/>
			<point x="598" y="-500" type="curve" smooth="yes"/>
			<point x="608" y="-500"/>
			<point x="612" y="-496"/>
			<point x="612" y="-488" type="curve" smooth="yes"/>
			<point x="612" y="-486"/>
			<point x="612" y="-482"/>
			<point x="606" y="-476" type="curve" smooth="yes"/>
			<point x="514" y="-382"/>
			<point x="268" y="-126"/>
			<point x="268" y="498" type="curve" smooth="yes"/>
			<point x="268" y="1122"/>
			<point x="510" y="1376"/>
			<point x="608" y="1476" type="curve"/>
			<point x="608" y="1478"/>
			<point x="612" y="1482"/>
			<point x="612" y="1488" type="curve" smooth="yes"/>
			<point x="612" y="1494"/>
			<point x="606" y="1498"/>
			<point x="598" y="1498" type="curve" smooth="yes"/>
			<point x="576" y="1498"/>
			<point x="406" y="1350"/>
			<point x="308" y="1130" type="curve" smooth="yes"/>
			<point x="208" y="908"/>
			<point x="180" y="692"/>
		</contour>
	</outline>
</glyph>
<glyph name="parenright" format="2">
	<unicode hex="0029"/>
	<advance width="708"/>
	<outline>
		<contour>
			<point x="526" y="498" type="curve" smooth="yes"/>
			<point x="526" y="642"/>
			<point x="512" y="886"/>
			<point x="392" y="1144" type="curve" smooth="yes"/>
			<point x="296" y="1352"/>
			<point x="132" y="1498"/>
			<point x="108" y="1498" type="curve" smooth="yes"/>
			<point x="102" y="1498"/>
			<point x="94" y="1496"/>
			<point x="94" y="1486" type="curve" smooth="yes"/>
			<point x="94" y="1482"/>
			<point x="96" y="1480"/>
			<point x="98" y="1476" type="curve"/>
			<point x="194" y="1376"/>
			<point x="438" y="1122"/>
			<point x="438" y="500" type="curve" smooth="yes"/>
			<point x="438" y="-124"/>
			<point x="196" y="-378"/>
			<point x="98" y="-478" type="curve"/>
			<point x="96" y="-482"/>
			<point x="94" y="-484"/>
			<point x="94" y="-488" type="curve" smooth="yes"/>
			<point x="94" y="-498"/>
			<point x="102" y="-500"/>
			<point x="108" y="-500" type="curve" smooth="yes"/>
			<point x="130" y="-500"/>
			<point x="300" y="-352"/>
			<point x="398" y="-132" type="curve" smooth="yes"/>
			<point x="498" y="90"/>
			<point x="526" y="306"/>
		</contour>
	</outline>
</glyph>
<glyph name="asterisk" format="2">
	<unicode hex="002A"/>
	<advance width="916"/>
	<outline>
		<contour>
			<point x="458" y="638" type="curve" smooth="yes"/>
			<point x="482" y="638"/>
			<point x="498" y="656"/>
			<point x="498" y="678" type="curve"/>
			<point x="490" y="798"/>
			<point x="482" y="918"/>
			<point x="474" y="1038" type="curve"/>
			<point x="726" y="852" type="line" smooth="yes"/>
			<point x="748" y="834"/>
			<point x="752" y="834"/>
			<point x="762" y="834" type="curve" smooth="yes"/>
			<point x="790" y="834"/>
			<point x="804" y="858"/>
			<point x="804" y="876" type="curve" smooth="yes"/>
			<point x="804" y="898"/>
			<point x="792" y="906"/>
			<point x="770" y="918" type="curve" smooth="yes"/>
			<point x="488" y="1068" type="line"/>
			<point x="770" y="1220" type="line" smooth="yes"/>
			<point x="794" y="1234"/>
			<point x="804" y="1238"/>
			<point x="804" y="1260" type="curve" smooth="yes"/>
			<point x="804" y="1302"/>
			<point x="762" y="1302"/>
			<point x="750" y="1302" type="curve"/>
			<point x="750" y="1302"/>
			<point x="750" y="1302"/>
			<point x="750" y="1302" type="curve"/>
			<point x="474" y="1098" type="line"/>
			<point x="483" y="1218"/>
			<point x="491" y="1338"/>
			<point x="500" y="1458" type="curve"/>
			<point x="496" y="1482"/>
			<point x="480" y="1498"/>
			<point x="458" y="1498" type="curve" smooth="yes"/>
			<point x="434" y="1498"/>
			<point x="418" y="1478"/>
			<point x="418" y="1460" type="curve"/>
			<point x="426" y="1339"/>
			<point x="434" y="1219"/>
			<point x="442" y="1098" type="curve"/>
			<point x="190" y="1284" type="line" smooth="yes"/>
			<point x="168" y="1302"/>
			<point x="164" y="1302"/>
			<point x="154" y="1302" type="curve" smooth="yes"/>
			<point x="126" y="1302"/>
			<point x="112" y="1278"/>
			<point x="112" y="1260" type="curve" smooth="yes"/>
			<point x="112" y="1238"/>
			<point x="124" y="1230"/>
			<point x="146" y="1218" type="curve" smooth="yes"/>
			<point x="428" y="1068" type="line"/>
			<point x="146" y="916" type="line" smooth="yes"/>
			<point x="122" y="902"/>
			<point x="112" y="898"/>
			<point x="112" y="876" type="curve" smooth="yes"/>
			<point x="112" y="834"/>
			<point x="154" y="834"/>
			<point x="166" y="834" type="curve"/>
			<point x="166" y="834"/>
			<point x="166" y="834"/>
			<point x="166" y="834" type="curve"/>
			<point x="442" y="1038" type="line"/>
			<point x="433" y="917"/>
			<point x="425" y="797"/>
			<point x="416" y="676" type="curve"/>
			<point x="418" y="658"/>
			<point x="432" y="638"/>
		</contour>
	</outline>
</glyph>
<glyph name="plus" format="2">
	<unicode hex="002B"/>
	<advance width="1438"/>
	<outline>
		<contour>
			<point x="754" y="464" type="line"/>
			<point x="1284" y="464" type="line" smooth="yes"/>
			<point x="1312" y="464"/>
			<point x="1346" y="464"/>
			<point x="1346" y="498" type="curve" smooth="yes"/>
			<point x="1346" y="534"/>
			<point x="1314" y="534"/>
			<point x="1284" y="534" type="curve" smooth="yes"/>
			<point x="754" y="534" type="line"/>
			<point x="754" y="1064" type="line" smooth="yes"/>
			<point x="754" y="1092"/>
			<point x="754" y="1126"/>
			<point x="720" y="1126" type="curve" smooth="yes"/>
			<point x="684" y="1126"/>
			<point x="684" y="1094"/>
			<point x="684" y="1064" type="curve" smooth="yes"/>
			<point x="684" y="534" type="line"/>
			<point x="154" y="534" type="line" smooth="yes"/>
			<point x="126" y="534"/>
			<point x="92" y="534"/>
			<point x="92" y="500" type="curve" smooth="yes"/>
			<point x="92" y="464"/>
			<point x="124" y="464"/>
			<point x="154" y="464" type="curve" smooth="yes"/>
			<point x="684" y="464" type="line"/>
			<point x="684" y="-66" type="line" smooth="yes"/>
			<point x="684" y="-94"/>
			<point x="684" y="-128"/>
			<point x="718" y="-128" type="curve" smooth="yes"/>
			<point x="754" y="-128"/>
			<point x="754" y="-96"/>
			<point x="754" y="-66" type="curve" smooth="yes"/>
		</contour>
	</outline>
</glyph>
<glyph name="comma" format="2">
	<unicode hex="002C"/>
	<advance width="498"/>
	<outline>
		<contour>
			<point x="168" y="82" type="curve" smooth="yes"/>
			<point x="168" y="30"/>
			<point x="206" y="0"/>
			<point x="250" y="0" type="curve" smooth="yes"/>
			<point x="274" y="0"/>
			<point x="300" y="10"/>
			<point x="316" y="32" type="curve"/>
			<point x="332" y="-70"/>
			<point x="306" y="-226"/>
			<point x="196" y="-354" type="curve"/>
			<point x="186" y="-364"/>
			<point x="186" y="-368"/>
			<point x="186" y="-372" type="curve" smooth="yes"/>
			<point x="186" y="-380"/>
			<point x="194" y="-388"/>
			<point x="202" y="-388" type="curve" smooth="yes"/>
			<point x="214" y="-388"/>
			<point x="352" y="-248"/>
			<point x="352" y="-26" type="curve" smooth="yes"/>
			<point x="352" y="40"/>
			<point x="344" y="164"/>
			<point x="250" y="164" type="curve" smooth="yes"/>
			<point x="206" y="164"/>
			<point x="168" y="134"/>
		</contour>
	</outline>
</glyph>
<glyph name="hyphen" format="2">
  <advance width="301"/>
  <unicode hex="002D"/>
  <outline>
    <contour>
      <point x="255" y="193" type="line"/>
      <point x="255" y="237" type="line"/>
      <point x="4" y="237" type="line"/>
      <point x="4" y="193" type="line"/>
    </contour>
  </outline>
</glyph>
<glyph name="period" format="2">
	<unicode hex="002E"/>
	<advance width="498"/>
	<outline>
		<contour>
			<point x="332" y="82" type="curve" smooth="yes"/>
			<point x="332" y="132"/>
			<point x="292" y="164"/>
			<point x="250" y="164" type="curve" smooth="yes"/>
			<point x="210" y="164"/>
			<point x="168" y="132"/>
			<point x="168" y="82" type="curve" smooth="yes"/>
			<point x="168" y="32"/>
			<point x="208" y="0"/>
			<point x="250" y="0" type="curve" smooth="yes"/>
			<point x="290" y="0"/>
			<point x="332" y="32"/>
		</contour>
	</outline>
</glyph>
<glyph name="slash" format="2">
	<unicode hex="002F"/>
	<advance width="916"/>
	<outline>
		<contour>
			<point x="814" y="1428" type="line" smooth="yes"/>
			<point x="824" y="1454"/>
			<point x="824" y="1458"/>
			<point x="824" y="1462" type="curve" smooth="yes"/>
			<point x="824" y="1486"/>
			<point x="806" y="1498"/>
			<point x="790" y="1498" type="curve" smooth="yes"/>
			<point x="766" y="1498"/>
			<point x="758" y="1482"/>
			<point x="750" y="1458" type="curve" smooth="yes"/>
			<point x="102" y="-428" type="line" smooth="yes"/>
			<point x="92" y="-454"/>
			<point x="92" y="-458"/>
			<point x="92" y="-462" type="curve" smooth="yes"/>
			<point x="92" y="-486"/>
			<point x="110" y="-498"/>
			<point x="126" y="-498" type="curve" smooth="yes"/>
			<point x="150" y="-498"/>
			<point x="158" y="-482"/>
			<point x="166" y="-458" type="curve" smooth="yes"/>
		</contour>
	</outline>
</glyph>
<glyph name="two" format="2">
	<unicode hex="0032"/>
	<advance width="916"/>
	<outline>
		<contour>
			<point x="696" y="950" type="curve" smooth="yes"/>
			<point x="696" y="776"/>
			<point x="594" y="626"/>
			<point x="480" y="496" type="curve" smooth="yes"/>
			<point x="82" y="46" type="line"/>
			<point x="82" y="30"/>
			<point x="82" y="16"/>
			<point x="82" y="0" type="curve"/>
			<point x="82" y="0" type="line"/>
			<point x="786" y="0" type="line"/>
			<point x="834" y="310" type="line"/>
			<point x="798" y="310" type="line"/>
			<point x="778" y="168"/>
			<point x="762" y="144"/>
			<point x="754" y="132" type="curve" smooth="yes"/>
			<point x="744" y="116"/>
			<point x="600" y="116"/>
			<point x="572" y="116" type="curve" smooth="yes"/>
			<point x="188" y="116" type="line"/>
			<point x="308" y="237"/>
			<point x="428" y="357"/>
			<point x="548" y="478" type="curve" smooth="yes"/>
			<point x="720" y="652"/>
			<point x="834" y="760"/>
			<point x="834" y="950" type="curve" smooth="yes"/>
			<point x="834" y="1186"/>
			<point x="646" y="1322"/>
			<point x="436" y="1322" type="curve" smooth="yes"/>
			<point x="216" y="1322"/>
			<point x="82" y="1128"/>
			<point x="82" y="948" type="curve" smooth="yes"/>
			<point x="82" y="870"/>
			<point x="140" y="860"/>
			<point x="164" y="860" type="curve" smooth="yes"/>
			<point x="184" y="860"/>
			<point x="244" y="872"/>
			<point x="244" y="942" type="curve" smooth="yes"/>
			<point x="244" y="1018"/>
			<point x="166" y="1032"/>
			<point x="132" y="1016" type="curve"/>
			<point x="170" y="1186"/>
			<point x="286" y="1270"/>
			<point x="408" y="1270" type="curve" smooth="yes"/>
			<point x="582" y="1270"/>
			<point x="696" y="1132"/>
		</contour>
	</outline>
</glyph>
<glyph name="three" format="2">
	<unicode hex="0033"/>
	<advance width="916"/>
	<outline>
		<contour>
			<point x="458" y="-32" type="curve" smooth="yes"/>
			<point x="680" y="-32"/>
			<point x="850" y="142"/>
			<point x="850" y="346" type="curve" smooth="yes"/>
			<point x="850" y="540"/>
			<point x="690" y="680"/>
			<point x="500" y="702" type="curve"/>
			<point x="652" y="734"/>
			<point x="798" y="870"/>
			<point x="798" y="1052" type="curve" smooth="yes"/>
			<point x="798" y="1208"/>
			<point x="640" y="1322"/>
			<point x="460" y="1322" type="curve" smooth="yes"/>
			<point x="278" y="1322"/>
			<point x="118" y="1210"/>
			<point x="118" y="1050" type="curve" smooth="yes"/>
			<point x="118" y="980"/>
			<point x="170" y="968"/>
			<point x="196" y="968" type="curve" smooth="yes"/>
			<point x="238" y="968"/>
			<point x="274" y="994"/>
			<point x="274" y="1046" type="curve" smooth="yes"/>
			<point x="274" y="1108"/>
			<point x="220" y="1136"/>
			<point x="170" y="1120" type="curve"/>
			<point x="228" y="1252"/>
			<point x="386" y="1276"/>
			<point x="456" y="1276" type="curve" smooth="yes"/>
			<point x="526" y="1276"/>
			<point x="658" y="1242"/>
			<point x="658" y="1050" type="curve" smooth="yes"/>
			<point x="658" y="924"/>
			<point x="604" y="730"/>
			<point x="406" y="720" type="curve" smooth="yes"/>
			<point x="378" y="718"/>
			<point x="332" y="714"/>
			<point x="324" y="714" type="curve"/>
			<point x="310" y="712"/>
			<point x="302" y="710"/>
			<point x="302" y="696" type="curve" smooth="yes"/>
			<point x="302" y="682"/>
			<point x="304" y="680"/>
			<point x="344" y="680" type="curve" smooth="yes"/>
			<point x="442" y="680" type="line" smooth="yes"/>
			<point x="620" y="680"/>
			<point x="698" y="526"/>
			<point x="698" y="348" type="curve" smooth="yes"/>
			<point x="698" y="108"/>
			<point x="570" y="16"/>
			<point x="454" y="16" type="curve" smooth="yes"/>
			<point x="348" y="16"/>
			<point x="176" y="68"/>
			<point x="122" y="222" type="curve"/>
			<point x="180" y="206"/>
			<point x="236" y="236"/>
			<point x="236" y="302" type="curve" smooth="yes"/>
			<point x="236" y="360"/>
			<point x="192" y="386"/>
			<point x="152" y="386" type="curve" smooth="yes"/>
			<point x="118" y="386"/>
			<point x="66" y="370"/>
			<point x="66" y="296" type="curve" smooth="yes"/>
			<point x="66" y="112"/>
			<point x="246" y="-32"/>
		</contour>
	</outline>
</glyph>
<glyph name="four" format="2">
	<unicode hex="0034"/>
	<advance width="916"/>
	<outline>
		<contour>
			<point x="556" y="340" type="line"/>
			<point x="556" y="144" type="line" smooth="yes"/>
			<point x="556" y="72"/>
			<point x="552" y="52"/>
			<point x="412" y="52" type="curve" smooth="yes"/>
			<point x="374" y="52" type="line"/>
			<point x="374" y="0" type="line"/>
			<point x="438" y="4"/>
			<point x="546" y="4"/>
			<point x="614" y="4" type="curve" smooth="yes"/>
			<point x="682" y="4"/>
			<point x="790" y="4"/>
			<point x="854" y="0" type="curve"/>
			<point x="854" y="52" type="line"/>
			<point x="816" y="52" type="line" smooth="yes"/>
			<point x="676" y="52"/>
			<point x="672" y="72"/>
			<point x="672" y="144" type="curve" smooth="yes"/>
			<point x="672" y="340" type="line"/>
			<point x="876" y="340" type="line"/>
			<point x="876" y="392" type="line"/>
			<point x="672" y="392" type="line"/>
			<point x="672" y="1294" type="line" smooth="yes"/>
			<point x="672" y="1314"/>
			<point x="672" y="1326"/>
			<point x="668" y="1332" type="curve" smooth="yes"/>
			<point x="662" y="1338"/>
			<point x="652" y="1338"/>
			<point x="634" y="1338" type="curve"/>
			<point x="40" y="392" type="line"/>
			<point x="40" y="340" type="line"/>
		</contour>
		<contour>
			<point x="80" y="392" type="line"/>
			<point x="562" y="1162" type="line"/>
			<point x="562" y="392" type="line"/>
		</contour>
	</outline>
</glyph>
<glyph name="five" format="2">
	<unicode hex="0035"/>
	<advance width="916"/>
	<outline>
		<contour>
			<point x="432" y="-32" type="curve" smooth="yes"/>
			<point x="638" y="-32"/>
			<point x="834" y="146"/>
			<point x="834" y="404" type="curve" smooth="yes"/>
			<point x="834" y="644"/>
			<point x="678" y="830"/>
			<point x="484" y="830" type="curve" smooth="yes"/>
			<point x="382" y="830"/>
			<point x="296" y="792"/>
			<point x="228" y="720" type="curve"/>
			<point x="228" y="1170" type="line"/>
			<point x="248" y="1162"/>
			<point x="330" y="1136"/>
			<point x="414" y="1136" type="curve" smooth="yes"/>
			<point x="495" y="1136"/>
			<point x="559" y="1155"/>
			<point x="612" y="1181" type="curve" smooth="yes"/>
			<point x="680" y="1215"/>
			<point x="727" y="1261"/>
			<point x="760" y="1294" type="curve"/>
			<point x="760" y="1310"/>
			<point x="760" y="1320"/>
			<point x="748" y="1320" type="curve" smooth="yes"/>
			<point x="746" y="1320"/>
			<point x="742" y="1320"/>
			<point x="726" y="1312" type="curve"/>
			<point x="656" y="1282"/>
			<point x="574" y="1258"/>
			<point x="474" y="1258" type="curve" smooth="yes"/>
			<point x="414" y="1258"/>
			<point x="324" y="1266"/>
			<point x="226" y="1310" type="curve" smooth="yes"/>
			<point x="204" y="1320"/>
			<point x="200" y="1320"/>
			<point x="198" y="1320" type="curve" smooth="yes"/>
			<point x="188" y="1320"/>
			<point x="186" y="1318"/>
			<point x="186" y="1278" type="curve" smooth="yes"/>
			<point x="186" y="698" type="line" smooth="yes"/>
			<point x="186" y="662"/>
			<point x="186" y="652"/>
			<point x="206" y="652" type="curve" smooth="yes"/>
			<point x="216" y="652"/>
			<point x="220" y="656"/>
			<point x="230" y="670" type="curve" smooth="yes"/>
			<point x="294" y="760"/>
			<point x="382" y="798"/>
			<point x="482" y="798" type="curve" smooth="yes"/>
			<point x="514" y="798"/>
			<point x="564" y="789"/>
			<point x="608" y="744" type="curve" smooth="yes"/>
			<point x="659" y="693"/>
			<point x="702" y="595"/>
			<point x="702" y="412" type="curve" smooth="yes"/>
			<point x="702" y="348"/>
			<point x="702" y="232"/>
			<point x="642" y="140" type="curve" smooth="yes"/>
			<point x="592" y="58"/>
			<point x="514" y="16"/>
			<point x="428" y="16" type="curve" smooth="yes"/>
			<point x="296" y="16"/>
			<point x="162" y="108"/>
			<point x="126" y="262" type="curve"/>
			<point x="160" y="250"/>
			<point x="234" y="254"/>
			<point x="234" y="332" type="curve" smooth="yes"/>
			<point x="234" y="386"/>
			<point x="196" y="408"/>
			<point x="158" y="408" type="curve" smooth="yes"/>
			<point x="112" y="408"/>
			<point x="82" y="380"/>
			<point x="82" y="324" type="curve" smooth="yes"/>
			<point x="82" y="150"/>
			<point x="220" y="-32"/>
		</contour>
	</outline>
</glyph>
<glyph name="six" format="2">
	<unicode hex="0036"/>
	<advance width="916"/>
	<outline>
		<contour>
			<point x="76" y="632" type="curve" smooth="yes"/>
			<point x="76" y="356"/>
			<point x="134" y="189"/>
			<point x="213" y="91" type="curve" smooth="yes"/>
			<point x="288" y="-3"/>
			<point x="383" y="-32"/>
			<point x="462" y="-32" type="curve" smooth="yes"/>
			<point x="554" y="-32"/>
			<point x="642" y="6"/>
			<point x="712" y="76" type="curve" smooth="yes"/>
			<point x="788" y="152"/>
			<point x="840" y="268"/>
			<point x="840" y="410" type="curve" smooth="yes"/>
			<point x="840" y="546"/>
			<point x="792" y="662"/>
			<point x="714" y="740" type="curve" smooth="yes"/>
			<point x="650" y="804"/>
			<point x="566" y="842"/>
			<point x="474" y="842" type="curve" smooth="yes"/>
			<point x="352" y="842"/>
			<point x="262" y="762"/>
			<point x="212" y="622" type="curve"/>
			<point x="206" y="908"/>
			<point x="258" y="1046"/>
			<point x="320" y="1136" type="curve" smooth="yes"/>
			<point x="396" y="1244"/>
			<point x="494" y="1276"/>
			<point x="566" y="1276" type="curve" smooth="yes"/>
			<point x="608" y="1276"/>
			<point x="710" y="1268"/>
			<point x="750" y="1190" type="curve"/>
			<point x="718" y="1190"/>
			<point x="658" y="1190"/>
			<point x="658" y="1120" type="curve" smooth="yes"/>
			<point x="658" y="1066"/>
			<point x="702" y="1048"/>
			<point x="730" y="1048" type="curve" smooth="yes"/>
			<point x="748" y="1048"/>
			<point x="802" y="1056"/>
			<point x="802" y="1124" type="curve" smooth="yes"/>
			<point x="802" y="1250"/>
			<point x="702" y="1322"/>
			<point x="564" y="1322" type="curve" smooth="yes"/>
			<point x="326" y="1322"/>
			<point x="76" y="1074"/>
		</contour>
		<contour>
			<point x="462" y="16" type="curve" smooth="yes"/>
			<point x="402" y="16"/>
			<point x="356" y="38"/>
			<point x="322" y="72" type="curve" smooth="yes"/>
			<point x="216" y="178"/>
			<point x="216" y="402"/>
			<point x="216" y="458" type="curve" smooth="yes"/>
			<point x="216" y="602"/>
			<point x="284" y="810"/>
			<point x="470" y="810" type="curve" smooth="yes"/>
			<point x="504" y="810"/>
			<point x="602" y="810"/>
			<point x="668" y="672" type="curve" smooth="yes"/>
			<point x="704" y="594"/>
			<point x="704" y="512"/>
			<point x="704" y="412" type="curve" smooth="yes"/>
			<point x="704" y="304"/>
			<point x="704" y="224"/>
			<point x="662" y="144" type="curve" smooth="yes"/>
			<point x="618" y="62"/>
			<point x="554" y="16"/>
		</contour>
	</outline>
</glyph>
<glyph name="seven" format="2">
	<unicode hex="0037"/>
	<advance width="916"/>
	<outline>
		<contour>
			<point x="406" y="-32" type="curve" smooth="yes"/>
			<point x="478" y="-32"/>
			<point x="478" y="36"/>
			<point x="478" y="62" type="curve" smooth="yes"/>
			<point x="478" y="93"/>
			<point x="478" y="123"/>
			<point x="478" y="154" type="curve" smooth="yes"/>
			<point x="478" y="482"/>
			<point x="534" y="698"/>
			<point x="626" y="836" type="curve" smooth="yes"/>
			<point x="718" y="973"/>
			<point x="810" y="1109"/>
			<point x="902" y="1246" type="curve"/>
			<point x="902" y="1260"/>
			<point x="902" y="1276"/>
			<point x="902" y="1290" type="curve"/>
			<point x="902" y="1290" type="line"/>
			<point x="432" y="1290" type="line"/>
			<point x="432" y="1290"/>
			<point x="432" y="1290"/>
			<point x="432" y="1290" type="curve"/>
			<point x="198" y="1290"/>
			<point x="194" y="1316"/>
			<point x="186" y="1354" type="curve"/>
			<point x="150" y="1354" type="line"/>
			<point x="92" y="980" type="line"/>
			<point x="128" y="980" type="line"/>
			<point x="134" y="1018"/>
			<point x="148" y="1120"/>
			<point x="172" y="1158" type="curve"/>
			<point x="184" y="1174"/>
			<point x="332" y="1174"/>
			<point x="366" y="1174" type="curve" smooth="yes"/>
			<point x="806" y="1174" type="line"/>
			<point x="732" y="1064"/>
			<point x="658" y="954"/>
			<point x="584" y="844" type="curve" smooth="yes"/>
			<point x="436" y="622"/>
			<point x="334" y="322"/>
			<point x="334" y="60" type="curve" smooth="yes"/>
			<point x="334" y="36"/>
			<point x="334" y="-32"/>
		</contour>
	</outline>
</glyph>
<glyph name="eight" format="2">
	<unicode hex="0038"/>
	<advance width="916"/>
	<outline>
		<contour>
			<point x="456" y="-32" type="curve" smooth="yes"/>
			<point x="670" y="-32"/>
			<point x="850" y="122"/>
			<point x="850" y="326" type="curve" smooth="yes"/>
			<point x="850" y="508"/>
			<point x="750" y="582"/>
			<point x="544" y="720" type="curve"/>
			<point x="670" y="784"/>
			<point x="798" y="880"/>
			<point x="798" y="1034" type="curve" smooth="yes"/>
			<point x="798" y="1216"/>
			<point x="622" y="1322"/>
			<point x="460" y="1322" type="curve" smooth="yes"/>
			<point x="278" y="1322"/>
			<point x="118" y="1190"/>
			<point x="118" y="1008" type="curve" smooth="yes"/>
			<point x="118" y="958"/>
			<point x="130" y="872"/>
			<point x="208" y="796" type="curve" smooth="yes"/>
			<point x="228" y="776"/>
			<point x="312" y="716"/>
			<point x="366" y="678" type="curve"/>
			<point x="276" y="632"/>
			<point x="66" y="522"/>
			<point x="66" y="302" type="curve" smooth="yes"/>
			<point x="66" y="96"/>
			<point x="262" y="-32"/>
		</contour>
		<contour>
			<point x="460" y="16" type="curve" smooth="yes"/>
			<point x="278" y="16"/>
			<point x="140" y="146"/>
			<point x="140" y="304" type="curve" smooth="yes"/>
			<point x="140" y="462"/>
			<point x="262" y="594"/>
			<point x="400" y="656" type="curve"/>
			<point x="483" y="599"/>
			<point x="567" y="543"/>
			<point x="650" y="486" type="curve" smooth="yes"/>
			<point x="680" y="464"/>
			<point x="776" y="398"/>
			<point x="776" y="276" type="curve" smooth="yes"/>
			<point x="776" y="128"/>
			<point x="628" y="16"/>
		</contour>
		<contour>
			<point x="512" y="742" type="curve"/>
			<point x="435" y="793"/>
			<point x="359" y="845"/>
			<point x="282" y="896" type="curve" smooth="yes"/>
			<point x="266" y="906"/>
			<point x="186" y="968"/>
			<point x="186" y="1062" type="curve" smooth="yes"/>
			<point x="186" y="1184"/>
			<point x="312" y="1276"/>
			<point x="456" y="1276" type="curve" smooth="yes"/>
			<point x="614" y="1276"/>
			<point x="730" y="1164"/>
			<point x="730" y="1034" type="curve" smooth="yes"/>
			<point x="730" y="966"/>
			<point x="700" y="840"/>
		</contour>
	</outline>
</glyph>
<glyph name="nine" format="2">
	<unicode hex="0039"/>
	<advance width="916"/>
	<outline>
		<contour>
			<point x="376" y="-32" type="curve" smooth="yes"/>
			<point x="606" y="-32"/>
			<point x="840" y="220"/>
			<point x="840" y="660" type="curve" smooth="yes"/>
			<point x="840" y="1208"/>
			<point x="616" y="1322"/>
			<point x="464" y="1322" type="curve" smooth="yes"/>
			<point x="370" y="1322"/>
			<point x="276" y="1282"/>
			<point x="204" y="1210" type="curve" smooth="yes"/>
			<point x="128" y="1134"/>
			<point x="76" y="1020"/>
			<point x="76" y="880" type="curve" smooth="yes"/>
			<point x="76" y="744"/>
			<point x="126" y="626"/>
			<point x="204" y="548" type="curve" smooth="yes"/>
			<point x="268" y="484"/>
			<point x="350" y="448"/>
			<point x="442" y="448" type="curve" smooth="yes"/>
			<point x="610" y="448"/>
			<point x="684" y="604"/>
			<point x="704" y="670" type="curve"/>
			<point x="710" y="330"/>
			<point x="642" y="180"/>
			<point x="560" y="96" type="curve" smooth="yes"/>
			<point x="502" y="38"/>
			<point x="434" y="14"/>
			<point x="372" y="14" type="curve" smooth="yes"/>
			<point x="326" y="14"/>
			<point x="214" y="22"/>
			<point x="168" y="100" type="curve"/>
			<point x="220" y="92"/>
			<point x="258" y="120"/>
			<point x="258" y="170" type="curve" smooth="yes"/>
			<point x="258" y="224"/>
			<point x="214" y="242"/>
			<point x="186" y="242" type="curve" smooth="yes"/>
			<point x="168" y="242"/>
			<point x="114" y="234"/>
			<point x="114" y="166" type="curve" smooth="yes"/>
			<point x="114" y="30"/>
			<point x="232" y="-32"/>
		</contour>
		<contour>
			<point x="446" y="480" type="curve" smooth="yes"/>
			<point x="392" y="480"/>
			<point x="316" y="490"/>
			<point x="254" y="610" type="curve" smooth="yes"/>
			<point x="212" y="688"/>
			<point x="212" y="780"/>
			<point x="212" y="878" type="curve" smooth="yes"/>
			<point x="212" y="996"/>
			<point x="212" y="1078"/>
			<point x="268" y="1166" type="curve" smooth="yes"/>
			<point x="296" y="1208"/>
			<point x="348" y="1276"/>
			<point x="464" y="1276" type="curve" smooth="yes"/>
			<point x="556" y="1276"/>
			<point x="612" y="1222"/>
			<point x="646" y="1150" type="curve" smooth="yes"/>
			<point x="700" y="1038"/>
			<point x="700" y="882"/>
			<point x="700" y="834" type="curve" smooth="yes"/>
			<point x="700" y="692"/>
			<point x="636" y="480"/>
		</contour>
	</outline>
</glyph>
<glyph name="colon" format="2">
	<unicode hex="003A"/>
	<advance width="498"/>
	<outline>
		<contour>
			<point x="332" y="778" type="curve" smooth="yes"/>
			<point x="332" y="828"/>
			<point x="292" y="860"/>
			<point x="250" y="860" type="curve" smooth="yes"/>
			<point x="210" y="860"/>
			<point x="168" y="828"/>
			<point x="168" y="778" type="curve" smooth="yes"/>
			<point x="168" y="728"/>
			<point x="208" y="696"/>
			<point x="250" y="696" type="curve" smooth="yes"/>
			<point x="290" y="696"/>
			<point x="332" y="728"/>
		</contour>
		<contour>
			<point x="332" y="82" type="curve" smooth="yes"/>
			<point x="332" y="132"/>
			<point x="292" y="164"/>
			<point x="250" y="164" type="curve" smooth="yes"/>
			<point x="210" y="164"/>
			<point x="168" y="132"/>
			<point x="168" y="82" type="curve" smooth="yes"/>
			<point x="168" y="32"/>
			<point x="208" y="0"/>
			<point x="250" y="0" type="curve" smooth="yes"/>
			<point x="290" y="0"/>
			<point x="332" y="32"/>
		</contour>
	</outline>
</glyph>
<glyph name="equal" format="2">
	<unicode hex="003D"/>
	<advance width="719"/>
	<outline>
		<contour>
			<point x="643" y="321" type="line" smooth="yes"/>
			<point x="658" y="321"/>
			<point x="673" y="321"/>
			<point x="673" y="338" type="curve" smooth="yes"/>
			<point x="673" y="356"/>
			<point x="656" y="356"/>
			<point x="639" y="356" type="curve" smooth="yes"/>
			<point x="80" y="356" type="line" smooth="yes"/>
			<point x="63" y="356"/>
			<point x="46" y="356"/>
			<point x="46" y="338" type="curve" smooth="yes"/>
			<point x="46" y="321"/>
			<point x="61" y="321"/>
			<point x="76" y="321" type="curve" smooth="yes"/>
		</contour>
		<contour>
			<point x="639" y="143" type="line" smooth="yes"/>
			<point x="656" y="143"/>
			<point x="673" y="143"/>
			<point x="673" y="161" type="curve" smooth="yes"/>
			<point x="673" y="178"/>
			<point x="658" y="178"/>
			<point x="643" y="178" type="curve" smooth="yes"/>
			<point x="76" y="178" type="line" smooth="yes"/>
			<point x="61" y="178"/>
			<point x="46" y="178"/>
			<point x="46" y="161" type="curve" smooth="yes"/>
			<point x="46" y="143"/>
			<point x="63" y="143"/>
			<point x="80" y="143" type="curve" smooth="yes"/>
		</contour>
	</outline>
</glyph>
<glyph name="at" format="2">
	<unicode hex="0040"/>
	<advance width="1438"/>
	<outline>
		<contour>
			<point x="730" y="-16" type="curve"/>
			<point x="978" y="-16"/>
			<point x="1205" y="63"/>
			<point x="1299" y="108" type="curve" smooth="yes"/>
			<point x="1328" y="122"/>
			<point x="1344" y="132"/>
			<point x="1344" y="136" type="curve"/>
			<point x="1344" y="136"/>
			<point x="1344" y="136"/>
			<point x="1344" y="136" type="curve" smooth="yes"/>
			<point x="1344" y="146"/>
			<point x="1342" y="148"/>
			<point x="1302" y="148" type="curve"/>
			<point x="1302" y="148" type="line"/>
			<point x="1268" y="148"/>
			<point x="1264" y="148"/>
			<point x="1254" y="142" type="curve"/>
			<point x="1182" y="108"/>
			<point x="988" y="16"/>
			<point x="728" y="16" type="curve" smooth="yes"/>
			<point x="374" y="16"/>
			<point x="128" y="338"/>
			<point x="128" y="694" type="curve" smooth="yes"/>
			<point x="128" y="1074"/>
			<point x="400" y="1372"/>
			<point x="718" y="1372" type="curve" smooth="yes"/>
			<point x="1008" y="1372"/>
			<point x="1310" y="1112"/>
			<point x="1310" y="660" type="curve" smooth="yes"/>
			<point x="1310" y="510"/>
			<point x="1306" y="294"/>
			<point x="1166" y="294" type="curve" smooth="yes"/>
			<point x="1102" y="294"/>
			<point x="1094" y="376"/>
			<point x="1094" y="430" type="curve" smooth="yes"/>
			<point x="1094" y="914" type="line" smooth="yes"/>
			<point x="1094" y="952"/>
			<point x="1092" y="954"/>
			<point x="1052" y="954" type="curve" smooth="yes"/>
			<point x="1034" y="954"/>
			<point x="1014" y="954"/>
			<point x="996" y="954" type="curve"/>
			<point x="902" y="1090"/>
			<point x="802" y="1126"/>
			<point x="718" y="1126" type="curve" smooth="yes"/>
			<point x="526" y="1126"/>
			<point x="344" y="950"/>
			<point x="344" y="694" type="curve" smooth="yes"/>
			<point x="344" y="438"/>
			<point x="528" y="262"/>
			<point x="718" y="262" type="curve" smooth="yes"/>
			<point x="856" y="262"/>
			<point x="950" y="364"/>
			<point x="986" y="426" type="curve"/>
			<point x="988" y="314"/>
			<point x="1080" y="262"/>
			<point x="1158" y="262" type="curve" smooth="yes"/>
			<point x="1324" y="262"/>
			<point x="1346" y="454"/>
			<point x="1346" y="668" type="curve" smooth="yes"/>
			<point x="1346" y="1170"/>
			<point x="998" y="1404"/>
			<point x="720" y="1404" type="curve" smooth="yes"/>
			<point x="384" y="1404"/>
			<point x="92" y="1102"/>
			<point x="92" y="694" type="curve" smooth="yes"/>
			<point x="92" y="312"/>
			<point x="358" y="-16"/>
		</contour>
		<contour>
			<point x="720" y="294" type="curve" smooth="yes"/>
			<point x="572" y="294"/>
			<point x="450" y="472"/>
			<point x="450" y="694" type="curve" smooth="yes"/>
			<point x="450" y="916"/>
			<point x="572" y="1094"/>
			<point x="720" y="1094" type="curve" smooth="yes"/>
			<point x="804" y="1094"/>
			<point x="868" y="1046"/>
			<point x="900" y="1016" type="curve" smooth="yes"/>
			<point x="948" y="970"/>
			<point x="988" y="912"/>
			<point x="988" y="846" type="curve" smooth="yes"/>
			<point x="988" y="526" type="line" smooth="yes"/>
			<point x="988" y="468"/>
			<point x="878" y="294"/>
		</contour>
	</outline>
</glyph>
<glyph name="A" format="2">
	<unicode hex="0041"/>
	<advance width="1386"/>
	<outline>
		<contour>
			<point x="692" y="1414" type="curve" smooth="yes"/>
			<point x="672" y="1414"/>
			<point x="668" y="1408"/>
			<point x="658" y="1382" type="curve" smooth="yes"/>
			<point x="234" y="182" type="line" smooth="yes"/>
			<point x="196" y="74"/>
			<point x="116" y="52"/>
			<point x="46" y="52" type="curve"/>
			<point x="46" y="0" type="line"/>
			<point x="82" y="4"/>
			<point x="162" y="4"/>
			<point x="200" y="4" type="curve" smooth="yes"/>
			<point x="250" y="4"/>
			<point x="330" y="4"/>
			<point x="378" y="0" type="curve"/>
			<point x="378" y="52" type="line"/>
			<point x="284" y="56"/>
			<point x="270" y="120"/>
			<point x="270" y="144" type="curve" smooth="yes"/>
			<point x="270" y="162"/>
			<point x="274" y="172"/>
			<point x="278" y="184" type="curve" smooth="yes"/>
			<point x="384" y="482" type="line"/>
			<point x="908" y="482" type="line"/>
			<point x="1028" y="142" type="line" smooth="yes"/>
			<point x="1036" y="118"/>
			<point x="1038" y="114"/>
			<point x="1038" y="106" type="curve" smooth="yes"/>
			<point x="1038" y="52"/>
			<point x="952" y="52"/>
			<point x="914" y="52" type="curve"/>
			<point x="914" y="0" type="line"/>
			<point x="972" y="4"/>
			<point x="1076" y="4"/>
			<point x="1138" y="4" type="curve" smooth="yes"/>
			<point x="1190" y="4"/>
			<point x="1290" y="4"/>
			<point x="1338" y="0" type="curve"/>
			<point x="1338" y="52" type="line"/>
			<point x="1338" y="52" type="line"/>
			<point x="1232" y="52"/>
			<point x="1196" y="52"/>
			<point x="1170" y="126" type="curve" smooth="yes"/>
			<point x="726" y="1382" type="line" smooth="yes"/>
			<point x="716" y="1408"/>
			<point x="712" y="1414"/>
		</contour>
		<contour>
			<point x="646" y="1222" type="line"/>
			<point x="890" y="534" type="line"/>
			<point x="402" y="534" type="line"/>
		</contour>
	</outline>
</glyph>
<glyph name="B" format="2">
	<unicode hex="0042"/>
	<advance width="1308"/>
	<outline>
		<contour>
			<point x="1214" y="364" type="curve" smooth="yes"/>
			<point x="1214" y="544"/>
			<point x="1050" y="698"/>
			<point x="836" y="712" type="curve"/>
			<point x="1028" y="750"/>
			<point x="1162" y="878"/>
			<point x="1162" y="1030" type="curve" smooth="yes"/>
			<point x="1162" y="1196"/>
			<point x="998" y="1366"/>
			<point x="740" y="1366" type="curve" smooth="yes"/>
			<point x="104" y="1366" type="line"/>
			<point x="104" y="1314" type="line"/>
			<point x="104" y="1314" type="line"/>
			<point x="242" y="1314"/>
			<point x="264" y="1314"/>
			<point x="264" y="1224" type="curve" smooth="yes"/>
			<point x="264" y="142" type="line" smooth="yes"/>
			<point x="264" y="52"/>
			<point x="242" y="52"/>
			<point x="104" y="52" type="curve"/>
			<point x="104" y="52" type="line"/>
			<point x="104" y="0" type="line"/>
			<point x="792" y="0" type="line" smooth="yes"/>
			<point x="1048" y="0"/>
			<point x="1214" y="182"/>
		</contour>
		<contour>
			<point x="390" y="726" type="line"/>
			<point x="390" y="1236" type="line" smooth="yes"/>
			<point x="390" y="1304"/>
			<point x="394" y="1314"/>
			<point x="474" y="1314" type="curve" smooth="yes"/>
			<point x="730" y="1314" type="line" smooth="yes"/>
			<point x="928" y="1314"/>
			<point x="1016" y="1154"/>
			<point x="1016" y="1030" type="curve" smooth="yes"/>
			<point x="1016" y="878"/>
			<point x="894" y="726"/>
			<point x="678" y="726" type="curve" smooth="yes"/>
		</contour>
		<contour>
			<point x="734" y="52" type="curve" smooth="yes"/>
			<point x="474" y="52" type="line" smooth="yes"/>
			<point x="394" y="52"/>
			<point x="390" y="62"/>
			<point x="390" y="130" type="curve" smooth="yes"/>
			<point x="390" y="694" type="line"/>
			<point x="760" y="694" type="line" smooth="yes"/>
			<point x="966" y="694"/>
			<point x="1066" y="512"/>
			<point x="1066" y="366" type="curve" smooth="yes"/>
			<point x="1066" y="220"/>
			<point x="952" y="52"/>
		</contour>
	</outline>
</glyph>
<glyph name="C" format="2">
  <advance width="667"/>
  <unicode hex="0043"/>
  <outline>
    <contour>
      <point x="46" y="342" type="curve" smooth="yes"/>
      <point x="46" y="134"/>
      <point x="201" y="-16"/>
      <point x="373" y="-16" type="curve" smooth="yes"/>
      <point x="526" y="-16"/>
      <point x="621" y="119"/>
      <point x="621" y="234" type="curve" smooth="yes"/>
      <point x="621" y="244"/>
      <point x="621" y="248"/>
      <point x="612" y="248" type="curve" smooth="yes"/>
      <point x="604" y="248"/>
      <point x="604" y="245"/>
      <point x="603" y="236" type="curve"/>
      <point x="595" y="96"/>
      <point x="495" y="10"/>
      <point x="387" y="10" type="curve" smooth="yes"/>
      <point x="334.65258" y="10.0"/>
      <point x="266.2387052499" y="28.963684295199993"/>
      <point x="212.03680549191205" y="82.57095400210265" type="curve" smooth="yes"/>
      <point x="160.62521416830003" y="133.41852677079999"/>
      <point x="122.00000000000003" y="215.4346"/>
      <point x="122" y="342" type="curve" smooth="yes"/>
      <point x="122.0" y="467.04249"/>
      <point x="160.1015198646" y="548.2452794329"/>
      <point x="210.4629726618492" y="598.914036463662" type="curve" smooth="yes"/>
      <point x="265.2205012611" y="654.0056940329999"/>
      <point x="334.47173000000004" y="673.0"/>
      <point x="385" y="673" type="curve" smooth="yes"/>
      <point x="498" y="673"/>
      <point x="580" y="575"/>
      <point x="599" y="436" type="curve" smooth="yes"/>
      <point x="601" y="424"/>
      <point x="601" y="422"/>
      <point x="610" y="422" type="curve" smooth="yes"/>
      <point x="621" y="422"/>
      <point x="621" y="424"/>
      <point x="621" y="442" type="curve" smooth="yes"/>
      <point x="621" y="679" type="line" smooth="yes"/>
      <point x="621" y="697"/>
      <point x="620" y="698"/>
      <point x="614" y="698" type="curve" smooth="yes"/>
      <point x="610" y="698"/>
      <point x="609" y="697"/>
      <point x="602" y="685" type="curve" smooth="yes"/>
      <point x="558" y="601" type="line"/>
      <point x="509" y="663"/>
      <point x="449" y="699"/>
      <point x="372" y="699" type="curve" smooth="yes"/>
      <point x="201" y="699"/>
      <point x="46" y="548"/>
    </contour>
  </outline>
</glyph>
<glyph name="D" format="2">
	<unicode hex="0044"/>
	<advance width="1412"/>
	<outline>
		<contour>
			<point x="1320" y="672" type="curve" smooth="yes"/>
			<point x="1320" y="1050"/>
			<point x="1066" y="1366"/>
			<point x="740" y="1366" type="curve" smooth="yes"/>
			<point x="104" y="1366" type="line"/>
			<point x="104" y="1314" type="line"/>
			<point x="104" y="1314"/>
			<point x="104" y="1314"/>
			<point x="104" y="1314" type="curve" smooth="yes"/>
			<point x="242" y="1314"/>
			<point x="264" y="1314"/>
			<point x="264" y="1224" type="curve" smooth="yes"/>
			<point x="264" y="142" type="line" smooth="yes"/>
			<point x="264" y="52"/>
			<point x="242" y="52"/>
			<point x="104" y="52" type="curve" smooth="yes"/>
			<point x="104" y="52"/>
			<point x="104" y="52"/>
			<point x="104" y="52" type="curve"/>
			<point x="104" y="0" type="line"/>
			<point x="740" y="0" type="line" smooth="yes"/>
			<point x="1062" y="0"/>
			<point x="1320" y="296"/>
		</contour>
		<contour>
			<point x="476" y="52" type="line" smooth="yes"/>
			<point x="396" y="52"/>
			<point x="392" y="62"/>
			<point x="392" y="130" type="curve" smooth="yes"/>
			<point x="392" y="1236" type="line" smooth="yes"/>
			<point x="392" y="1304"/>
			<point x="396" y="1314"/>
			<point x="476" y="1314" type="curve" smooth="yes"/>
			<point x="700" y="1314" type="line" smooth="yes"/>
			<point x="800" y="1314"/>
			<point x="948" y="1280"/>
			<point x="1052" y="1134" type="curve" smooth="yes"/>
			<point x="1122" y="1038"/>
			<point x="1172" y="892"/>
			<point x="1172" y="672" type="curve" smooth="yes"/>
			<point x="1172" y="390"/>
			<point x="1090" y="276"/>
			<point x="1052" y="222" type="curve" smooth="yes"/>
			<point x="1004" y="160"/>
			<point x="890" y="52"/>
			<point x="700" y="52" type="curve" smooth="yes"/>
		</contour>
	</outline>
</glyph>
<glyph name="E" format="2">
	<unicode hex="0045"/>
	<advance width="1256"/>
	<outline>
		<contour>
			<point x="1214" y="506" type="line"/>
			<point x="1178" y="506" type="line"/>
			<point x="1134" y="212"/>
			<point x="1108" y="52"/>
			<point x="756" y="52" type="curve" smooth="yes"/>
			<point x="478" y="52" type="line" smooth="yes"/>
			<point x="398" y="52"/>
			<point x="394" y="62"/>
			<point x="394" y="130" type="curve" smooth="yes"/>
			<point x="394" y="682" type="line"/>
			<point x="582" y="682" type="line" smooth="yes"/>
			<point x="770" y="682"/>
			<point x="788" y="614"/>
			<point x="788" y="448" type="curve"/>
			<point x="824" y="448" type="line"/>
			<point x="824" y="968" type="line"/>
			<point x="788" y="968" type="line"/>
			<point x="788" y="802"/>
			<point x="770" y="734"/>
			<point x="582" y="734" type="curve" smooth="yes"/>
			<point x="394" y="734" type="line"/>
			<point x="394" y="1232" type="line" smooth="yes"/>
			<point x="394" y="1300"/>
			<point x="398" y="1310"/>
			<point x="478" y="1310" type="curve" smooth="yes"/>
			<point x="752" y="1310" type="line" smooth="yes"/>
			<point x="1062" y="1310"/>
			<point x="1098" y="1186"/>
			<point x="1126" y="920" type="curve"/>
			<point x="1162" y="920" type="line"/>
			<point x="1114" y="1362" type="line"/>
			<point x="102" y="1362" type="line"/>
			<point x="102" y="1310" type="line"/>
			<point x="102" y="1310" type="line"/>
			<point x="240" y="1310"/>
			<point x="262" y="1310"/>
			<point x="262" y="1220" type="curve" smooth="yes"/>
			<point x="262" y="142" type="line" smooth="yes"/>
			<point x="262" y="52"/>
			<point x="240" y="52"/>
			<point x="102" y="52" type="curve"/>
			<point x="102" y="52" type="line"/>
			<point x="102" y="0" type="line"/>
			<point x="1142" y="0" type="line"/>
		</contour>
	</outline>
</glyph>
<glyph name="F" format="2">
	<unicode hex="0046"/>
	<advance width="1204"/>
	<outline>
		<contour>
			<point x="1088" y="1362" type="line"/>
			<point x="102" y="1362" type="line"/>
			<point x="102" y="1310" type="line"/>
			<point x="102" y="1310" type="line"/>
			<point x="240" y="1310"/>
			<point x="262" y="1310"/>
			<point x="262" y="1220" type="curve" smooth="yes"/>
			<point x="262" y="142" type="line" smooth="yes"/>
			<point x="262" y="52"/>
			<point x="240" y="52"/>
			<point x="102" y="52" type="curve"/>
			<point x="102" y="52" type="line"/>
			<point x="102" y="0" type="line"/>
			<point x="160" y="4"/>
			<point x="272" y="4"/>
			<point x="334" y="4" type="curve" smooth="yes"/>
			<point x="416" y="4"/>
			<point x="512" y="4"/>
			<point x="594" y="0" type="curve"/>
			<point x="594" y="52" type="line"/>
			<point x="550" y="52" type="line"/>
			<point x="398" y="52"/>
			<point x="394" y="72"/>
			<point x="394" y="144" type="curve" smooth="yes"/>
			<point x="394" y="656" type="line"/>
			<point x="574" y="656" type="line" smooth="yes"/>
			<point x="760" y="656"/>
			<point x="778" y="590"/>
			<point x="778" y="422" type="curve"/>
			<point x="814" y="422" type="line"/>
			<point x="814" y="942" type="line"/>
			<point x="778" y="942" type="line"/>
			<point x="778" y="774"/>
			<point x="760" y="708"/>
			<point x="574" y="708" type="curve" smooth="yes"/>
			<point x="394" y="708" type="line"/>
			<point x="394" y="1232" type="line" smooth="yes"/>
			<point x="394" y="1300"/>
			<point x="398" y="1310"/>
			<point x="478" y="1310" type="curve" smooth="yes"/>
			<point x="736" y="1310" type="line" smooth="yes"/>
			<point x="1038" y="1310"/>
			<point x="1072" y="1186"/>
			<point x="1100" y="920" type="curve"/>
			<point x="1136" y="920" type="line"/>
		</contour>
	</outline>
</glyph>
<glyph name="G" format="2">
  <advance width="726"/>
  <unicode hex="0047"/>
  <outline>
    <contour>
      <point x="46" y="342" type="curve" smooth="yes"/>
      <point x="46" y="137"/>
      <point x="198" y="-16"/>
      <point x="374" y="-16" type="curve" smooth="yes"/>
      <point x="420" y="-16"/>
      <point x="465" y="-7"/>
      <point x="501" y="12" type="curve" smooth="yes"/>
      <point x="529" y="26"/>
      <point x="552" y="45"/>
      <point x="565" y="70" type="curve"/>
      <point x="582" y="29"/>
      <point x="610" y="1"/>
      <point x="615" y="1" type="curve" smooth="yes"/>
      <point x="620" y="1"/>
      <point x="621" y="2"/>
      <point x="621" y="20" type="curve" smooth="yes"/>
      <point x="621" y="199" type="line" smooth="yes"/>
      <point x="621" y="237"/>
      <point x="624" y="242"/>
      <point x="686" y="242" type="curve"/>
      <point x="686" y="242" type="line"/>
      <point x="686" y="268" type="line"/>
      <point x="662" y="266"/>
      <point x="608" y="266"/>
      <point x="581" y="266" type="curve" smooth="yes"/>
      <point x="553" y="266"/>
      <point x="475" y="267"/>
      <point x="437" y="268" type="curve"/>
      <point x="437" y="242" type="line"/>
      <point x="467" y="242" type="line" smooth="yes"/>
      <point x="553" y="242"/>
      <point x="555" y="231"/>
      <point x="555" y="195" type="curve" smooth="yes"/>
      <point x="555" y="129" type="line" smooth="yes"/>
      <point x="555" y="78"/>
      <point x="528" y="49"/>
      <point x="495" y="32" type="curve" smooth="yes"/>
      <point x="456" y="13"/>
      <point x="411" y="10"/>
      <point x="394" y="10" type="curve" smooth="yes"/>
      <point x="339.47077" y="10.0"/>
      <point x="266.4433934254" y="29.899521315099992"/>
      <point x="209.787254940501" y="87.35582681786087" type="curve" smooth="yes"/>
      <point x="159.42588622890003" y="138.42846013899998"/>
      <point x="122.00000000000003" y="219.17600999999996"/>
      <point x="122" y="342" type="curve" smooth="yes"/>
      <point x="122" y="467"/>
      <point x="160.1015198646" y="548.2452794329"/>
      <point x="210.4629726618492" y="598.914036463662" type="curve" smooth="yes"/>
      <point x="265.2205012611" y="654.0056940329999"/>
      <point x="334.47173000000004" y="673.0"/>
      <point x="385" y="673" type="curve" smooth="yes"/>
      <point x="498" y="673"/>
      <point x="580" y="575"/>
      <point x="599" y="436" type="curve" smooth="yes"/>
      <point x="601" y="424"/>
      <point x="601" y="422"/>
      <point x="610" y="422" type="curve" smooth="yes"/>
      <point x="621" y="422"/>
      <point x="621" y="424"/>
      <point x="621" y="442" type="curve" smooth="yes"/>
      <point x="621" y="679" type="line" smooth="yes"/>
      <point x="621" y="697"/>
      <point x="620" y="698"/>
      <point x="614" y="698" type="curve" smooth="yes"/>
      <point x="610" y="698"/>
      <point x="609" y="697"/>
      <point x="602" y="685" type="curve" smooth="yes"/>
      <point x="558" y="601" type="line"/>
      <point x="509" y="663"/>
      <point x="449" y="699"/>
      <point x="372" y="699" type="curve" smooth="yes"/>
      <point x="201" y="699"/>
      <point x="46" y="548"/>
    </contour>
  </outline>
</glyph>
<glyph name="H" format="2">
	<unicode hex="0048"/>
	<advance width="1386"/>
	<outline>
		<contour>
			<point x="102" y="0" type="line"/>
			<point x="160" y="4"/>
			<point x="266" y="4"/>
			<point x="328" y="4" type="curve" smooth="yes"/>
			<point x="390" y="4"/>
			<point x="496" y="4"/>
			<point x="554" y="0" type="curve"/>
			<point x="554" y="52" type="line"/>
			<point x="554" y="52" type="line"/>
			<point x="416" y="52"/>
			<point x="394" y="52"/>
			<point x="394" y="142" type="curve" smooth="yes"/>
			<point x="394" y="684" type="line"/>
			<point x="990" y="684" type="line"/>
			<point x="990" y="142" type="line" smooth="yes"/>
			<point x="990" y="52"/>
			<point x="968" y="52"/>
			<point x="830" y="52" type="curve"/>
			<point x="830" y="52" type="line"/>
			<point x="830" y="0" type="line"/>
			<point x="888" y="4"/>
			<point x="994" y="4"/>
			<point x="1056" y="4" type="curve" smooth="yes"/>
			<point x="1118" y="4"/>
			<point x="1224" y="4"/>
			<point x="1282" y="0" type="curve"/>
			<point x="1282" y="52" type="line"/>
			<point x="1282" y="52" type="line"/>
			<point x="1144" y="52"/>
			<point x="1122" y="52"/>
			<point x="1122" y="142" type="curve" smooth="yes"/>
			<point x="1122" y="1224" type="line" smooth="yes"/>
			<point x="1122" y="1314"/>
			<point x="1144" y="1314"/>
			<point x="1282" y="1314" type="curve"/>
			<point x="1282" y="1314" type="line"/>
			<point x="1282" y="1366" type="line"/>
			<point x="1224" y="1362"/>
			<point x="1118" y="1362"/>
			<point x="1056" y="1362" type="curve" smooth="yes"/>
			<point x="994" y="1362"/>
			<point x="888" y="1362"/>
			<point x="830" y="1366" type="curve"/>
			<point x="830" y="1314" type="line"/>
			<point x="830" y="1314" type="line"/>
			<point x="968" y="1314"/>
			<point x="990" y="1314"/>
			<point x="990" y="1224" type="curve" smooth="yes"/>
			<point x="990" y="736" type="line"/>
			<point x="394" y="736" type="line"/>
			<point x="394" y="1224" type="line" smooth="yes"/>
			<point x="394" y="1314"/>
			<point x="416" y="1314"/>
			<point x="554" y="1314" type="curve"/>
			<point x="554" y="1314" type="line"/>
			<point x="554" y="1366" type="line"/>
			<point x="496" y="1362"/>
			<point x="390" y="1362"/>
			<point x="328" y="1362" type="curve" smooth="yes"/>
			<point x="266" y="1362"/>
			<point x="160" y="1362"/>
			<point x="102" y="1366" type="curve"/>
			<point x="102" y="1314" type="line"/>
			<point x="102" y="1314" type="line"/>
			<point x="240" y="1314"/>
			<point x="262" y="1314"/>
			<point x="262" y="1224" type="curve" smooth="yes"/>
			<point x="262" y="142" type="line" smooth="yes"/>
			<point x="262" y="52"/>
			<point x="240" y="52"/>
			<point x="102" y="52" type="curve"/>
			<point x="102" y="52" type="line"/>
		</contour>
	</outline>
</glyph>
<glyph name="I" format="2">
	<unicode hex="0049"/>
	<advance width="654"/>
	<outline>
		<contour>
			<point x="94" y="0" type="line"/>
			<point x="158" y="4"/>
			<point x="260" y="4"/>
			<point x="328" y="4" type="curve" smooth="yes"/>
			<point x="396" y="4"/>
			<point x="498" y="4"/>
			<point x="562" y="0" type="curve"/>
			<point x="562" y="52" type="line"/>
			<point x="562" y="52" type="line"/>
			<point x="418" y="52"/>
			<point x="394" y="52"/>
			<point x="394" y="142" type="curve" smooth="yes"/>
			<point x="394" y="1224" type="line" smooth="yes"/>
			<point x="394" y="1314"/>
			<point x="418" y="1314"/>
			<point x="562" y="1314" type="curve"/>
			<point x="562" y="1314" type="line"/>
			<point x="562" y="1366" type="line"/>
			<point x="498" y="1362"/>
			<point x="396" y="1362"/>
			<point x="328" y="1362" type="curve" smooth="yes"/>
			<point x="260" y="1362"/>
			<point x="158" y="1362"/>
			<point x="94" y="1366" type="curve"/>
			<point x="94" y="1314" type="line"/>
			<point x="94" y="1314" type="line"/>
			<point x="238" y="1314"/>
			<point x="262" y="1314"/>
			<point x="262" y="1224" type="curve" smooth="yes"/>
			<point x="262" y="142" type="line" smooth="yes"/>
			<point x="262" y="52"/>
			<point x="238" y="52"/>
			<point x="94" y="52" type="curve"/>
			<point x="94" y="52" type="line"/>
		</contour>
	</outline>
</glyph>
<glyph name="J" format="2">
	<unicode hex="004A"/>
	<advance width="942"/>
	<outline>
		<contour>
			<point x="392" y="-32" type="curve" smooth="yes"/>
			<point x="566" y="-32"/>
			<point x="718" y="108"/>
			<point x="718" y="286" type="curve" smooth="yes"/>
			<point x="718" y="1232" type="line" smooth="yes"/>
			<point x="718" y="1310"/>
			<point x="740" y="1314"/>
			<point x="838" y="1314" type="curve"/>
			<point x="838" y="1314" type="line"/>
			<point x="838" y="1366" type="line"/>
			<point x="834" y="1366"/>
			<point x="692" y="1362"/>
			<point x="642" y="1362" type="curve" smooth="yes"/>
			<point x="558" y="1362"/>
			<point x="466" y="1362"/>
			<point x="382" y="1366" type="curve"/>
			<point x="382" y="1314" type="line"/>
			<point x="430" y="1314" type="line" smooth="yes"/>
			<point x="586" y="1314"/>
			<point x="590" y="1292"/>
			<point x="590" y="1220" type="curve" smooth="yes"/>
			<point x="590" y="294" type="line" smooth="yes"/>
			<point x="590" y="110"/>
			<point x="490" y="0"/>
			<point x="388" y="0" type="curve" smooth="yes"/>
			<point x="336" y="0"/>
			<point x="216" y="24"/>
			<point x="164" y="146" type="curve"/>
			<point x="208" y="132"/>
			<point x="276" y="156"/>
			<point x="276" y="228" type="curve" smooth="yes"/>
			<point x="276" y="276"/>
			<point x="242" y="312"/>
			<point x="192" y="312" type="curve" smooth="yes"/>
			<point x="144" y="312"/>
			<point x="106" y="282"/>
			<point x="106" y="224" type="curve" smooth="yes"/>
			<point x="106" y="90"/>
			<point x="228" y="-32"/>
		</contour>
	</outline>
</glyph>
<glyph name="K" format="2">
	<unicode hex="004B"/>
	<advance width="719"/>
	<outline>
		<contour>
			<point x="51" y="0" type="line"/>
			<point x="80" y="2"/>
			<point x="133" y="2"/>
			<point x="164" y="2" type="curve" smooth="yes"/>
			<point x="195" y="2"/>
			<point x="248" y="2"/>
			<point x="277" y="0" type="curve"/>
			<point x="277" y="26" type="line"/>
			<point x="277" y="26" type="line" smooth="yes"/>
			<point x="208" y="26"/>
			<point x="197" y="26"/>
			<point x="197" y="71" type="curve" smooth="yes"/>
			<point x="197" y="248" type="line"/>
			<point x="325" y="375" type="line"/>
			<point x="514" y="85" type="line" smooth="yes"/>
			<point x="520" y="75"/>
			<point x="527" y="62"/>
			<point x="527" y="52" type="curve" smooth="yes"/>
			<point x="527" y="26"/>
			<point x="499" y="26"/>
			<point x="486" y="26" type="curve"/>
			<point x="486" y="0" type="line"/>
			<point x="518" y="2"/>
			<point x="564" y="2"/>
			<point x="597" y="2" type="curve" smooth="yes"/>
			<point x="621" y="2"/>
			<point x="662" y="2"/>
			<point x="685" y="0" type="curve"/>
			<point x="685" y="26" type="line"/>
			<point x="637" y="26"/>
			<point x="622" y="32"/>
			<point x="592" y="78" type="curve" smooth="yes"/>
			<point x="369" y="419" type="line"/>
			<point x="542" y="592" type="line" smooth="yes"/>
			<point x="578" y="627"/>
			<point x="616" y="655"/>
			<point x="672" y="657" type="curve"/>
			<point x="672" y="683" type="line"/>
			<point x="652" y="682"/>
			<point x="627" y="681"/>
			<point x="607" y="681" type="curve" smooth="yes"/>
			<point x="580" y="681"/>
			<point x="533" y="681"/>
			<point x="507" y="683" type="curve"/>
			<point x="507" y="657" type="line"/>
			<point x="533" y="655"/>
			<point x="537" y="637"/>
			<point x="537" y="630" type="curve" smooth="yes"/>
			<point x="537" y="623"/>
			<point x="533" y="612"/>
			<point x="529" y="606" type="curve"/>
			<point x="197" y="273" type="line"/>
			<point x="197" y="612" type="line" smooth="yes"/>
			<point x="197" y="657"/>
			<point x="208" y="657"/>
			<point x="277" y="657" type="curve" smooth="yes"/>
			<point x="277" y="657" type="line"/>
			<point x="277" y="683" type="line"/>
			<point x="248" y="681"/>
			<point x="195" y="681"/>
			<point x="164" y="681" type="curve" smooth="yes"/>
			<point x="133" y="681"/>
			<point x="80" y="681"/>
			<point x="51" y="683" type="curve"/>
			<point x="51" y="657" type="line"/>
			<point x="51" y="657" type="line" smooth="yes"/>
			<point x="121" y="657"/>
			<point x="131" y="656"/>
			<point x="131" y="612" type="curve" smooth="yes"/>
			<point x="131" y="71" type="line" smooth="yes"/>
			<point x="131" y="27"/>
			<point x="120" y="26"/>
			<point x="51" y="26" type="curve" smooth="yes"/>
			<point x="51" y="26" type="line"/>
		</contour>
	</outline>
</glyph>
<glyph name="L" format="2">
	<unicode hex="004C"/>
	<advance width="1150"/>
	<outline>
		<contour>
			<point x="1084" y="506" type="line"/>
			<point x="1048" y="506" type="line"/>
			<point x="1032" y="308"/>
			<point x="1006" y="52"/>
			<point x="664" y="52" type="curve" smooth="yes"/>
			<point x="478" y="52" type="line" smooth="yes"/>
			<point x="398" y="52"/>
			<point x="394" y="62"/>
			<point x="394" y="130" type="curve" smooth="yes"/>
			<point x="394" y="1222" type="line" smooth="yes"/>
			<point x="394" y="1294"/>
			<point x="398" y="1314"/>
			<point x="550" y="1314" type="curve" smooth="yes"/>
			<point x="594" y="1314" type="line"/>
			<point x="594" y="1366" type="line"/>
			<point x="512" y="1362"/>
			<point x="416" y="1362"/>
			<point x="334" y="1362" type="curve" smooth="yes"/>
			<point x="272" y="1362"/>
			<point x="160" y="1362"/>
			<point x="102" y="1366" type="curve"/>
			<point x="102" y="1314" type="line"/>
			<point x="102" y="1314" type="line"/>
			<point x="240" y="1314"/>
			<point x="262" y="1314"/>
			<point x="262" y="1224" type="curve" smooth="yes"/>
			<point x="262" y="142" type="line" smooth="yes"/>
			<point x="262" y="52"/>
			<point x="240" y="52"/>
			<point x="102" y="52" type="curve"/>
			<point x="102" y="52" type="line"/>
			<point x="102" y="0" type="line"/>
			<point x="1036" y="0" type="line"/>
		</contour>
	</outline>
</glyph>
<glyph name="M" format="2">
	<unicode hex="004D"/>
	<advance width="1700"/>
	<outline>
		<contour>
			<point x="850" y="162" type="line"/>
			<point x="418" y="1334" type="line" smooth="yes"/>
			<point x="406" y="1364"/>
			<point x="404" y="1366"/>
			<point x="362" y="1366" type="curve" smooth="yes"/>
			<point x="106" y="1366" type="line"/>
			<point x="106" y="1314" type="line"/>
			<point x="106" y="1314" type="line"/>
			<point x="244" y="1314"/>
			<point x="266" y="1314"/>
			<point x="266" y="1224" type="curve" smooth="yes"/>
			<point x="266" y="196" type="line" smooth="yes"/>
			<point x="266" y="146"/>
			<point x="266" y="52"/>
			<point x="106" y="52" type="curve"/>
			<point x="106" y="52" type="line"/>
			<point x="106" y="0" type="line"/>
			<point x="152" y="4"/>
			<point x="236" y="4"/>
			<point x="286" y="4" type="curve" smooth="yes"/>
			<point x="336" y="4"/>
			<point x="420" y="4"/>
			<point x="466" y="0" type="curve"/>
			<point x="466" y="52" type="line"/>
			<point x="466" y="52" type="line"/>
			<point x="306" y="52"/>
			<point x="306" y="146"/>
			<point x="306" y="196" type="curve" smooth="yes"/>
			<point x="306" y="1306" type="line"/>
			<point x="308" y="1306" type="line"/>
			<point x="778" y="32" type="line" smooth="yes"/>
			<point x="786" y="12"/>
			<point x="790" y="0"/>
			<point x="806" y="0" type="curve" smooth="yes"/>
			<point x="822" y="0"/>
			<point x="826" y="12"/>
			<point x="834" y="32" type="curve" smooth="yes"/>
			<point x="1308" y="1316" type="line"/>
			<point x="1310" y="1316" type="line"/>
			<point x="1310" y="142" type="line" smooth="yes"/>
			<point x="1310" y="52"/>
			<point x="1288" y="52"/>
			<point x="1150" y="52" type="curve"/>
			<point x="1150" y="52" type="line"/>
			<point x="1150" y="0" type="line"/>
			<point x="1204" y="4"/>
			<point x="1312" y="4"/>
			<point x="1370" y="4" type="curve" smooth="yes"/>
			<point x="1428" y="4"/>
			<point x="1538" y="4"/>
			<point x="1592" y="0" type="curve"/>
			<point x="1592" y="52" type="line"/>
			<point x="1592" y="52" type="line"/>
			<point x="1454" y="52"/>
			<point x="1432" y="52"/>
			<point x="1432" y="142" type="curve" smooth="yes"/>
			<point x="1432" y="1224" type="line" smooth="yes"/>
			<point x="1432" y="1314"/>
			<point x="1454" y="1314"/>
			<point x="1592" y="1314" type="curve"/>
			<point x="1592" y="1314" type="line"/>
			<point x="1592" y="1366" type="line"/>
			<point x="1338" y="1366" type="line" smooth="yes"/>
			<point x="1296" y="1366"/>
			<point x="1294" y="1364"/>
			<point x="1282" y="1334" type="curve" smooth="yes"/>
		</contour>
	</outline>
</glyph>
<glyph name="N" format="2">
  <advance width="693"/>
  <unicode hex="004E"/>
  <outline>
    <contour>
      <point x="131" y="98" type="line" smooth="yes"/>
      <point x="131" y="73"/>
      <point x="131" y="26"/>
      <point x="51" y="26" type="curve"/>
      <point x="51" y="0" type="line"/>
      <point x="74" y="2"/>
      <point x="116" y="2"/>
      <point x="141" y="2" type="curve" smooth="yes"/>
      <point x="166" y="2"/>
      <point x="208" y="2"/>
      <point x="231" y="0" type="curve"/>
      <point x="231" y="26" type="line"/>
      <point x="151" y="26"/>
      <point x="151" y="73"/>
      <point x="151" y="98" type="curve" smooth="yes"/>
      <point x="151" y="637" type="line"/>
      <point x="158" y="631"/>
      <point x="158" y="629"/>
      <point x="165" y="619" type="curve"/>
      <point x="536" y="12" type="line" smooth="yes"/>
      <point x="543" y="0"/>
      <point x="546" y="0"/>
      <point x="551" y="0" type="curve" smooth="yes"/>
      <point x="561" y="0"/>
      <point x="561" y="3"/>
      <point x="561" y="22" type="curve" smooth="yes"/>
      <point x="561" y="585" type="line" smooth="yes"/>
      <point x="561" y="610"/>
      <point x="561" y="657"/>
      <point x="641" y="657" type="curve"/>
      <point x="641" y="683" type="line"/>
      <point x="618" y="681"/>
      <point x="576" y="681"/>
      <point x="551" y="681" type="curve" smooth="yes"/>
      <point x="526" y="681"/>
      <point x="484" y="681"/>
      <point x="461" y="683" type="curve"/>
      <point x="461" y="657" type="line"/>
      <point x="541" y="657"/>
      <point x="541" y="610"/>
      <point x="541" y="585" type="curve" smooth="yes"/>
      <point x="541" y="122" type="line"/>
      <point x="205" y="671" type="line" smooth="yes"/>
      <point x="198" y="682"/>
      <point x="197" y="683"/>
      <point x="178" y="683" type="curve" smooth="yes"/>
      <point x="51" y="683" type="line"/>
      <point x="51" y="657" type="line"/>
      <point x="70" y="657" type="line" smooth="yes"/>
      <point x="110" y="657"/>
      <point x="128" y="652"/>
      <point x="131" y="651" type="curve"/>
      <point x="131.0" y="651.0"/>
      <point x="131.0" y="651.0"/>
      <point x="131" y="651" type="curve"/>
    </contour>
  </outline>
</glyph>
<glyph name="O" format="2">
	<unicode hex="004F"/>
	<advance width="1438"/>
	<outline>
		<contour>
			<point x="1346" y="680" type="curve" smooth="yes"/>
			<point x="1346" y="1090"/>
			<point x="1052" y="1398"/>
			<point x="720" y="1398" type="curve" smooth="yes"/>
			<point x="380" y="1398"/>
			<point x="92" y="1086"/>
			<point x="92" y="680" type="curve" smooth="yes"/>
			<point x="92" y="274"/>
			<point x="384" y="-32"/>
			<point x="718" y="-32" type="curve" smooth="yes"/>
			<point x="1060" y="-32"/>
			<point x="1346" y="280"/>
		</contour>
		<contour>
			<point x="720" y="4" type="curve" smooth="yes"/>
			<point x="624" y="4"/>
			<point x="523" y="45"/>
			<point x="439" y="129" type="curve" smooth="yes"/>
			<point x="326" y="242"/>
			<point x="244" y="433"/>
			<point x="244" y="706" type="curve" smooth="yes"/>
			<point x="244" y="958"/>
			<point x="322" y="1129"/>
			<point x="426" y="1233" type="curve" smooth="yes"/>
			<point x="515" y="1322"/>
			<point x="624" y="1362"/>
			<point x="718" y="1362" type="curve" smooth="yes"/>
			<point x="816" y="1362"/>
			<point x="925" y="1321"/>
			<point x="1014" y="1232" type="curve" smooth="yes"/>
			<point x="1118" y="1127"/>
			<point x="1194" y="956"/>
			<point x="1194" y="706" type="curve" smooth="yes"/>
			<point x="1194" y="431"/>
			<point x="1112" y="242"/>
			<point x="1000" y="130" type="curve" smooth="yes"/>
			<point x="916" y="45"/>
			<point x="815" y="4"/>
		</contour>
	</outline>
</glyph>
<glyph name="P" format="2">
	<unicode hex="0050"/>
	<advance width="1256"/>
	<outline>
		<contour>
			<point x="396" y="642" type="line"/>
			<point x="716" y="642" type="line" smooth="yes"/>
			<point x="974" y="642"/>
			<point x="1162" y="810"/>
			<point x="1162" y="1000" type="curve" smooth="yes"/>
			<point x="1162" y="1190"/>
			<point x="978" y="1366"/>
			<point x="716" y="1366" type="curve" smooth="yes"/>
			<point x="104" y="1366" type="line"/>
			<point x="104" y="1314" type="line"/>
			<point x="104" y="1314" type="line"/>
			<point x="242" y="1314"/>
			<point x="264" y="1314"/>
			<point x="264" y="1224" type="curve" smooth="yes"/>
			<point x="264" y="142" type="line" smooth="yes"/>
			<point x="264" y="52"/>
			<point x="242" y="52"/>
			<point x="104" y="52" type="curve"/>
			<point x="104" y="52" type="line"/>
			<point x="104" y="0" type="line"/>
			<point x="162" y="4"/>
			<point x="268" y="4"/>
			<point x="330" y="4" type="curve" smooth="yes"/>
			<point x="392" y="4"/>
			<point x="498" y="4"/>
			<point x="556" y="0" type="curve"/>
			<point x="556" y="52" type="line"/>
			<point x="556" y="52" type="line"/>
			<point x="418" y="52"/>
			<point x="396" y="52"/>
			<point x="396" y="142" type="curve" smooth="yes"/>
		</contour>
		<contour>
			<point x="392" y="684" type="line"/>
			<point x="392" y="1236" type="line" smooth="yes"/>
			<point x="392" y="1304"/>
			<point x="396" y="1314"/>
			<point x="476" y="1314" type="curve" smooth="yes"/>
			<point x="678" y="1314" type="line" smooth="yes"/>
			<point x="936" y="1314"/>
			<point x="1010" y="1166"/>
			<point x="1010" y="1000" type="curve" smooth="yes"/>
			<point x="1010" y="818"/>
			<point x="922" y="684"/>
			<point x="678" y="684" type="curve" smooth="yes"/>
		</contour>
	</outline>
</glyph>
<glyph name="Q" format="2">
	<unicode hex="0051"/>
	<advance width="1438"/>
	<outline>
		<contour>
			<point x="946" y="18" type="curve"/>
			<point x="1184" y="120"/>
			<point x="1346" y="380"/>
			<point x="1346" y="680" type="curve" smooth="yes"/>
			<point x="1346" y="1090"/>
			<point x="1052" y="1398"/>
			<point x="720" y="1398" type="curve" smooth="yes"/>
			<point x="380" y="1398"/>
			<point x="92" y="1086"/>
			<point x="92" y="680" type="curve" smooth="yes"/>
			<point x="92" y="280"/>
			<point x="380" y="-32"/>
			<point x="720" y="-32" type="curve" smooth="yes"/>
			<point x="766" y="-32"/>
			<point x="830" y="-26"/>
			<point x="906" y="0" type="curve"/>
			<point x="940" y="-244"/>
			<point x="962" y="-390"/>
			<point x="1134" y="-390" type="curve" smooth="yes"/>
			<point x="1346" y="-390"/>
			<point x="1356" y="-78"/>
			<point x="1356" y="-22" type="curve" smooth="yes"/>
			<point x="1356" y="-2"/>
			<point x="1356" y="12"/>
			<point x="1342" y="12" type="curve" smooth="yes"/>
			<point x="1332" y="12"/>
			<point x="1330" y="-2"/>
			<point x="1330" y="-6" type="curve"/>
			<point x="1316" y="-198"/>
			<point x="1208" y="-238"/>
			<point x="1144" y="-238" type="curve" smooth="yes"/>
			<point x="1026" y="-238"/>
			<point x="984" y="-132"/>
		</contour>
		<contour>
			<point x="612" y="20" type="curve"/>
			<point x="404" y="86"/>
			<point x="240" y="308"/>
			<point x="240" y="680" type="curve" smooth="yes"/>
			<point x="240" y="943"/>
			<point x="320" y="1123"/>
			<point x="428" y="1232" type="curve" smooth="yes"/>
			<point x="515" y="1321"/>
			<point x="622" y="1362"/>
			<point x="718" y="1362" type="curve" smooth="yes"/>
			<point x="816" y="1362"/>
			<point x="920" y="1321"/>
			<point x="1006" y="1236" type="curve" smooth="yes"/>
			<point x="1117" y="1126"/>
			<point x="1198" y="943"/>
			<point x="1198" y="680" type="curve" smooth="yes"/>
			<point x="1198" y="342"/>
			<point x="1064" y="154"/>
			<point x="930" y="68" type="curve"/>
			<point x="900" y="170"/>
			<point x="852" y="290"/>
			<point x="722" y="290" type="curve" smooth="yes"/>
			<point x="626" y="290"/>
			<point x="572" y="206"/>
			<point x="572" y="130" type="curve" smooth="yes"/>
			<point x="572" y="84"/>
			<point x="590" y="46"/>
		</contour>
		<contour>
			<point x="898" y="50" type="curve"/>
			<point x="818" y="8"/>
			<point x="754" y="4"/>
			<point x="720" y="4" type="curve" smooth="yes"/>
			<point x="630" y="4"/>
			<point x="604" y="86"/>
			<point x="604" y="130" type="curve" smooth="yes"/>
			<point x="604" y="192"/>
			<point x="646" y="258"/>
			<point x="722" y="258" type="curve" smooth="yes"/>
			<point x="850" y="258"/>
			<point x="882" y="144"/>
		</contour>
	</outline>
</glyph>
<glyph name="R" format="2">
  <advance width="680"/>
  <unicode hex="0052"/>
  <outline>
    <contour>
      <point x="392" y="341" type="curve"/>
      <point x="487" y="360"/>
      <point x="567" y="424"/>
      <point x="567" y="504" type="curve" smooth="yes"/>
      <point x="567" y="598"/>
      <point x="461" y="683"/>
      <point x="321" y="683" type="curve" smooth="yes"/>
      <point x="52" y="683" type="line"/>
      <point x="52" y="657" type="line"/>
      <point x="52" y="657" type="line"/>
      <point x="121" y="657"/>
      <point x="132" y="657"/>
      <point x="132" y="612" type="curve" smooth="yes"/>
      <point x="132" y="71" type="line" smooth="yes"/>
      <point x="132" y="26"/>
      <point x="121" y="26"/>
      <point x="52" y="26" type="curve"/>
      <point x="52" y="26" type="line"/>
      <point x="52" y="0" type="line"/>
      <point x="81" y="2"/>
      <point x="133" y="2"/>
      <point x="164" y="2" type="curve" smooth="yes"/>
      <point x="195" y="2"/>
      <point x="247" y="2"/>
      <point x="276" y="0" type="curve"/>
      <point x="276" y="26" type="line"/>
      <point x="276" y="26" type="line"/>
      <point x="207" y="26"/>
      <point x="196" y="26"/>
      <point x="196" y="71" type="curve" smooth="yes"/>
      <point x="196" y="334" type="line"/>
      <point x="313" y="334" type="line" smooth="yes"/>
      <point x="370" y="334"/>
      <point x="402" y="311"/>
      <point x="416" y="298" type="curve" smooth="yes"/>
      <point x="456" y="259"/>
      <point x="456" y="232"/>
      <point x="456" y="164" type="curve" smooth="yes"/>
      <point x="456" y="97"/>
      <point x="456" y="63"/>
      <point x="486" y="29" type="curve" smooth="yes"/>
      <point x="524" y="-12"/>
      <point x="575" y="-16"/>
      <point x="597" y="-16" type="curve" smooth="yes"/>
      <point x="671" y="-16"/>
      <point x="682" y="67"/>
      <point x="682" y="84" type="curve" smooth="yes"/>
      <point x="682" y="90"/>
      <point x="682" y="97"/>
      <point x="673" y="97" type="curve" smooth="yes"/>
      <point x="665" y="97"/>
      <point x="664" y="91"/>
      <point x="664" y="87" type="curve"/>
      <point x="659" y="22"/>
      <point x="630" y="0"/>
      <point x="599" y="0" type="curve" smooth="yes"/>
      <point x="544" y="0"/>
      <point x="538" y="63"/>
      <point x="532" y="124" type="curve" smooth="yes"/>
      <point x="529" y="145"/>
      <point x="527" y="160"/>
      <point x="525" y="182" type="curve" smooth="yes"/>
      <point x="519" y="232"/>
      <point x="511" y="305"/>
    </contour>
    <contour>
      <point x="196" y="350" type="line"/>
      <point x="196" y="618" type="line" smooth="yes"/>
      <point x="196" y="652"/>
      <point x="198" y="657"/>
      <point x="238" y="657" type="curve" smooth="yes"/>
      <point x="262" y="657"/>
      <point x="287" y="657"/>
      <point x="311" y="657" type="curve" smooth="yes"/>
      <point x="394" y="657"/>
      <point x="491" y="628"/>
      <point x="491" y="504" type="curve" smooth="yes"/>
      <point x="491" y="375"/>
      <point x="385" y="350"/>
      <point x="310" y="350" type="curve" smooth="yes"/>
    </contour>
  </outline>
</glyph>
<glyph name="T" format="2">
	<unicode hex="0054"/>
	<advance width="1334"/>
	<outline>
		<contour>
			<point x="1244" y="1360" type="line"/>
			<point x="90" y="1360" type="line"/>
			<point x="56" y="918" type="line"/>
			<point x="92" y="918" type="line"/>
			<point x="118" y="1250"/>
			<point x="146" y="1308"/>
			<point x="454" y="1308" type="curve" smooth="yes"/>
			<point x="490" y="1308"/>
			<point x="548" y="1308"/>
			<point x="564" y="1306" type="curve" smooth="yes"/>
			<point x="602" y="1300"/>
			<point x="602" y="1276"/>
			<point x="602" y="1230" type="curve" smooth="yes"/>
			<point x="602" y="146" type="line" smooth="yes"/>
			<point x="602" y="74"/>
			<point x="596" y="52"/>
			<point x="430" y="52" type="curve" smooth="yes"/>
			<point x="374" y="52" type="line"/>
			<point x="374" y="0" type="line"/>
			<point x="470" y="2"/>
			<point x="570" y="4"/>
			<point x="668" y="4" type="curve" smooth="yes"/>
			<point x="766" y="4"/>
			<point x="866" y="2"/>
			<point x="962" y="0" type="curve"/>
			<point x="962" y="52" type="line"/>
			<point x="906" y="52" type="line" smooth="yes"/>
			<point x="740" y="52"/>
			<point x="734" y="74"/>
			<point x="734" y="146" type="curve" smooth="yes"/>
			<point x="734" y="1230" type="line" smooth="yes"/>
			<point x="734" y="1274"/>
			<point x="734" y="1298"/>
			<point x="770" y="1306" type="curve"/>
			<point x="786" y="1308"/>
			<point x="844" y="1308"/>
			<point x="880" y="1308" type="curve" smooth="yes"/>
			<point x="1186" y="1308"/>
			<point x="1216" y="1250"/>
			<point x="1242" y="918" type="curve"/>
			<point x="1278" y="918" type="line"/>
		</contour>
	</outline>
</glyph>
<glyph name="U" format="2">
	<unicode hex="0055"/>
	<advance width="1386"/>
	<outline>
		<contour>
			<point x="716" y="20" type="curve" smooth="yes"/>
			<point x="534" y="20"/>
			<point x="394" y="180"/>
			<point x="394" y="426" type="curve" smooth="yes"/>
			<point x="394" y="1224" type="line" smooth="yes"/>
			<point x="394" y="1314"/>
			<point x="416" y="1314"/>
			<point x="554" y="1314" type="curve"/>
			<point x="554" y="1314" type="line"/>
			<point x="554" y="1366" type="line"/>
			<point x="496" y="1362"/>
			<point x="390" y="1362"/>
			<point x="328" y="1362" type="curve" smooth="yes"/>
			<point x="266" y="1362"/>
			<point x="160" y="1362"/>
			<point x="102" y="1366" type="curve"/>
			<point x="102" y="1314" type="line"/>
			<point x="102" y="1314" type="line"/>
			<point x="240" y="1314"/>
			<point x="262" y="1314"/>
			<point x="262" y="1224" type="curve" smooth="yes"/>
			<point x="262" y="458" type="line" smooth="yes"/>
			<point x="262" y="170"/>
			<point x="480" y="-32"/>
			<point x="712" y="-32" type="curve" smooth="yes"/>
			<point x="972" y="-32"/>
			<point x="1122" y="234"/>
			<point x="1122" y="430" type="curve" smooth="yes"/>
			<point x="1122" y="1190" type="line" smooth="yes"/>
			<point x="1122" y="1302"/>
			<point x="1224" y="1314"/>
			<point x="1282" y="1314" type="curve"/>
			<point x="1282" y="1314" type="line"/>
			<point x="1282" y="1366" type="line"/>
			<point x="1236" y="1362"/>
			<point x="1152" y="1362"/>
			<point x="1102" y="1362" type="curve" smooth="yes"/>
			<point x="1052" y="1362"/>
			<point x="966" y="1362"/>
			<point x="920" y="1366" type="curve"/>
			<point x="920" y="1314" type="line"/>
			<point x="920" y="1314" type="line"/>
			<point x="1080" y="1314"/>
			<point x="1080" y="1220"/>
			<point x="1080" y="1170" type="curve" smooth="yes"/>
			<point x="1080" y="458" type="line" smooth="yes"/>
			<point x="1080" y="190"/>
			<point x="906" y="20"/>
		</contour>
	</outline>
</glyph>
<glyph name="V" format="2">
	<unicode hex="0056"/>
	<advance width="1386"/>
	<outline>
		<contour>
			<point x="692" y="-32" type="curve" smooth="yes"/>
			<point x="714" y="-32"/>
			<point x="716" y="-28"/>
			<point x="726" y="0" type="curve" smooth="yes"/>
			<point x="1180" y="1182" type="line" smooth="yes"/>
			<point x="1198" y="1226"/>
			<point x="1230" y="1312"/>
			<point x="1364" y="1314" type="curve"/>
			<point x="1364" y="1314" type="line"/>
			<point x="1364" y="1366" type="line"/>
			<point x="1318" y="1362"/>
			<point x="1266" y="1362"/>
			<point x="1216" y="1362" type="curve" smooth="yes"/>
			<point x="1168" y="1362"/>
			<point x="1086" y="1362"/>
			<point x="1040" y="1366" type="curve"/>
			<point x="1040" y="1314" type="line"/>
			<point x="1140" y="1308"/>
			<point x="1144" y="1238"/>
			<point x="1144" y="1226" type="curve" smooth="yes"/>
			<point x="1144" y="1204"/>
			<point x="1138" y="1190"/>
			<point x="1132" y="1174" type="curve" smooth="yes"/>
			<point x="738" y="148" type="line"/>
			<point x="326" y="1226" type="line" smooth="yes"/>
			<point x="320" y="1240"/>
			<point x="316" y="1250"/>
			<point x="316" y="1260" type="curve" smooth="yes"/>
			<point x="316" y="1314"/>
			<point x="396" y="1314"/>
			<point x="438" y="1314" type="curve"/>
			<point x="438" y="1366" type="line"/>
			<point x="374" y="1362"/>
			<point x="280" y="1362"/>
			<point x="214" y="1362" type="curve" smooth="yes"/>
			<point x="162" y="1362"/>
			<point x="68" y="1362"/>
			<point x="20" y="1366" type="curve"/>
			<point x="20" y="1314" type="line"/>
			<point x="20" y="1314" type="line"/>
			<point x="136" y="1314"/>
			<point x="158" y="1306"/>
			<point x="182" y="1242" type="curve" smooth="yes"/>
			<point x="658" y="0" type="line" smooth="yes"/>
			<point x="668" y="-28"/>
			<point x="670" y="-32"/>
		</contour>
	</outline>
</glyph>
<glyph name="W" format="2">
	<unicode hex="0057"/>
	<advance width="1908"/>
	<outline>
		<contour>
			<point x="634" y="184" type="line"/>
			<point x="308" y="1222" type="line" smooth="yes"/>
			<point x="298" y="1250"/>
			<point x="298" y="1254"/>
			<point x="298" y="1258" type="curve" smooth="yes"/>
			<point x="298" y="1314"/>
			<point x="386" y="1314"/>
			<point x="426" y="1314" type="curve"/>
			<point x="426" y="1366" type="line"/>
			<point x="368" y="1362"/>
			<point x="268" y="1362"/>
			<point x="206" y="1362" type="curve" smooth="yes"/>
			<point x="154" y="1362"/>
			<point x="66" y="1362"/>
			<point x="18" y="1366" type="curve"/>
			<point x="18" y="1314" type="line"/>
			<point x="18" y="1314" type="line"/>
			<point x="138" y="1314"/>
			<point x="146" y="1302"/>
			<point x="166" y="1238" type="curve" smooth="yes"/>
			<point x="556" y="2" type="line" smooth="yes"/>
			<point x="566" y="-28"/>
			<point x="566" y="-32"/>
			<point x="584" y="-32" type="curve" smooth="yes"/>
			<point x="600" y="-32"/>
			<point x="606" y="-28"/>
			<point x="614" y="0" type="curve" smooth="yes"/>
			<point x="954" y="1084" type="line"/>
			<point x="1294" y="0" type="line" smooth="yes"/>
			<point x="1302" y="-28"/>
			<point x="1308" y="-32"/>
			<point x="1324" y="-32" type="curve" smooth="yes"/>
			<point x="1342" y="-32"/>
			<point x="1342" y="-28"/>
			<point x="1352" y="2" type="curve" smooth="yes"/>
			<point x="1726" y="1186" type="line" smooth="yes"/>
			<point x="1744" y="1240"/>
			<point x="1774" y="1310"/>
			<point x="1890" y="1314" type="curve"/>
			<point x="1890" y="1314" type="line"/>
			<point x="1890" y="1366" type="line"/>
			<point x="1856" y="1364"/>
			<point x="1786" y="1362"/>
			<point x="1750" y="1362" type="curve" smooth="yes"/>
			<point x="1700" y="1362"/>
			<point x="1612" y="1362"/>
			<point x="1564" y="1366" type="curve"/>
			<point x="1564" y="1314" type="line"/>
			<point x="1654" y="1312"/>
			<point x="1692" y="1262"/>
			<point x="1692" y="1214" type="curve" smooth="yes"/>
			<point x="1692" y="1200"/>
			<point x="1690" y="1192"/>
			<point x="1682" y="1170" type="curve" smooth="yes"/>
			<point x="1372" y="182" type="line"/>
			<point x="1046" y="1222" type="line" smooth="yes"/>
			<point x="1040" y="1242"/>
			<point x="1038" y="1250"/>
			<point x="1038" y="1258" type="curve" smooth="yes"/>
			<point x="1038" y="1314"/>
			<point x="1126" y="1314"/>
			<point x="1164" y="1314" type="curve"/>
			<point x="1164" y="1366" type="line"/>
			<point x="1106" y="1362"/>
			<point x="1006" y="1362"/>
			<point x="944" y="1362" type="curve" smooth="yes"/>
			<point x="894" y="1362"/>
			<point x="804" y="1362"/>
			<point x="758" y="1366" type="curve"/>
			<point x="758" y="1314" type="line"/>
			<point x="758" y="1314" type="line"/>
			<point x="850" y="1314"/>
			<point x="874" y="1308"/>
			<point x="894" y="1272" type="curve"/>
			<point x="902" y="1254"/>
			<point x="934" y="1150"/>
			<point x="934" y="1138" type="curve"/>
		</contour>
	</outline>
</glyph>
<glyph name="X" format="2">
	<unicode hex="0058"/>
	<advance width="1386"/>
	<outline>
		<contour>
			<point x="730" y="758" type="line"/>
			<point x="1026" y="1184" type="line" smooth="yes"/>
			<point x="1056" y="1226"/>
			<point x="1116" y="1312"/>
			<point x="1280" y="1314" type="curve"/>
			<point x="1280" y="1314" type="line"/>
			<point x="1280" y="1366" type="line"/>
			<point x="1234" y="1362"/>
			<point x="1158" y="1362"/>
			<point x="1110" y="1362" type="curve" smooth="yes"/>
			<point x="1044" y="1362"/>
			<point x="962" y="1362"/>
			<point x="912" y="1366" type="curve"/>
			<point x="912" y="1314" type="line"/>
			<point x="976" y="1308"/>
			<point x="992" y="1268"/>
			<point x="992" y="1236" type="curve" smooth="yes"/>
			<point x="992" y="1212"/>
			<point x="982" y="1196"/>
			<point x="968" y="1176" type="curve" smooth="yes"/>
			<point x="704" y="794" type="line"/>
			<point x="408" y="1226" type="line" smooth="yes"/>
			<point x="394" y="1248"/>
			<point x="392" y="1254"/>
			<point x="392" y="1260" type="curve" smooth="yes"/>
			<point x="392" y="1278"/>
			<point x="414" y="1312"/>
			<point x="480" y="1314" type="curve"/>
			<point x="480" y="1366" type="line"/>
			<point x="416" y="1362"/>
			<point x="318" y="1362"/>
			<point x="252" y="1362" type="curve" smooth="yes"/>
			<point x="200" y="1362"/>
			<point x="100" y="1362"/>
			<point x="52" y="1366" type="curve"/>
			<point x="52" y="1314" type="line"/>
			<point x="52" y="1314" type="line"/>
			<point x="162" y="1314"/>
			<point x="198" y="1310"/>
			<point x="242" y="1248" type="curve" smooth="yes"/>
			<point x="628" y="684" type="line"/>
			<point x="280" y="178" type="line" smooth="yes"/>
			<point x="194" y="54"/>
			<point x="64" y="52"/>
			<point x="26" y="52" type="curve"/>
			<point x="26" y="52" type="line"/>
			<point x="26" y="0" type="line"/>
			<point x="72" y="4"/>
			<point x="148" y="4"/>
			<point x="196" y="4" type="curve" smooth="yes"/>
			<point x="250" y="4"/>
			<point x="344" y="4"/>
			<point x="394" y="0" type="curve"/>
			<point x="394" y="52" type="line"/>
			<point x="332" y="58"/>
			<point x="314" y="98"/>
			<point x="314" y="130" type="curve" smooth="yes"/>
			<point x="314" y="156"/>
			<point x="324" y="170"/>
			<point x="334" y="184" type="curve" smooth="yes"/>
			<point x="654" y="648" type="line"/>
			<point x="1002" y="140" type="line" smooth="yes"/>
			<point x="1018" y="118"/>
			<point x="1018" y="112"/>
			<point x="1018" y="106" type="curve" smooth="yes"/>
			<point x="1018" y="90"/>
			<point x="1000" y="56"/>
			<point x="930" y="52" type="curve"/>
			<point x="930" y="0" type="line"/>
			<point x="994" y="4"/>
			<point x="1092" y="4"/>
			<point x="1158" y="4" type="curve" smooth="yes"/>
			<point x="1210" y="4"/>
			<point x="1310" y="4"/>
			<point x="1358" y="0" type="curve"/>
			<point x="1358" y="52" type="line"/>
			<point x="1358" y="52" type="line"/>
			<point x="1230" y="52"/>
			<point x="1210" y="62"/>
			<point x="1170" y="118" type="curve" smooth="yes"/>
		</contour>
	</outline>
</glyph>
<glyph name="Y" format="2">
	<unicode hex="0059"/>
	<advance width="1386"/>
	<outline>
		<contour>
			<point x="628" y="546" type="line"/>
			<point x="628" y="142" type="line" smooth="yes"/>
			<point x="628" y="52"/>
			<point x="606" y="52"/>
			<point x="468" y="52" type="curve"/>
			<point x="468" y="52" type="line"/>
			<point x="468" y="0" type="line"/>
			<point x="526" y="4"/>
			<point x="630" y="4"/>
			<point x="692" y="4" type="curve" smooth="yes"/>
			<point x="754" y="4"/>
			<point x="860" y="4"/>
			<point x="918" y="0" type="curve"/>
			<point x="918" y="52" type="line"/>
			<point x="918" y="52" type="line"/>
			<point x="774" y="52"/>
			<point x="756" y="52"/>
			<point x="756" y="150" type="curve" smooth="yes"/>
			<point x="756" y="546" type="line"/>
			<point x="1158" y="1188" type="line" smooth="yes"/>
			<point x="1236" y="1312"/>
			<point x="1344" y="1314"/>
			<point x="1380" y="1314" type="curve"/>
			<point x="1380" y="1314" type="line"/>
			<point x="1380" y="1366" type="line"/>
			<point x="1334" y="1362"/>
			<point x="1282" y="1362"/>
			<point x="1232" y="1362" type="curve" smooth="yes"/>
			<point x="1182" y="1362"/>
			<point x="1102" y="1362"/>
			<point x="1054" y="1366" type="curve"/>
			<point x="1054" y="1314" type="line"/>
			<point x="1104" y="1312"/>
			<point x="1130" y="1286"/>
			<point x="1130" y="1248" type="curve" smooth="yes"/>
			<point x="1130" y="1224"/>
			<point x="1120" y="1208"/>
			<point x="1104" y="1182" type="curve" smooth="yes"/>
			<point x="744" y="604" type="line"/>
			<point x="350" y="1234" type="line" smooth="yes"/>
			<point x="336" y="1258"/>
			<point x="334" y="1260"/>
			<point x="334" y="1274" type="curve" smooth="yes"/>
			<point x="334" y="1314"/>
			<point x="404" y="1314"/>
			<point x="432" y="1314" type="curve"/>
			<point x="432" y="1366" type="line"/>
			<point x="368" y="1362"/>
			<point x="270" y="1362"/>
			<point x="204" y="1362" type="curve" smooth="yes"/>
			<point x="152" y="1362"/>
			<point x="52" y="1362"/>
			<point x="4" y="1366" type="curve"/>
			<point x="4" y="1314" type="line"/>
			<point x="4" y="1314" type="line"/>
			<point x="118" y="1314"/>
			<point x="150" y="1308"/>
			<point x="186" y="1250" type="curve" smooth="yes"/>
		</contour>
	</outline>
</glyph>
<glyph name="bracketleft" format="2">
	<unicode hex="005B"/>
	<advance width="249"/>
	<outline>
		<contour>
			<point x="235" y="714" type="line"/>
			<point x="235" y="749" type="line"/>
			<point x="106" y="749" type="line"/>
			<point x="106" y="-249" type="line"/>
			<point x="235" y="-249" type="line"/>
			<point x="235" y="-214" type="line"/>
			<point x="141" y="-214" type="line"/>
			<point x="141" y="714" type="line"/>
		</contour>
	</outline>
</glyph>
<glyph name="bracketright" format="2">
  <advance width="249"/>
  <unicode hex="005D"/>
  <outline>
    <contour>
      <point x="143" y="749" type="line"/>
      <point x="14" y="749" type="line"/>
      <point x="14" y="714" type="line"/>
      <point x="108" y="714" type="line"/>
      <point x="108" y="-214" type="line"/>
      <point x="14" y="-214" type="line"/>
      <point x="14" y="-249" type="line"/>
      <point x="143" y="-249" type="line"/>
    </contour>
  </outline>
</glyph>
<glyph name="grave" format="2">
	<unicode hex="0060"/>
	<advance width="916"/>
	<outline>
		<contour>
			<point x="516" y="1024" type="line"/>
			<point x="540" y="1048" type="line"/>
			<point x="314" y="1338" type="line" smooth="yes"/>
			<point x="272" y="1390"/>
			<point x="270" y="1392"/>
			<point x="246" y="1392" type="curve" smooth="yes"/>
			<point x="218" y="1392"/>
			<point x="192" y="1366"/>
			<point x="192" y="1338" type="curve" smooth="yes"/>
			<point x="192" y="1318"/>
			<point x="204" y="1306"/>
			<point x="206" y="1302" type="curve"/>
		</contour>
	</outline>
</glyph>
<glyph name="a" format="2">
	<unicode hex="0061"/>
	<advance width="916"/>
	<outline>
		<contour>
			<point x="80" y="182" type="curve" smooth="yes"/>
			<point x="80" y="28"/>
			<point x="260" y="-16"/>
			<point x="366" y="-16" type="curve" smooth="yes"/>
			<point x="476" y="-16"/>
			<point x="578" y="46"/>
			<point x="622" y="160" type="curve"/>
			<point x="626" y="72"/>
			<point x="682" y="-8"/>
			<point x="770" y="-8" type="curve" smooth="yes"/>
			<point x="812" y="-8"/>
			<point x="918" y="20"/>
			<point x="918" y="178" type="curve" smooth="yes"/>
			<point x="918" y="290" type="line"/>
			<point x="882" y="290" type="line"/>
			<point x="882" y="176" type="line" smooth="yes"/>
			<point x="882" y="54"/>
			<point x="828" y="38"/>
			<point x="802" y="38" type="curve" smooth="yes"/>
			<point x="720" y="38"/>
			<point x="720" y="142"/>
			<point x="720" y="230" type="curve" smooth="yes"/>
			<point x="720" y="518" type="line" smooth="yes"/>
			<point x="720" y="650"/>
			<point x="720" y="720"/>
			<point x="636" y="798" type="curve" smooth="yes"/>
			<point x="562" y="864"/>
			<point x="476" y="884"/>
			<point x="408" y="884" type="curve" smooth="yes"/>
			<point x="250" y="884"/>
			<point x="136" y="760"/>
			<point x="136" y="628" type="curve" smooth="yes"/>
			<point x="136" y="554"/>
			<point x="196" y="550"/>
			<point x="208" y="550" type="curve" smooth="yes"/>
			<point x="234" y="550"/>
			<point x="280" y="566"/>
			<point x="280" y="622" type="curve" smooth="yes"/>
			<point x="280" y="684"/>
			<point x="222" y="704"/>
			<point x="184" y="690" type="curve"/>
			<point x="226" y="816"/>
			<point x="334" y="852"/>
			<point x="404" y="852" type="curve" smooth="yes"/>
			<point x="504" y="852"/>
			<point x="614" y="764"/>
			<point x="614" y="596" type="curve" smooth="yes"/>
			<point x="614" y="508" type="line"/>
			<point x="496" y="504"/>
			<point x="354" y="488"/>
			<point x="242" y="428" type="curve" smooth="yes"/>
			<point x="116" y="358"/>
			<point x="80" y="258"/>
		</contour>
		<contour>
			<point x="202" y="182" type="curve" smooth="yes"/>
			<point x="202" y="328"/>
			<point x="320" y="466"/>
			<point x="614" y="478" type="curve"/>
			<point x="614" y="278" type="line" smooth="yes"/>
			<point x="614" y="189"/>
			<point x="581" y="122"/>
			<point x="535" y="78" type="curve" smooth="yes"/>
			<point x="491" y="37"/>
			<point x="434" y="16"/>
			<point x="380" y="16" type="curve" smooth="yes"/>
			<point x="280" y="16"/>
			<point x="202" y="90"/>
		</contour>
	</outline>
</glyph>
<glyph name="b" format="2">
	<unicode hex="0062"/>
	<advance width="1020"/>
	<outline>
		<contour>
			<point x="198" y="0" type="line"/>
			<point x="234" y="0" type="line"/>
			<point x="253" y="47"/>
			<point x="273" y="95"/>
			<point x="292" y="142" type="curve"/>
			<point x="350" y="48"/>
			<point x="436" y="-16"/>
			<point x="552" y="-16" type="curve" smooth="yes"/>
			<point x="752" y="-16"/>
			<point x="954" y="160"/>
			<point x="954" y="432" type="curve" smooth="yes"/>
			<point x="954" y="688"/>
			<point x="774" y="876"/>
			<point x="572" y="876" type="curve" smooth="yes"/>
			<point x="448" y="876"/>
			<point x="360" y="810"/>
			<point x="300" y="732" type="curve"/>
			<point x="300" y="1388" type="line"/>
			<point x="62" y="1366" type="line"/>
			<point x="62" y="1314" type="line"/>
			<point x="180" y="1314"/>
			<point x="198" y="1302"/>
			<point x="198" y="1206" type="curve" smooth="yes"/>
		</contour>
		<contour>
			<point x="542" y="16" type="curve" smooth="yes"/>
			<point x="480" y="16"/>
			<point x="390" y="40"/>
			<point x="326" y="156" type="curve" smooth="yes"/>
			<point x="304" y="194"/>
			<point x="304" y="198"/>
			<point x="304" y="234" type="curve" smooth="yes"/>
			<point x="304" y="630" type="line" smooth="yes"/>
			<point x="304" y="666"/>
			<point x="304" y="672"/>
			<point x="332" y="714" type="curve" smooth="yes"/>
			<point x="410" y="834"/>
			<point x="522" y="844"/>
			<point x="560" y="844" type="curve" smooth="yes"/>
			<point x="591" y="844"/>
			<point x="662" y="835"/>
			<point x="722" y="774" type="curve" smooth="yes"/>
			<point x="778" y="718"/>
			<point x="826" y="616"/>
			<point x="826" y="434" type="curve" smooth="yes"/>
			<point x="826" y="252"/>
			<point x="777" y="150"/>
			<point x="718" y="92" type="curve" smooth="yes"/>
			<point x="649" y="22"/>
			<point x="568" y="16"/>
		</contour>
	</outline>
</glyph>
<glyph name="c" format="2">
	<unicode hex="0063"/>
	<advance width="812"/>
	<outline>
		<contour>
			<point x="194" y="434" type="curve" smooth="yes"/>
			<point x="194" y="738"/>
			<point x="342" y="848"/>
			<point x="460" y="848" type="curve" smooth="yes"/>
			<point x="538" y="848"/>
			<point x="654" y="810"/>
			<point x="698" y="700" type="curve"/>
			<point x="660" y="700"/>
			<point x="604" y="700"/>
			<point x="604" y="630" type="curve" smooth="yes"/>
			<point x="604" y="574"/>
			<point x="650" y="558"/>
			<point x="676" y="558" type="curve" smooth="yes"/>
			<point x="690" y="558"/>
			<point x="748" y="564"/>
			<point x="748" y="634" type="curve" smooth="yes"/>
			<point x="748" y="776"/>
			<point x="612" y="884"/>
			<point x="458" y="884" type="curve" smooth="yes"/>
			<point x="246" y="884"/>
			<point x="66" y="688"/>
			<point x="66" y="432" type="curve" smooth="yes"/>
			<point x="66" y="166"/>
			<point x="254" y="-16"/>
			<point x="458" y="-16" type="curve" smooth="yes"/>
			<point x="706" y="-16"/>
			<point x="768" y="214"/>
			<point x="768" y="236" type="curve" smooth="yes"/>
			<point x="768" y="244"/>
			<point x="766" y="250"/>
			<point x="752" y="250" type="curve" smooth="yes"/>
			<point x="738" y="250"/>
			<point x="736" y="248"/>
			<point x="728" y="222" type="curve" smooth="yes"/>
			<point x="676" y="60"/>
			<point x="562" y="20"/>
			<point x="476" y="20" type="curve" smooth="yes"/>
			<point x="348" y="20"/>
			<point x="194" y="138"/>
		</contour>
	</outline>
</glyph>
<glyph name="d" format="2">
	<unicode hex="0064"/>
	<advance width="1020"/>
	<outline>
		<contour>
			<point x="716" y="130" type="curve"/>
			<point x="716" y="-16" type="line"/>
			<point x="958" y="0" type="line"/>
			<point x="958" y="52" type="line"/>
			<point x="840" y="52"/>
			<point x="822" y="64"/>
			<point x="822" y="160" type="curve" smooth="yes"/>
			<point x="822" y="1388" type="line"/>
			<point x="584" y="1366" type="line"/>
			<point x="584" y="1314" type="line"/>
			<point x="702" y="1314"/>
			<point x="720" y="1302"/>
			<point x="720" y="1206" type="curve" smooth="yes"/>
			<point x="720" y="738" type="line"/>
			<point x="712" y="748"/>
			<point x="630" y="876"/>
			<point x="468" y="876" type="curve" smooth="yes"/>
			<point x="264" y="876"/>
			<point x="66" y="694"/>
			<point x="66" y="430" type="curve" smooth="yes"/>
			<point x="66" y="168"/>
			<point x="252" y="-16"/>
			<point x="448" y="-16" type="curve" smooth="yes"/>
			<point x="618" y="-16"/>
			<point x="706" y="116"/>
		</contour>
		<contour>
			<point x="194" y="428" type="curve" smooth="yes"/>
			<point x="194" y="607"/>
			<point x="243" y="710"/>
			<point x="300" y="768" type="curve" smooth="yes"/>
			<point x="369" y="837"/>
			<point x="450" y="844"/>
			<point x="478" y="844" type="curve" smooth="yes"/>
			<point x="570" y="844"/>
			<point x="644" y="792"/>
			<point x="690" y="720" type="curve" smooth="yes"/>
			<point x="716" y="678"/>
			<point x="716" y="672"/>
			<point x="716" y="636" type="curve" smooth="yes"/>
			<point x="716" y="240" type="line" smooth="yes"/>
			<point x="716" y="180"/>
			<point x="680" y="126"/>
			<point x="634" y="86" type="curve" smooth="yes"/>
			<point x="566" y="26"/>
			<point x="498" y="16"/>
			<point x="460" y="16" type="curve" smooth="yes"/>
			<point x="430" y="16"/>
			<point x="359" y="24"/>
			<point x="299" y="85" type="curve" smooth="yes"/>
			<point x="242" y="142"/>
			<point x="194" y="244"/>
		</contour>
	</outline>
</glyph>
<glyph name="e" format="2">
	<unicode hex="0065"/>
	<advance width="812"/>
	<outline>
		<contour>
			<point x="182" y="470" type="curve"/>
			<point x="762" y="470" type="line"/>
			<point x="770" y="478"/>
			<point x="770" y="482"/>
			<point x="770" y="502" type="curve" smooth="yes"/>
			<point x="770" y="706"/>
			<point x="662" y="884"/>
			<point x="434" y="884" type="curve" smooth="yes"/>
			<point x="222" y="884"/>
			<point x="54" y="682"/>
			<point x="54" y="436" type="curve" smooth="yes"/>
			<point x="54" y="176"/>
			<point x="244" y="-16"/>
			<point x="456" y="-16" type="curve" smooth="yes"/>
			<point x="680" y="-16"/>
			<point x="768" y="196"/>
			<point x="768" y="238" type="curve" smooth="yes"/>
			<point x="768" y="252"/>
			<point x="756" y="252"/>
			<point x="752" y="252" type="curve" smooth="yes"/>
			<point x="738" y="252"/>
			<point x="736" y="248"/>
			<point x="728" y="224" type="curve" smooth="yes"/>
			<point x="684" y="88"/>
			<point x="574" y="20"/>
			<point x="470" y="20" type="curve" smooth="yes"/>
			<point x="384" y="20"/>
			<point x="298" y="68"/>
			<point x="244" y="156" type="curve" smooth="yes"/>
			<point x="182" y="258"/>
			<point x="182" y="376"/>
		</contour>
		<contour>
			<point x="184" y="500" type="line"/>
			<point x="198" y="788"/>
			<point x="352" y="852"/>
			<point x="432" y="852" type="curve" smooth="yes"/>
			<point x="568" y="852"/>
			<point x="660" y="724"/>
			<point x="662" y="500" type="curve"/>
		</contour>
	</outline>
</glyph>
<glyph name="f" format="2">
	<unicode hex="0066"/>
	<advance width="550"/>
	<outline>
		<contour>
			<point x="204" y="138" type="line" smooth="yes"/>
			<point x="204" y="62"/>
			<point x="196" y="52"/>
			<point x="68" y="52" type="curve"/>
			<point x="68" y="52" type="line"/>
			<point x="68" y="0" type="line"/>
			<point x="116" y="4"/>
			<point x="208" y="4"/>
			<point x="260" y="4" type="curve" smooth="yes"/>
			<point x="318" y="4"/>
			<point x="420" y="4"/>
			<point x="474" y="0" type="curve"/>
			<point x="474" y="52" type="line"/>
			<point x="474" y="52" type="line"/>
			<point x="330" y="52"/>
			<point x="306" y="52"/>
			<point x="306" y="142" type="curve" smooth="yes"/>
			<point x="306" y="808" type="line"/>
			<point x="534" y="808" type="line"/>
			<point x="534" y="860" type="line"/>
			<point x="302" y="860" type="line"/>
			<point x="302" y="1102" type="line" smooth="yes"/>
			<point x="302" y="1268"/>
			<point x="386" y="1372"/>
			<point x="472" y="1372" type="curve" smooth="yes"/>
			<point x="498" y="1372"/>
			<point x="528" y="1364"/>
			<point x="548" y="1350" type="curve"/>
			<point x="532" y="1346"/>
			<point x="490" y="1332"/>
			<point x="490" y="1282" type="curve" smooth="yes"/>
			<point x="490" y="1230"/>
			<point x="530" y="1214"/>
			<point x="558" y="1214" type="curve" smooth="yes"/>
			<point x="586" y="1214"/>
			<point x="626" y="1230"/>
			<point x="626" y="1282" type="curve" smooth="yes"/>
			<point x="626" y="1358"/>
			<point x="554" y="1404"/>
			<point x="474" y="1404" type="curve" smooth="yes"/>
			<point x="360" y="1404"/>
			<point x="204" y="1310"/>
			<point x="204" y="1098" type="curve" smooth="yes"/>
			<point x="204" y="860" type="line"/>
			<point x="44" y="860" type="line"/>
			<point x="44" y="808" type="line"/>
			<point x="204" y="808" type="line"/>
		</contour>
	</outline>
</glyph>
<glyph name="g" format="2">
	<unicode hex="0067"/>
	<advance width="916"/>
	<outline>
		<contour>
			<point x="458" y="-408" type="curve" smooth="yes"/>
			<point x="678" y="-408"/>
			<point x="876" y="-306"/>
			<point x="876" y="-156" type="curve" smooth="yes"/>
			<point x="876" y="-44"/>
			<point x="825" y="22"/>
			<point x="755" y="61" type="curve" smooth="yes"/>
			<point x="656" y="116"/>
			<point x="516" y="116"/>
			<point x="426" y="116" type="curve" smooth="yes"/>
			<point x="380" y="116"/>
			<point x="298" y="116"/>
			<point x="288" y="118" type="curve" smooth="yes"/>
			<point x="226" y="128"/>
			<point x="184" y="184"/>
			<point x="184" y="254" type="curve" smooth="yes"/>
			<point x="184" y="272"/>
			<point x="184" y="316"/>
			<point x="222" y="360" type="curve"/>
			<point x="260" y="330"/>
			<point x="326" y="296"/>
			<point x="406" y="296" type="curve" smooth="yes"/>
			<point x="564" y="296"/>
			<point x="700" y="420"/>
			<point x="700" y="586" type="curve" smooth="yes"/>
			<point x="700" y="638"/>
			<point x="684" y="718"/>
			<point x="624" y="780" type="curve"/>
			<point x="686" y="850"/>
			<point x="808" y="872"/>
			<point x="838" y="854" type="curve"/>
			<point x="830" y="852"/>
			<point x="812" y="844"/>
			<point x="812" y="812" type="curve" smooth="yes"/>
			<point x="812" y="786"/>
			<point x="830" y="768"/>
			<point x="856" y="768" type="curve" smooth="yes"/>
			<point x="886" y="768"/>
			<point x="902" y="788"/>
			<point x="902" y="814" type="curve" smooth="yes"/>
			<point x="902" y="852"/>
			<point x="872" y="892"/>
			<point x="808" y="892" type="curve" smooth="yes"/>
			<point x="728" y="892"/>
			<point x="658" y="854"/>
			<point x="602" y="802" type="curve"/>
			<point x="542" y="856"/>
			<point x="470" y="876"/>
			<point x="406" y="876" type="curve" smooth="yes"/>
			<point x="248" y="876"/>
			<point x="112" y="752"/>
			<point x="112" y="586" type="curve" smooth="yes"/>
			<point x="112" y="472"/>
			<point x="178" y="400"/>
			<point x="198" y="380" type="curve"/>
			<point x="138" y="310"/>
			<point x="138" y="228"/>
			<point x="138" y="218" type="curve" smooth="yes"/>
			<point x="138" y="166"/>
			<point x="158" y="90"/>
			<point x="226" y="48" type="curve"/>
			<point x="122" y="22"/>
			<point x="40" y="-58"/>
			<point x="40" y="-158" type="curve" smooth="yes"/>
			<point x="40" y="-302"/>
			<point x="230" y="-408"/>
		</contour>
		<contour>
			<point x="406" y="330" type="curve" smooth="yes"/>
			<point x="230" y="330"/>
			<point x="230" y="546"/>
			<point x="230" y="586" type="curve" smooth="yes"/>
			<point x="230" y="615"/>
			<point x="230" y="733"/>
			<point x="295" y="799" type="curve" smooth="yes"/>
			<point x="320" y="825"/>
			<point x="356" y="842"/>
			<point x="406" y="842" type="curve" smooth="yes"/>
			<point x="582" y="842"/>
			<point x="582" y="626"/>
			<point x="582" y="586" type="curve" smooth="yes"/>
			<point x="582" y="557"/>
			<point x="582" y="439"/>
			<point x="517" y="373" type="curve" smooth="yes"/>
			<point x="492" y="347"/>
			<point x="456" y="330"/>
		</contour>
		<contour>
			<point x="458" y="-374" type="curve" smooth="yes"/>
			<point x="258" y="-374"/>
			<point x="120" y="-268"/>
			<point x="120" y="-158" type="curve" smooth="yes"/>
			<point x="120" y="-96"/>
			<point x="154" y="-38"/>
			<point x="198" y="-6" type="curve" smooth="yes"/>
			<point x="248" y="28"/>
			<point x="268" y="28"/>
			<point x="404" y="28" type="curve" smooth="yes"/>
			<point x="404" y="28" type="line" smooth="yes"/>
			<point x="568" y="28"/>
			<point x="796" y="28"/>
			<point x="796" y="-158" type="curve" smooth="yes"/>
			<point x="796" y="-268"/>
			<point x="658" y="-374"/>
		</contour>
	</outline>
</glyph>
<glyph name="h" format="2">
	<unicode hex="0068"/>
	<advance width="1020"/>
	<outline>
		<contour>
			<point x="202" y="138" type="line" smooth="yes"/>
			<point x="202" y="62"/>
			<point x="194" y="52"/>
			<point x="66" y="52" type="curve"/>
			<point x="66" y="52" type="line"/>
			<point x="66" y="0" type="line"/>
			<point x="114" y="4"/>
			<point x="202" y="4"/>
			<point x="254" y="4" type="curve" smooth="yes"/>
			<point x="306" y="4"/>
			<point x="396" y="4"/>
			<point x="444" y="0" type="curve"/>
			<point x="444" y="52" type="line"/>
			<point x="444" y="52" type="line"/>
			<point x="316" y="52"/>
			<point x="308" y="60"/>
			<point x="308" y="138" type="curve" smooth="yes"/>
			<point x="308" y="522" type="line" smooth="yes"/>
			<point x="308" y="706"/>
			<point x="420" y="844"/>
			<point x="560" y="844" type="curve" smooth="yes"/>
			<point x="708" y="844"/>
			<point x="724" y="712"/>
			<point x="724" y="616" type="curve" smooth="yes"/>
			<point x="724" y="138" type="line" smooth="yes"/>
			<point x="724" y="62"/>
			<point x="716" y="52"/>
			<point x="588" y="52" type="curve"/>
			<point x="588" y="52" type="line"/>
			<point x="588" y="0" type="line"/>
			<point x="636" y="4"/>
			<point x="724" y="4"/>
			<point x="776" y="4" type="curve" smooth="yes"/>
			<point x="828" y="4"/>
			<point x="918" y="4"/>
			<point x="966" y="0" type="curve"/>
			<point x="966" y="52" type="line"/>
			<point x="966" y="52" type="line"/>
			<point x="838" y="52"/>
			<point x="830" y="60"/>
			<point x="830" y="138" type="curve" smooth="yes"/>
			<point x="830" y="608" type="line" smooth="yes"/>
			<point x="830" y="669"/>
			<point x="823" y="754"/>
			<point x="766" y="811" type="curve" smooth="yes"/>
			<point x="728" y="850"/>
			<point x="668" y="876"/>
			<point x="574" y="876" type="curve" smooth="yes"/>
			<point x="410" y="876"/>
			<point x="330" y="744"/>
			<point x="306" y="678" type="curve"/>
			<point x="304" y="678" type="line"/>
			<point x="304" y="1388" type="line"/>
			<point x="66" y="1366" type="line"/>
			<point x="66" y="1314" type="line"/>
			<point x="184" y="1314"/>
			<point x="202" y="1302"/>
			<point x="202" y="1206" type="curve" smooth="yes"/>
		</contour>
	</outline>
</glyph>
<glyph name="i" format="2">
	<unicode hex="0069"/>
	<advance width="498"/>
	<outline>
		<contour>
			<point x="204" y="138" type="line" smooth="yes"/>
			<point x="204" y="62"/>
			<point x="196" y="52"/>
			<point x="68" y="52" type="curve"/>
			<point x="68" y="52" type="line"/>
			<point x="68" y="0" type="line"/>
			<point x="116" y="4"/>
			<point x="202" y="4"/>
			<point x="252" y="4" type="curve" smooth="yes"/>
			<point x="300" y="4"/>
			<point x="382" y="4"/>
			<point x="428" y="0" type="curve"/>
			<point x="428" y="52" type="line"/>
			<point x="310" y="52"/>
			<point x="306" y="64"/>
			<point x="306" y="136" type="curve" smooth="yes"/>
			<point x="306" y="876" type="line"/>
			<point x="76" y="854" type="line"/>
			<point x="76" y="802" type="line"/>
			<point x="188" y="802"/>
			<point x="204" y="790"/>
			<point x="204" y="694" type="curve" smooth="yes"/>
		</contour>
		<contour>
			<point x="310" y="1232" type="curve" smooth="yes"/>
			<point x="310" y="1276"/>
			<point x="274" y="1314"/>
			<point x="228" y="1314" type="curve" smooth="yes"/>
			<point x="184" y="1314"/>
			<point x="146" y="1278"/>
			<point x="146" y="1232" type="curve" smooth="yes"/>
			<point x="146" y="1188"/>
			<point x="182" y="1150"/>
			<point x="228" y="1150" type="curve" smooth="yes"/>
			<point x="272" y="1150"/>
			<point x="310" y="1186"/>
		</contour>
	</outline>
</glyph>
<glyph name="j" format="2">
	<unicode hex="006A"/>
	<advance width="550"/>
	<outline>
		<contour>
			<point x="262" y="692" type="curve" smooth="yes"/>
			<point x="262" y="-118" type="line" smooth="yes"/>
			<point x="262" y="-218"/>
			<point x="244" y="-374"/>
			<point x="126" y="-374" type="curve" smooth="yes"/>
			<point x="112" y="-374"/>
			<point x="58" y="-372"/>
			<point x="14" y="-344" type="curve"/>
			<point x="28" y="-342"/>
			<point x="78" y="-328"/>
			<point x="78" y="-272" type="curve" smooth="yes"/>
			<point x="78" y="-234"/>
			<point x="52" y="-200"/>
			<point x="6" y="-200" type="curve" smooth="yes"/>
			<point x="-38" y="-200"/>
			<point x="-66" y="-230"/>
			<point x="-66" y="-274" type="curve" smooth="yes"/>
			<point x="-66" y="-354"/>
			<point x="22" y="-406"/>
			<point x="124" y="-406" type="curve" smooth="yes"/>
			<point x="262" y="-406"/>
			<point x="364" y="-280"/>
			<point x="364" y="-110" type="curve" smooth="yes"/>
			<point x="364" y="876" type="line"/>
			<point x="114" y="854" type="line"/>
			<point x="114" y="802" type="line"/>
			<point x="246" y="802"/>
			<point x="262" y="788"/>
		</contour>
		<contour>
			<point x="364" y="1232" type="curve" smooth="yes"/>
			<point x="364" y="1276"/>
			<point x="328" y="1314"/>
			<point x="282" y="1314" type="curve" smooth="yes"/>
			<point x="238" y="1314"/>
			<point x="200" y="1278"/>
			<point x="200" y="1232" type="curve" smooth="yes"/>
			<point x="200" y="1188"/>
			<point x="236" y="1150"/>
			<point x="282" y="1150" type="curve" smooth="yes"/>
			<point x="326" y="1150"/>
			<point x="364" y="1186"/>
		</contour>
	</outline>
</glyph>
<glyph name="k" format="2">
  <advance width="484"/>
  <unicode hex="006B"/>
  <outline>
    <contour>
      <point x="254" y="275" type="line"/>
      <point x="324" y="340" type="line" smooth="yes"/>
      <point x="388" y="399"/>
      <point x="429" y="403"/>
      <point x="454" y="404" type="curve"/>
      <point x="454" y="430" type="line"/>
      <point x="440" y="429"/>
      <point x="414" y="428"/>
      <point x="396" y="428" type="curve"/>
      <point x="368" y="428"/>
      <point x="325" y="428"/>
      <point x="298" y="430" type="curve"/>
      <point x="298" y="404" type="line"/>
      <point x="312" y="403"/>
      <point x="322" y="395"/>
      <point x="322" y="381" type="curve" smooth="yes"/>
      <point x="322" y="361"/>
      <point x="302" y="342"/>
      <point x="301" y="342" type="curve"/>
      <point x="150" y="204" type="line"/>
      <point x="150" y="694" type="line"/>
      <point x="31" y="683" type="line"/>
      <point x="31" y="657" type="line"/>
      <point x="90" y="657"/>
      <point x="99" y="651"/>
      <point x="99" y="603" type="curve" smooth="yes"/>
      <point x="99" y="69" type="line" smooth="yes"/>
      <point x="99" y="31"/>
      <point x="95" y="26"/>
      <point x="31" y="26" type="curve"/>
      <point x="31" y="26" type="line"/>
      <point x="31" y="0" type="line"/>
      <point x="55" y="2"/>
      <point x="99" y="2"/>
      <point x="124" y="2" type="curve" smooth="yes"/>
      <point x="149" y="2"/>
      <point x="193" y="2"/>
      <point x="217" y="0" type="curve"/>
      <point x="217" y="26" type="line"/>
      <point x="217" y="26" type="line"/>
      <point x="153" y="26"/>
      <point x="149" y="30"/>
      <point x="149" y="69" type="curve" smooth="yes"/>
      <point x="149" y="179" type="line"/>
      <point x="171.977" y="199.979"/>
      <point x="194.954" y="220.958"/>
      <point x="218" y="242" type="curve"/>
      <point x="319" y="92" type="line" smooth="yes"/>
      <point x="331" y="74"/>
      <point x="341" y="60"/>
      <point x="341" y="47" type="curve" smooth="yes"/>
      <point x="341" y="29"/>
      <point x="323" y="26"/>
      <point x="311" y="26" type="curve"/>
      <point x="311" y="0" type="line"/>
      <point x="335" y="2"/>
      <point x="378" y="2"/>
      <point x="403" y="2" type="curve" smooth="yes"/>
      <point x="421" y="2"/>
      <point x="458" y="1"/>
      <point x="475" y="0" type="curve"/>
      <point x="475" y="26" type="line"/>
      <point x="428" y="26"/>
      <point x="417" y="35"/>
      <point x="387" y="79" type="curve" smooth="yes"/>
    </contour>
  </outline>
</glyph>
<glyph name="l" format="2">
	<unicode hex="006C"/>
	<advance width="498"/>
	<outline>
		<contour>
			<point x="306" y="1388" type="line"/>
			<point x="68" y="1366" type="line"/>
			<point x="68" y="1314" type="line"/>
			<point x="186" y="1314"/>
			<point x="204" y="1302"/>
			<point x="204" y="1206" type="curve" smooth="yes"/>
			<point x="204" y="138" type="line" smooth="yes"/>
			<point x="204" y="62"/>
			<point x="196" y="52"/>
			<point x="68" y="52" type="curve"/>
			<point x="68" y="52" type="line"/>
			<point x="68" y="0" type="line"/>
			<point x="116" y="4"/>
			<point x="204" y="4"/>
			<point x="254" y="4" type="curve" smooth="yes"/>
			<point x="306" y="4"/>
			<point x="394" y="4"/>
			<point x="442" y="0" type="curve"/>
			<point x="442" y="52" type="line"/>
			<point x="442" y="52" type="line"/>
			<point x="314" y="52"/>
			<point x="306" y="60"/>
			<point x="306" y="138" type="curve" smooth="yes"/>
		</contour>
	</outline>
</glyph>
<glyph name="m" format="2">
  <advance width="772"/>
  <unicode hex="006D"/>
  <outline>
    <contour>
      <point x="101" y="69" type="line" smooth="yes"/>
      <point x="101" y="31"/>
      <point x="97" y="26"/>
      <point x="33" y="26" type="curve"/>
      <point x="33" y="26" type="line"/>
      <point x="33" y="0" type="line"/>
      <point x="57" y="2"/>
      <point x="101" y="2"/>
      <point x="127" y="2" type="curve" smooth="yes"/>
      <point x="153" y="2"/>
      <point x="198" y="2"/>
      <point x="222" y="0" type="curve"/>
      <point x="222" y="26" type="line"/>
      <point x="222" y="26" type="line"/>
      <point x="158" y="26"/>
      <point x="154" y="30"/>
      <point x="154" y="69" type="curve" smooth="yes"/>
      <point x="154" y="261" type="line" smooth="yes"/>
      <point x="154" y="353"/>
      <point x="210" y="422"/>
      <point x="280" y="422" type="curve" smooth="yes"/>
      <point x="354" y="422"/>
      <point x="362" y="356"/>
      <point x="362" y="308" type="curve" smooth="yes"/>
      <point x="362" y="69" type="line" smooth="yes"/>
      <point x="362" y="31"/>
      <point x="358" y="26"/>
      <point x="294" y="26" type="curve"/>
      <point x="294" y="26" type="line"/>
      <point x="294" y="0" type="line"/>
      <point x="318" y="2"/>
      <point x="362" y="2"/>
      <point x="388" y="2" type="curve" smooth="yes"/>
      <point x="414" y="2"/>
      <point x="459" y="2"/>
      <point x="483" y="0" type="curve"/>
      <point x="483" y="26" type="line"/>
      <point x="483" y="26" type="line"/>
      <point x="419" y="26"/>
      <point x="415" y="30"/>
      <point x="415" y="69" type="curve" smooth="yes"/>
      <point x="415" y="261" type="line" smooth="yes"/>
      <point x="415" y="353"/>
      <point x="471" y="422"/>
      <point x="541" y="422" type="curve" smooth="yes"/>
      <point x="615" y="422"/>
      <point x="623" y="356"/>
      <point x="623" y="308" type="curve" smooth="yes"/>
      <point x="623" y="69" type="line" smooth="yes"/>
      <point x="623" y="31"/>
      <point x="619" y="26"/>
      <point x="555" y="26" type="curve"/>
      <point x="555" y="26" type="line"/>
      <point x="555" y="0" type="line"/>
      <point x="579" y="2"/>
      <point x="623" y="2"/>
      <point x="649" y="2" type="curve" smooth="yes"/>
      <point x="675" y="2"/>
      <point x="720" y="2"/>
      <point x="744" y="0" type="curve"/>
      <point x="744" y="26" type="line"/>
      <point x="744" y="26" type="line"/>
      <point x="680" y="26"/>
      <point x="676" y="30"/>
      <point x="676" y="69" type="curve" smooth="yes"/>
      <point x="676" y="304" type="line" smooth="yes"/>
      <point x="676" y="334"/>
      <point x="673" y="376"/>
      <point x="644" y="405" type="curve" smooth="yes"/>
      <point x="625" y="425"/>
      <point x="595" y="438"/>
      <point x="548" y="438" type="curve" smooth="yes"/>
      <point x="480" y="438"/>
      <point x="432" y="392"/>
      <point x="414" y="338" type="curve"/>
      <point x="402" y="420"/>
      <point x="343" y="438"/>
      <point x="287" y="438" type="curve" smooth="yes"/>
      <point x="208" y="438"/>
      <point x="167" y="377"/>
      <point x="152" y="337" type="curve"/>
      <point x="151" y="337" type="line"/>
      <point x="151" y="438" type="line"/>
      <point x="33" y="427" type="line"/>
      <point x="33" y="401" type="line"/>
      <point x="92" y="401"/>
      <point x="101" y="395"/>
      <point x="101" y="347" type="curve" smooth="yes"/>
    </contour>
  </outline>
</glyph>
<glyph name="n" format="2">
	<unicode hex="006E"/>
	<advance width="1020"/>
	<outline>
		<contour>
			<point x="202" y="138" type="line" smooth="yes"/>
			<point x="202" y="62"/>
			<point x="194" y="52"/>
			<point x="66" y="52" type="curve"/>
			<point x="66" y="52" type="line"/>
			<point x="66" y="0" type="line"/>
			<point x="114" y="4"/>
			<point x="202" y="4"/>
			<point x="254" y="4" type="curve" smooth="yes"/>
			<point x="306" y="4"/>
			<point x="396" y="4"/>
			<point x="444" y="0" type="curve"/>
			<point x="444" y="52" type="line"/>
			<point x="444" y="52" type="line"/>
			<point x="316" y="52"/>
			<point x="308" y="60"/>
			<point x="308" y="138" type="curve" smooth="yes"/>
			<point x="308" y="522" type="line" smooth="yes"/>
			<point x="308" y="706"/>
			<point x="420" y="844"/>
			<point x="560" y="844" type="curve" smooth="yes"/>
			<point x="708" y="844"/>
			<point x="724" y="712"/>
			<point x="724" y="616" type="curve" smooth="yes"/>
			<point x="724" y="138" type="line" smooth="yes"/>
			<point x="724" y="62"/>
			<point x="716" y="52"/>
			<point x="588" y="52" type="curve"/>
			<point x="588" y="52" type="line"/>
			<point x="588" y="0" type="line"/>
			<point x="636" y="4"/>
			<point x="724" y="4"/>
			<point x="776" y="4" type="curve" smooth="yes"/>
			<point x="828" y="4"/>
			<point x="918" y="4"/>
			<point x="966" y="0" type="curve"/>
			<point x="966" y="52" type="line"/>
			<point x="966" y="52" type="line"/>
			<point x="838" y="52"/>
			<point x="830" y="60"/>
			<point x="830" y="138" type="curve" smooth="yes"/>
			<point x="830" y="608" type="line" smooth="yes"/>
			<point x="830" y="670"/>
			<point x="822" y="754"/>
			<point x="766" y="812" type="curve" smooth="yes"/>
			<point x="728" y="850"/>
			<point x="668" y="876"/>
			<point x="574" y="876" type="curve" smooth="yes"/>
			<point x="416" y="876"/>
			<point x="334" y="754"/>
			<point x="304" y="674" type="curve"/>
			<point x="302" y="674" type="line"/>
			<point x="302" y="876" type="line"/>
			<point x="66" y="854" type="line"/>
			<point x="66" y="802" type="line"/>
			<point x="184" y="802"/>
			<point x="202" y="790"/>
			<point x="202" y="694" type="curve" smooth="yes"/>
		</contour>
	</outline>
</glyph>
<glyph name="o" format="2">
	<unicode hex="006F"/>
	<advance width="458"/>
	<outline>
		<contour>
			<point x="431" y="214" type="curve" smooth="yes"/>
			<point x="431" y="342"/>
			<point x="338" y="442"/>
			<point x="229" y="442" type="curve" smooth="yes"/>
			<point x="120" y="442"/>
			<point x="27" y="342"/>
			<point x="27" y="214" type="curve" smooth="yes"/>
			<point x="27" y="88"/>
			<point x="120" y="-8"/>
			<point x="229" y="-8" type="curve" smooth="yes"/>
			<point x="338" y="-8"/>
			<point x="431" y="88"/>
		</contour>
		<contour>
			<point x="229" y="10" type="curve" smooth="yes"/>
			<point x="182" y="10"/>
			<point x="142" y="38"/>
			<point x="119" y="77" type="curve" smooth="yes"/>
			<point x="94" y="122"/>
			<point x="91" y="178"/>
			<point x="91" y="222" type="curve" smooth="yes"/>
			<point x="91" y="264"/>
			<point x="93" y="316"/>
			<point x="119" y="361" type="curve" smooth="yes"/>
			<point x="139" y="394"/>
			<point x="178" y="426"/>
			<point x="229" y="426" type="curve" smooth="yes"/>
			<point x="274" y="426"/>
			<point x="312" y="401"/>
			<point x="336" y="366" type="curve" smooth="yes"/>
			<point x="367" y="319"/>
			<point x="367" y="253"/>
			<point x="367" y="222" type="curve" smooth="yes"/>
			<point x="367" y="183"/>
			<point x="365" y="123"/>
			<point x="338" y="75" type="curve" smooth="yes"/>
			<point x="310" y="29"/>
			<point x="267" y="10"/>
		</contour>
	</outline>
</glyph>
<glyph name="q" format="2">
	<unicode hex="0071"/>
	<advance width="968"/>
	<outline>
		<contour>
			<point x="66" y="430" type="curve" smooth="yes"/>
			<point x="66" y="168"/>
			<point x="250" y="-16"/>
			<point x="450" y="-16" type="curve" smooth="yes"/>
			<point x="604" y="-16"/>
			<point x="690" y="102"/>
			<point x="716" y="146" type="curve"/>
			<point x="716" y="-252" type="line" smooth="yes"/>
			<point x="716" y="-328"/>
			<point x="708" y="-338"/>
			<point x="580" y="-338" type="curve"/>
			<point x="580" y="-338" type="line"/>
			<point x="580" y="-390" type="line"/>
			<point x="628" y="-386"/>
			<point x="716" y="-386"/>
			<point x="768" y="-386" type="curve" smooth="yes"/>
			<point x="820" y="-386"/>
			<point x="910" y="-386"/>
			<point x="958" y="-390" type="curve"/>
			<point x="958" y="-338" type="line"/>
			<point x="958" y="-338" type="line"/>
			<point x="830" y="-338"/>
			<point x="822" y="-330"/>
			<point x="822" y="-252" type="curve" smooth="yes"/>
			<point x="822" y="876" type="line"/>
			<point x="790" y="876" type="line"/>
			<point x="730" y="678" type="line"/>
			<point x="684" y="784"/>
			<point x="600" y="876"/>
			<point x="466" y="876" type="curve" smooth="yes"/>
			<point x="262" y="876"/>
			<point x="66" y="694"/>
		</contour>
		<contour>
			<point x="194" y="428" type="curve" smooth="yes"/>
			<point x="194" y="662"/>
			<point x="326" y="840"/>
			<point x="480" y="840" type="curve" smooth="yes"/>
			<point x="640" y="840"/>
			<point x="720" y="658"/>
			<point x="720" y="554" type="curve" smooth="yes"/>
			<point x="720" y="274" type="line" smooth="yes"/>
			<point x="720" y="188"/>
			<point x="648" y="108"/>
			<point x="642" y="102" type="curve"/>
			<point x="580" y="32"/>
			<point x="508" y="16"/>
			<point x="460" y="16" type="curve" smooth="yes"/>
			<point x="310" y="16"/>
			<point x="194" y="206"/>
		</contour>
	</outline>
</glyph>
<glyph name="r" format="2">
	<unicode hex="0072"/>
	<advance width="708"/>
	<outline>
		<contour>
			<point x="198" y="138" type="line" smooth="yes"/>
			<point x="198" y="62"/>
			<point x="190" y="52"/>
			<point x="62" y="52" type="curve"/>
			<point x="62" y="52" type="line"/>
			<point x="62" y="0" type="line"/>
			<point x="110" y="4"/>
			<point x="202" y="4"/>
			<point x="254" y="4" type="curve" smooth="yes"/>
			<point x="312" y="4"/>
			<point x="414" y="4"/>
			<point x="468" y="0" type="curve"/>
			<point x="468" y="52" type="line"/>
			<point x="468" y="52" type="line"/>
			<point x="324" y="52"/>
			<point x="300" y="52"/>
			<point x="300" y="142" type="curve" smooth="yes"/>
			<point x="300" y="472" type="line" smooth="yes"/>
			<point x="300" y="664"/>
			<point x="382" y="844"/>
			<point x="532" y="844" type="curve" smooth="yes"/>
			<point x="546" y="844"/>
			<point x="560" y="842"/>
			<point x="574" y="836" type="curve"/>
			<point x="546" y="824"/>
			<point x="530" y="802"/>
			<point x="530" y="770" type="curve" smooth="yes"/>
			<point x="530" y="722"/>
			<point x="568" y="702"/>
			<point x="598" y="702" type="curve" smooth="yes"/>
			<point x="622" y="702"/>
			<point x="666" y="716"/>
			<point x="666" y="772" type="curve" smooth="yes"/>
			<point x="666" y="836"/>
			<point x="602" y="876"/>
			<point x="534" y="876" type="curve" smooth="yes"/>
			<point x="382" y="876"/>
			<point x="316" y="728"/>
			<point x="296" y="658" type="curve"/>
			<point x="294" y="658" type="line"/>
			<point x="294" y="876" type="line"/>
			<point x="62" y="854" type="line"/>
			<point x="62" y="802" type="line"/>
			<point x="180" y="802"/>
			<point x="198" y="790"/>
			<point x="198" y="694" type="curve" smooth="yes"/>
		</contour>
	</outline>
</glyph>
<glyph name="s" format="2">
	<unicode hex="0073"/>
	<advance width="718"/>
	<outline>
		<contour>
			<point x="666" y="248" type="curve" smooth="yes"/>
			<point x="666" y="350"/>
			<point x="612" y="404"/>
			<point x="586" y="428" type="curve"/>
			<point x="526" y="490"/>
			<point x="456" y="504"/>
			<point x="372" y="520" type="curve" smooth="yes"/>
			<point x="262" y="544"/>
			<point x="122" y="572"/>
			<point x="122" y="694" type="curve" smooth="yes"/>
			<point x="122" y="746"/>
			<point x="150" y="856"/>
			<point x="352" y="856" type="curve" smooth="yes"/>
			<point x="566" y="856"/>
			<point x="578" y="656"/>
			<point x="582" y="592" type="curve"/>
			<point x="584" y="582"/>
			<point x="594" y="580"/>
			<point x="600" y="580" type="curve" smooth="yes"/>
			<point x="618" y="580"/>
			<point x="618" y="586"/>
			<point x="618" y="620" type="curve" smooth="yes"/>
			<point x="618" y="844" type="line" smooth="yes"/>
			<point x="618" y="880"/>
			<point x="616" y="882"/>
			<point x="604" y="882" type="curve" smooth="yes"/>
			<point x="596" y="882"/>
			<point x="594" y="880"/>
			<point x="570" y="850" type="curve" smooth="yes"/>
			<point x="564" y="842"/>
			<point x="546" y="822"/>
			<point x="540" y="814" type="curve"/>
			<point x="476" y="882"/>
			<point x="386" y="884"/>
			<point x="352" y="884" type="curve" smooth="yes"/>
			<point x="130" y="884"/>
			<point x="50" y="768"/>
			<point x="50" y="652" type="curve" smooth="yes"/>
			<point x="50" y="590"/>
			<point x="74" y="544"/>
			<point x="108" y="510" type="curve" smooth="yes"/>
			<point x="172" y="446"/>
			<point x="274" y="426"/>
			<point x="312" y="418" type="curve" smooth="yes"/>
			<point x="438" y="392"/>
			<point x="482" y="384"/>
			<point x="524" y="348" type="curve" smooth="yes"/>
			<point x="550" y="324"/>
			<point x="594" y="280"/>
			<point x="594" y="208" type="curve" smooth="yes"/>
			<point x="594" y="124"/>
			<point x="546" y="16"/>
			<point x="362" y="16" type="curve" smooth="yes"/>
			<point x="188" y="16"/>
			<point x="126" y="148"/>
			<point x="90" y="324" type="curve" smooth="yes"/>
			<point x="84" y="352"/>
			<point x="84" y="354"/>
			<point x="68" y="354" type="curve" smooth="yes"/>
			<point x="52" y="354"/>
			<point x="50" y="352"/>
			<point x="50" y="312" type="curve" smooth="yes"/>
			<point x="50" y="24" type="line" smooth="yes"/>
			<point x="50" y="-12"/>
			<point x="52" y="-14"/>
			<point x="64" y="-14" type="curve" smooth="yes"/>
			<point x="74" y="-14"/>
			<point x="76" y="-12"/>
			<point x="86" y="4" type="curve" smooth="yes"/>
			<point x="104" y="33"/>
			<point x="122" y="61"/>
			<point x="140" y="90" type="curve"/>
			<point x="180" y="36"/>
			<point x="250" y="-16"/>
			<point x="362" y="-16" type="curve" smooth="yes"/>
			<point x="560" y="-16"/>
			<point x="666" y="92"/>
		</contour>
	</outline>
</glyph>
<glyph name="t" format="2">
	<unicode hex="0074"/>
	<advance width="708"/>
	<outline>
		<contour>
			<point x="302" y="808" type="line"/>
			<point x="582" y="808" type="line"/>
			<point x="582" y="860" type="line"/>
			<point x="302" y="860" type="line"/>
			<point x="302" y="1230" type="line"/>
			<point x="266" y="1230" type="line"/>
			<point x="262" y="1024"/>
			<point x="192" y="844"/>
			<point x="22" y="840" type="curve"/>
			<point x="22" y="808" type="line"/>
			<point x="196" y="808" type="line"/>
			<point x="196" y="246" type="line" smooth="yes"/>
			<point x="196" y="208"/>
			<point x="196" y="-16"/>
			<point x="428" y="-16" type="curve" smooth="yes"/>
			<point x="546" y="-16"/>
			<point x="614" y="100"/>
			<point x="614" y="248" type="curve" smooth="yes"/>
			<point x="614" y="362" type="line"/>
			<point x="578" y="362" type="line"/>
			<point x="578" y="250" type="line" smooth="yes"/>
			<point x="578" y="112"/>
			<point x="524" y="20"/>
			<point x="440" y="20" type="curve" smooth="yes"/>
			<point x="382" y="20"/>
			<point x="302" y="60"/>
			<point x="302" y="242" type="curve" smooth="yes"/>
		</contour>
	</outline>
</glyph>
<glyph name="u" format="2">
	<unicode hex="0075"/>
	<advance width="1020"/>
	<outline>
		<contour>
			<point x="202" y="722" type="curve" smooth="yes"/>
			<point x="202" y="338" type="line" smooth="yes"/>
			<point x="202" y="204"/>
			<point x="202" y="118"/>
			<point x="254" y="62" type="curve" smooth="yes"/>
			<point x="280" y="36"/>
			<point x="330" y="-16"/>
			<point x="474" y="-16" type="curve" smooth="yes"/>
			<point x="644" y="-16"/>
			<point x="710" y="128"/>
			<point x="726" y="170" type="curve"/>
			<point x="728" y="170" type="line"/>
			<point x="728" y="-16" type="line"/>
			<point x="966" y="0" type="line"/>
			<point x="966" y="52" type="line"/>
			<point x="848" y="52"/>
			<point x="830" y="64"/>
			<point x="830" y="160" type="curve" smooth="yes"/>
			<point x="830" y="876" type="line"/>
			<point x="588" y="854" type="line"/>
			<point x="588" y="802" type="line"/>
			<point x="706" y="802"/>
			<point x="724" y="790"/>
			<point x="724" y="694" type="curve" smooth="yes"/>
			<point x="724" y="330" type="line" smooth="yes"/>
			<point x="724" y="162"/>
			<point x="634" y="16"/>
			<point x="486" y="16" type="curve" smooth="yes"/>
			<point x="322" y="16"/>
			<point x="308" y="114"/>
			<point x="308" y="218" type="curve" smooth="yes"/>
			<point x="308" y="876" type="line"/>
			<point x="66" y="854" type="line"/>
			<point x="66" y="802" type="line"/>
			<point x="146" y="802"/>
			<point x="200" y="802"/>
		</contour>
	</outline>
</glyph>
<glyph name="v" format="2">
	<unicode hex="0076"/>
	<advance width="968"/>
	<outline>
		<contour>
			<point x="484" y="-16" type="curve" smooth="yes"/>
			<point x="502" y="-16"/>
			<point x="504" y="-12"/>
			<point x="516" y="18" type="curve" smooth="yes"/>
			<point x="605" y="238"/>
			<point x="693" y="459"/>
			<point x="782" y="680" type="curve" smooth="yes"/>
			<point x="800" y="724"/>
			<point x="832" y="804"/>
			<point x="948" y="808" type="curve"/>
			<point x="948" y="825"/>
			<point x="948" y="843"/>
			<point x="948" y="860" type="curve"/>
			<point x="910" y="858"/>
			<point x="860" y="856"/>
			<point x="822" y="856" type="curve" smooth="yes"/>
			<point x="780" y="856"/>
			<point x="714" y="856"/>
			<point x="674" y="860" type="curve"/>
			<point x="674" y="843"/>
			<point x="674" y="825"/>
			<point x="674" y="808" type="curve"/>
			<point x="724" y="804"/>
			<point x="752" y="780"/>
			<point x="752" y="728" type="curve" smooth="yes"/>
			<point x="752" y="710"/>
			<point x="752" y="706"/>
			<point x="740" y="678" type="curve" smooth="yes"/>
			<point x="667" y="493"/>
			<point x="593" y="308"/>
			<point x="520" y="122" type="curve"/>
			<point x="441" y="322"/>
			<point x="361" y="522"/>
			<point x="282" y="722" type="curve"/>
			<point x="270" y="748"/>
			<point x="270" y="752"/>
			<point x="270" y="760" type="curve" smooth="yes"/>
			<point x="270" y="808"/>
			<point x="336" y="808"/>
			<point x="366" y="808" type="curve"/>
			<point x="366" y="825"/>
			<point x="366" y="843"/>
			<point x="366" y="860" type="curve"/>
			<point x="318" y="856"/>
			<point x="230" y="856"/>
			<point x="180" y="856" type="curve" smooth="yes"/>
			<point x="126" y="856"/>
			<point x="64" y="856"/>
			<point x="20" y="860" type="curve"/>
			<point x="20" y="843"/>
			<point x="20" y="825"/>
			<point x="20" y="808" type="curve"/>
			<point x="96" y="808"/>
			<point x="138" y="808"/>
			<point x="162" y="746" type="curve" smooth="yes"/>
			<point x="259" y="504"/>
			<point x="355" y="261"/>
			<point x="452" y="18" type="curve" smooth="yes"/>
			<point x="464" y="-12"/>
			<point x="466" y="-16"/>
		</contour>
	</outline>
</glyph>
<glyph name="w" format="2">
	<unicode hex="0077"/>
	<advance width="1334"/>
	<outline>
		<contour>
			<point x="1164" y="684" type="line" smooth="yes"/>
			<point x="1204" y="802"/>
			<point x="1284" y="806"/>
			<point x="1314" y="808" type="curve"/>
			<point x="1314" y="825"/>
			<point x="1314" y="843"/>
			<point x="1314" y="860" type="curve"/>
			<point x="1274" y="858"/>
			<point x="1234" y="856"/>
			<point x="1194" y="856" type="curve" smooth="yes"/>
			<point x="1156" y="856"/>
			<point x="1070" y="856"/>
			<point x="1036" y="860" type="curve"/>
			<point x="1036" y="843"/>
			<point x="1036" y="825"/>
			<point x="1036" y="808" type="curve"/>
			<point x="1098" y="804"/>
			<point x="1132" y="768"/>
			<point x="1132" y="718" type="curve" smooth="yes"/>
			<point x="1132" y="704"/>
			<point x="1128" y="686"/>
			<point x="1124" y="672" type="curve"/>
			<point x="936" y="128" type="line"/>
			<point x="732" y="718" type="line"/>
			<point x="728" y="732"/>
			<point x="722" y="748"/>
			<point x="722" y="756" type="curve" smooth="yes"/>
			<point x="722" y="808"/>
			<point x="790" y="808"/>
			<point x="822" y="808" type="curve"/>
			<point x="822" y="860" type="line"/>
			<point x="776" y="856"/>
			<point x="692" y="856"/>
			<point x="644" y="856" type="curve" smooth="yes"/>
			<point x="594" y="856"/>
			<point x="542" y="856"/>
			<point x="496" y="860" type="curve"/>
			<point x="496" y="808" type="line"/>
			<point x="554" y="808"/>
			<point x="582" y="806"/>
			<point x="600" y="788" type="curve" smooth="yes"/>
			<point x="618" y="770"/>
			<point x="628" y="738"/>
			<point x="648" y="678" type="curve"/>
			<point x="464" y="142" type="line"/>
			<point x="266" y="720" type="line" smooth="yes"/>
			<point x="256" y="746"/>
			<point x="256" y="750"/>
			<point x="256" y="756" type="curve" smooth="yes"/>
			<point x="256" y="808"/>
			<point x="324" y="808"/>
			<point x="356" y="808" type="curve"/>
			<point x="356" y="860" type="line"/>
			<point x="308" y="856"/>
			<point x="224" y="856"/>
			<point x="174" y="856" type="curve" smooth="yes"/>
			<point x="130" y="856"/>
			<point x="62" y="856"/>
			<point x="20" y="860" type="curve"/>
			<point x="20" y="808" type="line"/>
			<point x="108" y="808"/>
			<point x="130" y="802"/>
			<point x="152" y="736" type="curve" smooth="yes"/>
			<point x="398" y="16" type="line" smooth="yes"/>
			<point x="406" y="-10"/>
			<point x="412" y="-16"/>
			<point x="428" y="-16" type="curve" smooth="yes"/>
			<point x="442" y="-16"/>
			<point x="450" y="-12"/>
			<point x="460" y="18" type="curve" smooth="yes"/>
			<point x="666" y="622" type="line"/>
			<point x="874" y="18" type="line" smooth="yes"/>
			<point x="884" y="-12"/>
			<point x="892" y="-16"/>
			<point x="906" y="-16" type="curve" smooth="yes"/>
			<point x="922" y="-16"/>
			<point x="928" y="-10"/>
			<point x="936" y="16" type="curve" smooth="yes"/>
		</contour>
	</outline>
</glyph>
<glyph name="x" format="2">
	<unicode hex="0078"/>
	<advance width="484"/>
	<outline>
		<contour>
			<point x="220" y="210" type="line"/>
			<point x="120" y="85" type="line"/>
			<point x="75" y="31"/>
			<point x="28" y="27"/>
			<point x="1" y="26" type="curve"/>
			<point x="1" y="0" type="line"/>
			<point x="18" y="1"/>
			<point x="53" y="2"/>
			<point x="71" y="2" type="curve" smooth="yes"/>
			<point x="91" y="2"/>
			<point x="135" y="2"/>
			<point x="153" y="0" type="curve"/>
			<point x="153" y="26" type="line"/>
			<point x="147" y="27"/>
			<point x="131" y="29"/>
			<point x="131" y="52" type="curve" smooth="yes"/>
			<point x="131" y="70"/>
			<point x="139" y="81"/>
			<point x="148" y="93" type="curve" smooth="yes"/>
			<point x="175.639" y="126.966"/>
			<point x="203.278" y="160.932"/>
			<point x="231" y="195" type="curve"/>
			<point x="318" y="82" type="line" smooth="yes"/>
			<point x="326" y="71"/>
			<point x="338" y="56"/>
			<point x="338" y="49" type="curve" smooth="yes"/>
			<point x="338" y="35"/>
			<point x="326" y="27"/>
			<point x="310" y="26" type="curve"/>
			<point x="310" y="0" type="line"/>
			<point x="334" y="2"/>
			<point x="377" y="2"/>
			<point x="402" y="2" type="curve" smooth="yes"/>
			<point x="429" y="2"/>
			<point x="461" y="2"/>
			<point x="483" y="0" type="curve"/>
			<point x="483" y="26" type="line"/>
			<point x="433" y="26"/>
			<point x="418" y="28"/>
			<point x="394" y="59" type="curve" smooth="yes"/>
			<point x="260" y="233" type="line"/>
			<point x="346" y="342" type="line" smooth="yes"/>
			<point x="383" y="388"/>
			<point x="423" y="403"/>
			<point x="467" y="404" type="curve"/>
			<point x="467" y="430" type="line"/>
			<point x="450" y="429"/>
			<point x="415" y="428"/>
			<point x="397" y="428" type="curve" smooth="yes"/>
			<point x="370" y="428"/>
			<point x="339" y="428"/>
			<point x="316" y="430" type="curve"/>
			<point x="316" y="404" type="line"/>
			<point x="330" y="402"/>
			<point x="338" y="392"/>
			<point x="338" y="378" type="curve" smooth="yes"/>
			<point x="338" y="360"/>
			<point x="328" y="349"/>
			<point x="323" y="342" type="curve" smooth="yes"/>
			<point x="249" y="248" type="line"/>
			<point x="161" y="363" type="line" smooth="yes"/>
			<point x="152" y="374"/>
			<point x="152" y="376"/>
			<point x="152" y="381" type="curve" smooth="yes"/>
			<point x="152" y="393"/>
			<point x="162" y="403"/>
			<point x="179" y="404" type="curve"/>
			<point x="179" y="430" type="line"/>
			<point x="155" y="428"/>
			<point x="112" y="428"/>
			<point x="87" y="428" type="curve" smooth="yes"/>
			<point x="60" y="428"/>
			<point x="28" y="428"/>
			<point x="6" y="430" type="curve"/>
			<point x="6" y="404" type="line"/>
			<point x="60" y="404"/>
			<point x="73" y="400"/>
			<point x="96" y="370" type="curve" smooth="yes"/>
		</contour>
	</outline>
</glyph>
<glyph name="y" format="2">
	<unicode hex="0079"/>
	<advance width="968"/>
	<outline>
		<contour>
			<point x="196" y="-406" type="curve" smooth="yes"/>
			<point x="312" y="-406"/>
			<point x="384" y="-294"/>
			<point x="424" y="-194" type="curve" smooth="yes"/>
			<point x="780" y="684" type="line" smooth="yes"/>
			<point x="830" y="806"/>
			<point x="920" y="808"/>
			<point x="948" y="808" type="curve"/>
			<point x="948" y="860" type="line"/>
			<point x="910" y="858"/>
			<point x="860" y="856"/>
			<point x="822" y="856" type="curve" smooth="yes"/>
			<point x="780" y="856"/>
			<point x="714" y="856"/>
			<point x="674" y="860" type="curve"/>
			<point x="674" y="808" type="line"/>
			<point x="750" y="802"/>
			<point x="752" y="746"/>
			<point x="752" y="730" type="curve" smooth="yes"/>
			<point x="752" y="710"/>
			<point x="748" y="700"/>
			<point x="738" y="676" type="curve" smooth="yes"/>
			<point x="520" y="136" type="line"/>
			<point x="282" y="720" type="line" smooth="yes"/>
			<point x="272" y="744"/>
			<point x="272" y="758"/>
			<point x="272" y="760" type="curve" smooth="yes"/>
			<point x="272" y="804"/>
			<point x="318" y="808"/>
			<point x="366" y="808" type="curve"/>
			<point x="366" y="860" type="line"/>
			<point x="318" y="856"/>
			<point x="232" y="856"/>
			<point x="182" y="856" type="curve" smooth="yes"/>
			<point x="128" y="856"/>
			<point x="64" y="856"/>
			<point x="20" y="860" type="curve"/>
			<point x="20" y="808" type="line"/>
			<point x="128" y="808"/>
			<point x="140" y="798"/>
			<point x="166" y="734" type="curve" smooth="yes"/>
			<point x="464" y="0" type="line"/>
			<point x="450" y="-38"/>
			<point x="436" y="-74"/>
			<point x="424" y="-106" type="curve" smooth="yes"/>
			<point x="356" y="-276"/>
			<point x="302" y="-374"/>
			<point x="196" y="-374" type="curve" smooth="yes"/>
			<point x="174" y="-374"/>
			<point x="124" y="-368"/>
			<point x="88" y="-332" type="curve"/>
			<point x="134" y="-328"/>
			<point x="154" y="-300"/>
			<point x="154" y="-266" type="curve" smooth="yes"/>
			<point x="154" y="-232"/>
			<point x="130" y="-202"/>
			<point x="90" y="-202" type="curve" smooth="yes"/>
			<point x="46" y="-202"/>
			<point x="24" y="-232"/>
			<point x="24" y="-268" type="curve" smooth="yes"/>
			<point x="24" y="-348"/>
			<point x="106" y="-406"/>
		</contour>
	</outline>
</glyph>
<glyph name="z" format="2">
	<unicode hex="007A"/>
	<advance width="812"/>
	<outline>
		<contour>
			<point x="612" y="828" type="line"/>
			<point x="40" y="30" type="line"/>
			<point x="40" y="30"/>
			<point x="40" y="30"/>
			<point x="40" y="30" type="curve"/>
			<point x="40" y="2"/>
			<point x="42" y="0"/>
			<point x="84" y="0" type="curve" smooth="yes"/>
			<point x="716" y="0" type="line"/>
			<point x="744" y="360" type="line"/>
			<point x="708" y="360" type="line"/>
			<point x="692" y="138"/>
			<point x="666" y="36"/>
			<point x="422" y="36" type="curve" smooth="yes"/>
			<point x="166" y="36" type="line"/>
			<point x="722" y="814" type="line"/>
			<point x="738" y="834"/>
			<point x="738" y="838"/>
			<point x="738" y="842" type="curve" smooth="yes"/>
			<point x="738" y="860"/>
			<point x="730" y="860"/>
			<point x="694" y="860" type="curve" smooth="yes"/>
			<point x="86" y="860" type="line"/>
			<point x="66" y="550" type="line"/>
			<point x="102" y="550" type="line"/>
			<point x="116" y="744"/>
			<point x="138" y="828"/>
			<point x="368" y="828" type="curve" smooth="yes"/>
		</contour>
	</outline>
</glyph>
<glyph name="exclamdown" format="2">
	<unicode hex="00A1"/>
	<advance width="498"/>
	<outline>
		<contour>
			<point x="250" y="-422" type="curve" smooth="yes"/>
			<point x="284" y="-422"/>
			<point x="332" y="-400"/>
			<point x="332" y="-342" type="curve"/>
			<point x="311" y="-20"/>
			<point x="291" y="303"/>
			<point x="270" y="626" type="curve" smooth="yes"/>
			<point x="268" y="652"/>
			<point x="268" y="662"/>
			<point x="250" y="662" type="curve" smooth="yes"/>
			<point x="232" y="662"/>
			<point x="232" y="652"/>
			<point x="230" y="626" type="curve" smooth="yes"/>
			<point x="209" y="304"/>
			<point x="189" y="-19"/>
			<point x="168" y="-342" type="curve"/>
			<point x="168" y="-400"/>
			<point x="216" y="-422"/>
		</contour>
		<contour>
			<point x="332" y="918" type="curve" smooth="yes"/>
			<point x="332" y="962"/>
			<point x="296" y="1000"/>
			<point x="250" y="1000" type="curve" smooth="yes"/>
			<point x="206" y="1000"/>
			<point x="168" y="964"/>
			<point x="168" y="918" type="curve" smooth="yes"/>
			<point x="168" y="874"/>
			<point x="204" y="836"/>
			<point x="250" y="836" type="curve" smooth="yes"/>
			<point x="294" y="836"/>
			<point x="332" y="872"/>
		</contour>
	</outline>
</glyph>
<glyph name="dieresis" format="2">
	<unicode hex="00A8"/>
	<advance width="916"/>
	<outline>
		<contour>
			<point x="354" y="1234" type="curve" smooth="yes"/>
			<point x="354" y="1284"/>
			<point x="314" y="1314"/>
			<point x="276" y="1314" type="curve" smooth="yes"/>
			<point x="224" y="1314"/>
			<point x="196" y="1270"/>
			<point x="196" y="1236" type="curve" smooth="yes"/>
			<point x="196" y="1196"/>
			<point x="228" y="1156"/>
			<point x="276" y="1156" type="curve" smooth="yes"/>
			<point x="318" y="1156"/>
			<point x="354" y="1190"/>
		</contour>
		<contour>
			<point x="720" y="1234" type="curve" smooth="yes"/>
			<point x="720" y="1274"/>
			<point x="688" y="1314"/>
			<point x="640" y="1314" type="curve" smooth="yes"/>
			<point x="598" y="1314"/>
			<point x="562" y="1280"/>
			<point x="562" y="1236" type="curve" smooth="yes"/>
			<point x="562" y="1186"/>
			<point x="602" y="1156"/>
			<point x="640" y="1156" type="curve" smooth="yes"/>
			<point x="692" y="1156"/>
			<point x="720" y="1200"/>
		</contour>
	</outline>
</glyph>
<glyph name="macron" format="2">
	<unicode hex="00AF"/>
	<advance width="458"/>
	<outline>
		<contour>
			<point x="399" y="553" type="line"/>
			<point x="399" y="576" type="line"/>
			<point x="59" y="576" type="line"/>
			<point x="59" y="553" type="line"/>
		</contour>
	</outline>
</glyph>
<glyph name="acute" format="2">
	<unicode hex="00B4"/>
	<advance width="916"/>
	<outline>
		<contour>
			<point x="400" y="1024" type="line"/>
			<point x="694" y="1290" type="line" smooth="yes"/>
			<point x="718" y="1312"/>
			<point x="724" y="1316"/>
			<point x="724" y="1338" type="curve" smooth="yes"/>
			<point x="724" y="1368"/>
			<point x="698" y="1392"/>
			<point x="670" y="1392" type="curve" smooth="yes"/>
			<point x="646" y="1392"/>
			<point x="638" y="1382"/>
			<point x="618" y="1358" type="curve"/>
			<point x="538" y="1255"/>
			<point x="458" y="1152"/>
			<point x="378" y="1048" type="curve"/>
		</contour>
	</outline>
</glyph>
<glyph name="cedilla" format="2">
	<unicode hex="00B8"/>
	<advance width="812"/>
	<outline>
		<contour>
			<point x="560" y="-244" type="curve" smooth="yes"/>
			<point x="560" y="-348"/>
			<point x="424" y="-356"/>
			<point x="302" y="-356" type="curve" smooth="yes"/>
			<point x="284" y="-356"/>
			<point x="266" y="-356"/>
			<point x="248" y="-356" type="curve"/>
			<point x="248" y="-388" type="line"/>
			<point x="273" y="-388"/>
			<point x="299" y="-388"/>
			<point x="324" y="-388" type="curve" smooth="yes"/>
			<point x="330" y="-388"/>
			<point x="460" y="-388"/>
			<point x="542" y="-366" type="curve" smooth="yes"/>
			<point x="638" y="-342"/>
			<point x="666" y="-296"/>
			<point x="666" y="-242" type="curve" smooth="yes"/>
			<point x="666" y="-168"/>
			<point x="606" y="-124"/>
			<point x="510" y="-108" type="curve"/>
			<point x="510" y="-32" type="line"/>
			<point x="404" y="-32" type="line"/>
			<point x="404" y="-130" type="line"/>
			<point x="492" y="-132"/>
			<point x="560" y="-172"/>
		</contour>
	</outline>
</glyph>
<glyph name="AE" format="2">
	<unicode hex="00C6"/>
	<advance width="1674"/>
	<outline>
		<contour>
			<point x="1532" y="1366" type="line"/>
			<point x="504" y="1366" type="line"/>
			<point x="504" y="1314" type="line"/>
			<point x="636" y="1314" type="line"/>
			<point x="234" y="182" type="line" smooth="yes"/>
			<point x="194" y="70"/>
			<point x="112" y="54"/>
			<point x="46" y="52" type="curve"/>
			<point x="46" y="52" type="line"/>
			<point x="46" y="0" type="line"/>
			<point x="80" y="4"/>
			<point x="162" y="4"/>
			<point x="200" y="4" type="curve" smooth="yes"/>
			<point x="248" y="4"/>
			<point x="332" y="4"/>
			<point x="378" y="0" type="curve"/>
			<point x="378" y="52" type="line"/>
			<point x="276" y="56"/>
			<point x="270" y="130"/>
			<point x="270" y="144" type="curve" smooth="yes"/>
			<point x="270" y="162"/>
			<point x="276" y="178"/>
			<point x="282" y="194" type="curve" smooth="yes"/>
			<point x="438" y="630" type="line"/>
			<point x="770" y="630" type="line"/>
			<point x="770" y="136" type="line" smooth="yes"/>
			<point x="770" y="64"/>
			<point x="766" y="52"/>
			<point x="650" y="52" type="curve"/>
			<point x="650" y="52" type="line"/>
			<point x="650" y="0" type="line"/>
			<point x="1560" y="0" type="line"/>
			<point x="1632" y="506" type="line"/>
			<point x="1596" y="506" type="line"/>
			<point x="1552" y="206"/>
			<point x="1528" y="52"/>
			<point x="1196" y="52" type="curve" smooth="yes"/>
			<point x="976" y="52" type="line" smooth="yes"/>
			<point x="896" y="52"/>
			<point x="892" y="62"/>
			<point x="892" y="130" type="curve" smooth="yes"/>
			<point x="892" y="630" type="line"/>
			<point x="1080" y="630" type="line" smooth="yes"/>
			<point x="1266" y="630"/>
			<point x="1284" y="564"/>
			<point x="1284" y="396" type="curve"/>
			<point x="1320" y="396" type="line"/>
			<point x="1320" y="916" type="line"/>
			<point x="1284" y="916" type="line"/>
			<point x="1284" y="748"/>
			<point x="1266" y="682"/>
			<point x="1080" y="682" type="curve" smooth="yes"/>
			<point x="892" y="682" type="line"/>
			<point x="892" y="1236" type="line" smooth="yes"/>
			<point x="892" y="1304"/>
			<point x="896" y="1314"/>
			<point x="976" y="1314" type="curve" smooth="yes"/>
			<point x="1196" y="1314" type="line" smooth="yes"/>
			<point x="1498" y="1314"/>
			<point x="1514" y="1174"/>
			<point x="1544" y="924" type="curve"/>
			<point x="1580" y="924" type="line"/>
		</contour>
		<contour>
			<point x="456" y="682" type="line"/>
			<point x="680" y="1310" type="line"/>
			<point x="770" y="1310"/>
			<point x="770" y="1256"/>
			<point x="770" y="1218" type="curve" smooth="yes"/>
			<point x="770" y="682" type="line"/>
		</contour>
	</outline>
</glyph>
<glyph name="Oslash" format="2">
	<unicode hex="00D8"/>
	<advance width="1438"/>
	<outline>
		<contour>
			<point x="1262" y="1454" type="line"/>
			<point x="1234" y="1474" type="line"/>
			<point x="1090" y="1262" type="line"/>
			<point x="988" y="1336"/>
			<point x="872" y="1398"/>
			<point x="720" y="1398" type="curve" smooth="yes"/>
			<point x="380" y="1398"/>
			<point x="92" y="1086"/>
			<point x="92" y="680" type="curve" smooth="yes"/>
			<point x="92" y="554"/>
			<point x="118" y="326"/>
			<point x="322" y="130" type="curve"/>
			<point x="176" y="-88" type="line"/>
			<point x="185" y="-95"/>
			<point x="195" y="-101"/>
			<point x="204" y="-108" type="curve"/>
			<point x="348" y="104" type="line"/>
			<point x="506" y="-20"/>
			<point x="650" y="-32"/>
			<point x="718" y="-32" type="curve" smooth="yes"/>
			<point x="1060" y="-32"/>
			<point x="1346" y="280"/>
			<point x="1346" y="680" type="curve" smooth="yes"/>
			<point x="1346" y="882"/>
			<point x="1272" y="1088"/>
			<point x="1116" y="1236" type="curve"/>
		</contour>
		<contour>
			<point x="718" y="0" type="curve" smooth="yes"/>
			<point x="542" y="0"/>
			<point x="436" y="106"/>
			<point x="384" y="156" type="curve"/>
			<point x="1076" y="1180" type="line"/>
			<point x="1172" y="1054"/>
			<point x="1214" y="890"/>
			<point x="1214" y="680" type="curve" smooth="yes"/>
			<point x="1214" y="404"/>
			<point x="1134" y="235"/>
			<point x="1033" y="134" type="curve" smooth="yes"/>
			<point x="930" y="32"/>
			<point x="805" y="0"/>
		</contour>
		<contour>
			<point x="360" y="186" type="line"/>
			<point x="272" y="304"/>
			<point x="224" y="456"/>
			<point x="224" y="680" type="curve" smooth="yes"/>
			<point x="224" y="961"/>
			<point x="305" y="1131"/>
			<point x="406" y="1232" type="curve" smooth="yes"/>
			<point x="510" y="1336"/>
			<point x="636" y="1366"/>
			<point x="718" y="1366" type="curve" smooth="yes"/>
			<point x="902" y="1366"/>
			<point x="1022" y="1246"/>
			<point x="1052" y="1208" type="curve"/>
		</contour>
	</outline>
</glyph>
<glyph name="germandbls" format="2">
	<unicode hex="00DF"/>
	<advance width="916"/>
	<outline>
		<contour>
			<point x="538" y="840" type="curve"/>
			<point x="680" y="874"/>
			<point x="824" y="976"/>
			<point x="824" y="1124" type="curve" smooth="yes"/>
			<point x="824" y="1282"/>
			<point x="680" y="1404"/>
			<point x="508" y="1404" type="curve" smooth="yes"/>
			<point x="376" y="1404"/>
			<point x="198" y="1320"/>
			<point x="198" y="1110" type="curve" smooth="yes"/>
			<point x="198" y="860" type="line"/>
			<point x="62" y="860" type="line"/>
			<point x="62" y="808" type="line"/>
			<point x="198" y="808" type="line"/>
			<point x="198" y="138" type="line" smooth="yes"/>
			<point x="198" y="62"/>
			<point x="190" y="52"/>
			<point x="62" y="52" type="curve"/>
			<point x="62" y="0" type="line"/>
			<point x="100" y="4"/>
			<point x="188" y="4"/>
			<point x="230" y="4" type="curve" smooth="yes"/>
			<point x="264" y="4"/>
			<point x="296" y="0"/>
			<point x="300" y="0" type="curve"/>
			<point x="300" y="1114" type="line" smooth="yes"/>
			<point x="300" y="1326"/>
			<point x="440" y="1372"/>
			<point x="506" y="1372" type="curve" smooth="yes"/>
			<point x="618" y="1372"/>
			<point x="708" y="1278"/>
			<point x="708" y="1128" type="curve" smooth="yes"/>
			<point x="708" y="994"/>
			<point x="618" y="874"/>
			<point x="432" y="860" type="curve" smooth="yes"/>
			<point x="410" y="858"/>
			<point x="404" y="858"/>
			<point x="404" y="844" type="curve" smooth="yes"/>
			<point x="404" y="830"/>
			<point x="408" y="830"/>
			<point x="428" y="828" type="curve" smooth="yes"/>
			<point x="642" y="808"/>
			<point x="760" y="592"/>
			<point x="760" y="346" type="curve" smooth="yes"/>
			<point x="760" y="110"/>
			<point x="638" y="16"/>
			<point x="538" y="16" type="curve" smooth="yes"/>
			<point x="522" y="16"/>
			<point x="462" y="16"/>
			<point x="414" y="60" type="curve"/>
			<point x="438" y="64"/>
			<point x="466" y="78"/>
			<point x="466" y="116" type="curve" smooth="yes"/>
			<point x="466" y="158"/>
			<point x="432" y="172"/>
			<point x="410" y="172" type="curve" smooth="yes"/>
			<point x="392" y="172"/>
			<point x="354" y="162"/>
			<point x="354" y="114" type="curve" smooth="yes"/>
			<point x="354" y="36"/>
			<point x="438" y="-16"/>
			<point x="542" y="-16" type="curve" smooth="yes"/>
			<point x="704" y="-16"/>
			<point x="876" y="120"/>
			<point x="876" y="348" type="curve" smooth="yes"/>
			<point x="876" y="576"/>
			<point x="738" y="780"/>
		</contour>
	</outline>
</glyph>
<glyph name="ae" format="2">
	<unicode hex="00E6"/>
	<advance width="1334"/>
	<outline>
		<contour>
			<point x="84" y="178" type="curve" smooth="yes"/>
			<point x="84" y="32"/>
			<point x="250" y="-16"/>
			<point x="368" y="-16" type="curve" smooth="yes"/>
			<point x="530" y="-16"/>
			<point x="646" y="76"/>
			<point x="686" y="174" type="curve"/>
			<point x="786" y="20"/>
			<point x="922" y="-16"/>
			<point x="1006" y="-16" type="curve" smooth="yes"/>
			<point x="1218" y="-16"/>
			<point x="1292" y="206"/>
			<point x="1292" y="236" type="curve" smooth="yes"/>
			<point x="1292" y="248"/>
			<point x="1286" y="252"/>
			<point x="1276" y="252" type="curve" smooth="yes"/>
			<point x="1262" y="252"/>
			<point x="1260" y="248"/>
			<point x="1254" y="226" type="curve" smooth="yes"/>
			<point x="1212" y="82"/>
			<point x="1112" y="20"/>
			<point x="1018" y="20" type="curve" smooth="yes"/>
			<point x="856" y="20"/>
			<point x="708" y="180"/>
			<point x="720" y="470" type="curve"/>
			<point x="1246" y="470" type="line" smooth="yes"/>
			<point x="1292" y="470"/>
			<point x="1294" y="472"/>
			<point x="1294" y="506" type="curve" smooth="yes"/>
			<point x="1294" y="706"/>
			<point x="1192" y="884"/>
			<point x="984" y="884" type="curve" smooth="yes"/>
			<point x="892" y="884"/>
			<point x="782" y="844"/>
			<point x="696" y="718" type="curve"/>
			<point x="646" y="814"/>
			<point x="536" y="884"/>
			<point x="408" y="884" type="curve" smooth="yes"/>
			<point x="250" y="884"/>
			<point x="136" y="760"/>
			<point x="136" y="628" type="curve" smooth="yes"/>
			<point x="136" y="554"/>
			<point x="196" y="550"/>
			<point x="208" y="550" type="curve" smooth="yes"/>
			<point x="234" y="550"/>
			<point x="280" y="566"/>
			<point x="280" y="622" type="curve" smooth="yes"/>
			<point x="280" y="684"/>
			<point x="220" y="704"/>
			<point x="184" y="690" type="curve"/>
			<point x="226" y="818"/>
			<point x="338" y="852"/>
			<point x="404" y="852" type="curve" smooth="yes"/>
			<point x="500" y="852"/>
			<point x="614" y="772"/>
			<point x="614" y="592" type="curve" smooth="yes"/>
			<point x="614" y="496" type="line"/>
			<point x="242" y="484"/>
			<point x="84" y="342"/>
		</contour>
		<contour>
			<point x="382" y="16" type="curve" smooth="yes"/>
			<point x="278" y="16"/>
			<point x="206" y="94"/>
			<point x="206" y="178" type="curve" smooth="yes"/>
			<point x="206" y="292"/>
			<point x="294" y="456"/>
			<point x="614" y="464" type="curve"/>
			<point x="614" y="408"/>
			<point x="614" y="380"/>
			<point x="626" y="324" type="curve" smooth="yes"/>
			<point x="632" y="296"/>
			<point x="632" y="286"/>
			<point x="632" y="266" type="curve" smooth="yes"/>
			<point x="632" y="126"/>
			<point x="516" y="16"/>
		</contour>
		<contour>
			<point x="722" y="500" type="line"/>
			<point x="742" y="786"/>
			<point x="900" y="852"/>
			<point x="980" y="852" type="curve" smooth="yes"/>
			<point x="1176" y="852"/>
			<point x="1184" y="570"/>
			<point x="1186" y="500" type="curve"/>
		</contour>
	</outline>
</glyph>
<glyph name="oslash" format="2">
	<unicode hex="00F8"/>
	<advance width="916"/>
	<outline>
		<contour>
			<point x="132" y="-202" type="line"/>
			<point x="264" y="42" type="line"/>
			<point x="324" y="4"/>
			<point x="390" y="-16"/>
			<point x="458" y="-16" type="curve" smooth="yes"/>
			<point x="668" y="-16"/>
			<point x="850" y="174"/>
			<point x="850" y="428" type="curve" smooth="yes"/>
			<point x="850" y="570"/>
			<point x="792" y="712"/>
			<point x="680" y="804" type="curve"/>
			<point x="810" y="1048" type="line"/>
			<point x="784" y="1064" type="line"/>
			<point x="654" y="824" type="line"/>
			<point x="616" y="850"/>
			<point x="544" y="884"/>
			<point x="458" y="884" type="curve" smooth="yes"/>
			<point x="244" y="884"/>
			<point x="66" y="682"/>
			<point x="66" y="428" type="curve" smooth="yes"/>
			<point x="66" y="280"/>
			<point x="128" y="146"/>
			<point x="238" y="60" type="curve"/>
			<point x="106" y="-186" type="line"/>
		</contour>
		<contour>
			<point x="458" y="16" type="curve" smooth="yes"/>
			<point x="394" y="16"/>
			<point x="334" y="40"/>
			<point x="288" y="82" type="curve"/>
			<point x="654" y="756" type="line"/>
			<point x="736" y="658"/>
			<point x="744" y="520"/>
			<point x="744" y="428" type="curve" smooth="yes"/>
			<point x="744" y="364"/>
			<point x="740" y="246"/>
			<point x="686" y="154" type="curve" smooth="yes"/>
			<point x="630" y="58"/>
			<point x="540" y="16"/>
		</contour>
		<contour>
			<point x="264" y="108" type="line"/>
			<point x="192" y="188"/>
			<point x="172" y="296"/>
			<point x="172" y="428" type="curve" smooth="yes"/>
			<point x="172" y="615"/>
			<point x="223" y="720"/>
			<point x="282" y="778" type="curve" smooth="yes"/>
			<point x="353" y="848"/>
			<point x="436" y="852"/>
			<point x="458" y="852" type="curve" smooth="yes"/>
			<point x="542" y="852"/>
			<point x="604" y="806"/>
			<point x="630" y="782" type="curve"/>
		</contour>
	</outline>
</glyph>
<glyph name="dotlessi" format="2">
	<unicode hex="0131"/>
	<advance width="498"/>
	<outline>
		<contour>
			<point x="306" y="876" type="line"/>
			<point x="76" y="854" type="line"/>
			<point x="76" y="802" type="line"/>
			<point x="188" y="802"/>
			<point x="204" y="790"/>
			<point x="204" y="694" type="curve" smooth="yes"/>
			<point x="204" y="138" type="line" smooth="yes"/>
			<point x="204" y="62"/>
			<point x="196" y="52"/>
			<point x="68" y="52" type="curve"/>
			<point x="68" y="52" type="line"/>
			<point x="68" y="0" type="line"/>
			<point x="116" y="4"/>
			<point x="202" y="4"/>
			<point x="252" y="4" type="curve" smooth="yes"/>
			<point x="300" y="4"/>
			<point x="382" y="4"/>
			<point x="428" y="0" type="curve"/>
			<point x="428" y="52" type="line"/>
			<point x="310" y="52"/>
			<point x="306" y="64"/>
			<point x="306" y="136" type="curve" smooth="yes"/>
		</contour>
	</outline>
</glyph>
<glyph name="OE" format="2">
	<unicode hex="0152"/>
	<advance width="1882"/>
	<outline>
		<contour>
			<point x="1842" y="506" type="line"/>
			<point x="1806" y="506" type="line"/>
			<point x="1762" y="210"/>
			<point x="1738" y="52"/>
			<point x="1398" y="52" type="curve" smooth="yes"/>
			<point x="1150" y="52" type="line" smooth="yes"/>
			<point x="1070" y="52"/>
			<point x="1066" y="62"/>
			<point x="1066" y="130" type="curve" smooth="yes"/>
			<point x="1066" y="684" type="line"/>
			<point x="1296" y="684" type="line" smooth="yes"/>
			<point x="1494" y="684"/>
			<point x="1520" y="622"/>
			<point x="1520" y="450" type="curve"/>
			<point x="1556" y="450" type="line"/>
			<point x="1556" y="970" type="line"/>
			<point x="1520" y="970" type="line"/>
			<point x="1520" y="800"/>
			<point x="1496" y="736"/>
			<point x="1296" y="736" type="curve" smooth="yes"/>
			<point x="1066" y="736" type="line"/>
			<point x="1066" y="1236" type="line" smooth="yes"/>
			<point x="1066" y="1304"/>
			<point x="1070" y="1314"/>
			<point x="1150" y="1314" type="curve" smooth="yes"/>
			<point x="1400" y="1314" type="line" smooth="yes"/>
			<point x="1696" y="1314"/>
			<point x="1726" y="1184"/>
			<point x="1754" y="924" type="curve"/>
			<point x="1790" y="924" type="line"/>
			<point x="1742" y="1366" type="line"/>
			<point x="1018" y="1366" type="line" smooth="yes"/>
			<point x="992" y="1366"/>
			<point x="964" y="1366"/>
			<point x="888" y="1380" type="curve" smooth="yes"/>
			<point x="806" y="1396"/>
			<point x="780" y="1398"/>
			<point x="742" y="1398" type="curve" smooth="yes"/>
			<point x="416" y="1398"/>
			<point x="118" y="1094"/>
			<point x="118" y="680" type="curve" smooth="yes"/>
			<point x="118" y="270"/>
			<point x="416" y="-32"/>
			<point x="742" y="-32" type="curve" smooth="yes"/>
			<point x="778" y="-32"/>
			<point x="804" y="-30"/>
			<point x="892" y="-14" type="curve" smooth="yes"/>
			<point x="966" y="0"/>
			<point x="992" y="0"/>
			<point x="1018" y="0" type="curve" smooth="yes"/>
			<point x="1770" y="0" type="line"/>
		</contour>
		<contour>
			<point x="266" y="708" type="curve" smooth="yes"/>
			<point x="266" y="1100"/>
			<point x="500" y="1366"/>
			<point x="744" y="1366" type="curve" smooth="yes"/>
			<point x="906" y="1366"/>
			<point x="954" y="1294"/>
			<point x="954" y="994" type="curve" smooth="yes"/>
			<point x="954" y="902"/>
			<point x="954" y="808"/>
			<point x="954" y="716" type="curve" smooth="yes"/>
			<point x="954" y="602"/>
			<point x="954" y="486"/>
			<point x="954" y="372" type="curve" smooth="yes"/>
			<point x="954" y="76"/>
			<point x="908" y="0"/>
			<point x="746" y="0" type="curve" smooth="yes"/>
			<point x="490" y="0"/>
			<point x="266" y="304"/>
		</contour>
	</outline>
</glyph>
<glyph name="circumflex" format="2">
	<unicode hex="02C6"/>
	<advance width="916"/>
	<outline>
		<contour>
			<point x="458" y="1388" type="line"/>
			<point x="212" y="1116" type="line"/>
			<point x="236" y="1092" type="line"/>
			<point x="458" y="1308" type="line"/>
			<point x="680" y="1092" type="line"/>
			<point x="704" y="1116" type="line"/>
		</contour>
	</outline>
</glyph>
<glyph name="caron" format="2">
	<unicode hex="02C7"/>
	<advance width="916"/>
	<outline>
		<contour>
			<point x="458" y="1118" type="line"/>
			<point x="234" y="1270" type="line"/>
			<point x="214" y="1242" type="line"/>
			<point x="458" y="1038" type="line"/>
			<point x="702" y="1242" type="line"/>
			<point x="682" y="1270" type="line"/>
		</contour>
	</outline>
</glyph>
<glyph name="breve" format="2">
	<unicode hex="02D8"/>
	<advance width="458"/>
	<outline>
		<contour>
			<point x="352" y="694" type="line"/>
			<point x="350" y="605"/>
			<point x="293" y="548"/>
			<point x="229" y="548" type="curve" smooth="yes"/>
			<point x="165" y="548"/>
			<point x="108" y="604"/>
			<point x="106" y="694" type="curve"/>
			<point x="90" y="694" type="line"/>
			<point x="92" y="591"/>
			<point x="153" y="520"/>
			<point x="229" y="520" type="curve" smooth="yes"/>
			<point x="305" y="520"/>
			<point x="366" y="591"/>
			<point x="368" y="694" type="curve"/>
		</contour>
	</outline>
</glyph>
<glyph name="dotaccent" format="2">
  <advance width="249"/>
  <unicode hex="02D9"/>
  <outline>
    <contour>
      <point x="165" y="616" type="curve" smooth="yes"/>
      <point x="165" y="640"/>
      <point x="146" y="657"/>
      <point x="125" y="657" type="curve" smooth="yes"/>
      <point x="101" y="657"/>
      <point x="84" y="638"/>
      <point x="84" y="616" type="curve" smooth="yes"/>
      <point x="84" y="592"/>
      <point x="103" y="575"/>
      <point x="124" y="575" type="curve" smooth="yes"/>
      <point x="148" y="575"/>
      <point x="165" y="594"/>
    </contour>
  </outline>
</glyph>
<glyph name="ring" format="2">
	<unicode hex="02DA"/>
	<advance width="1386"/>
	<outline>
		<contour>
			<point x="866" y="1244" type="curve" smooth="yes"/>
			<point x="866" y="1344"/>
			<point x="786" y="1420"/>
			<point x="692" y="1420" type="curve" smooth="yes"/>
			<point x="598" y="1420"/>
			<point x="518" y="1344"/>
			<point x="518" y="1244" type="curve" smooth="yes"/>
			<point x="518" y="1144"/>
			<point x="598" y="1068"/>
			<point x="692" y="1068" type="curve" smooth="yes"/>
			<point x="786" y="1068"/>
			<point x="866" y="1144"/>
		</contour>
		<contour>
			<point x="692" y="1100" type="curve" smooth="yes"/>
			<point x="608" y="1100"/>
			<point x="554" y="1152"/>
			<point x="554" y="1244" type="curve" smooth="yes"/>
			<point x="554" y="1338"/>
			<point x="610" y="1388"/>
			<point x="692" y="1388" type="curve" smooth="yes"/>
			<point x="776" y="1388"/>
			<point x="830" y="1336"/>
			<point x="830" y="1244" type="curve" smooth="yes"/>
			<point x="830" y="1150"/>
			<point x="774" y="1100"/>
		</contour>
	</outline>
</glyph>
<glyph name="tilde" format="2">
  <advance width="458"/>
  <unicode hex="02DC"/>
  <outline>
    <contour>
      <point x="83" y="570" type="line"/>
      <point x="117" y="603"/>
      <point x="136" y="622"/>
      <point x="167" y="622" type="curve" smooth="yes"/>
      <point x="189" y="622"/>
      <point x="204" y="611"/>
      <point x="225" y="596" type="curve" smooth="yes"/>
      <point x="245" y="582"/>
      <point x="261" y="570"/>
      <point x="283" y="570" type="curve" smooth="yes"/>
      <point x="305.71852" y="570.0"/>
      <point x="324.0562972061" y="581.5492310021"/>
      <point x="345.05038161270915" y="601.6318144372674" type="curve" smooth="yes"/>
      <point x="357.3237388633" y="613.3722988633"/>
      <point x="370.50494" y="628.02922"/>
      <point x="386" y="645" type="curve"/>
      <point x="375" y="656" type="line"/>
      <point x="341" y="623"/>
      <point x="322" y="604"/>
      <point x="291" y="604" type="curve" smooth="yes"/>
      <point x="269" y="604"/>
      <point x="254" y="615"/>
      <point x="233" y="630" type="curve" smooth="yes"/>
      <point x="213" y="644"/>
      <point x="197" y="656"/>
      <point x="175" y="656" type="curve" smooth="yes"/>
      <point x="151.93192" y="656.0"/>
      <point x="133.3804290924" y="644.0926287564"/>
      <point x="111.97862556432855" y="623.4351298604306" type="curve" smooth="yes"/>
      <point x="99.98081685720001" y="611.8545768572"/>
      <point x="87.08724000000001" y="597.5241199999999"/>
      <point x="72" y="581" type="curve"/>
    </contour>
  </outline>
</glyph>
<glyph name="hungarumlaut" format="2">
	<unicode hex="02DD"/>
	<advance width="458"/>
	<outline>
		<contour>
			<point x="118" y="524" type="line"/>
			<point x="132" y="514" type="line"/>
			<point x="161.637" y="558.289"/>
			<point x="191.274" y="602.578"/>
			<point x="221" y="647" type="curve" smooth="yes"/>
			<point x="231" y="661"/>
			<point x="231" y="667"/>
			<point x="231" y="671" type="curve" smooth="yes"/>
			<point x="231" y="686"/>
			<point x="216" y="697"/>
			<point x="203" y="697" type="curve" smooth="yes"/>
			<point x="187" y="697"/>
			<point x="183" y="687"/>
			<point x="177" y="673" type="curve"/>
		</contour>
		<contour>
			<point x="275" y="524" type="line"/>
			<point x="279.662" y="520.67"/>
			<point x="284.324" y="517.34"/>
			<point x="289" y="514" type="curve"/>
			<point x="318.637" y="558.289"/>
			<point x="348.274" y="602.578"/>
			<point x="378" y="647" type="curve" smooth="yes"/>
			<point x="388" y="661"/>
			<point x="388" y="667"/>
			<point x="388" y="671" type="curve" smooth="yes"/>
			<point x="388" y="686"/>
			<point x="373" y="697"/>
			<point x="360" y="697" type="curve" smooth="yes"/>
			<point x="344" y="697"/>
			<point x="340" y="687"/>
			<point x="334" y="673" type="curve"/>
		</contour>
	</outline>
</glyph>
<glyph name="endash" format="2">
	<unicode hex="2013"/>
	<advance width="916"/>
	<outline>
		<contour>
			<point x="928" y="516" type="line"/>
			<point x="928" y="548" type="line"/>
			<point x="-12" y="548" type="line"/>
			<point x="-12" y="516" type="line"/>
		</contour>
	</outline>
</glyph>
<glyph name="emdash" format="2">
	<unicode hex="2014"/>
	<advance width="917"/>
	<outline>
		<contour>
			<point x="928" y="258" type="line"/>
			<point x="928" y="274" type="line"/>
			<point x="-12" y="274" type="line"/>
			<point x="-12" y="258" type="line"/>
		</contour>
	</outline>
</glyph>
<glyph name="quoteleft" format="2">
	<unicode hex="2018"/>
	<advance width="249"/>
	<outline>
		<contour>
			<point x="125" y="417" type="curve" smooth="yes"/>
			<point x="147" y="417"/>
			<point x="166" y="432"/>
			<point x="166" y="458" type="curve" smooth="yes"/>
			<point x="166" y="484"/>
			<point x="147" y="499"/>
			<point x="125" y="499" type="curve" smooth="yes"/>
			<point x="116" y="499"/>
			<point x="99" y="496"/>
			<point x="90" y="480" type="curve"/>
			<point x="81" y="539"/>
			<point x="97" y="620"/>
			<point x="151" y="674" type="curve" smooth="yes"/>
			<point x="155" y="678"/>
			<point x="157" y="681"/>
			<point x="157" y="685" type="curve" smooth="yes"/>
			<point x="157" y="689"/>
			<point x="153" y="693"/>
			<point x="149" y="693" type="curve" smooth="yes"/>
			<point x="142" y="693"/>
			<point x="71" y="623"/>
			<point x="71" y="513" type="curve" smooth="yes"/>
			<point x="71" y="491"/>
			<point x="73" y="417"/>
		</contour>
	</outline>
</glyph>
<glyph name="quoteright" format="2">
	<unicode hex="2019"/>
	<advance width="249"/>
	<outline>
		<contour>
			<point x="101" y="418" type="curve" smooth="yes"/>
			<point x="108" y="418"/>
			<point x="179" y="488"/>
			<point x="179" y="598" type="curve" smooth="yes"/>
			<point x="179" y="620"/>
			<point x="177" y="694"/>
			<point x="125" y="694" type="curve" smooth="yes"/>
			<point x="103" y="694"/>
			<point x="84" y="679"/>
			<point x="84" y="653" type="curve" smooth="yes"/>
			<point x="84" y="627"/>
			<point x="103" y="612"/>
			<point x="125" y="612" type="curve" smooth="yes"/>
			<point x="134" y="612"/>
			<point x="151" y="615"/>
			<point x="160" y="631" type="curve"/>
			<point x="169" y="572"/>
			<point x="153" y="491"/>
			<point x="99" y="437" type="curve" smooth="yes"/>
			<point x="95" y="433"/>
			<point x="93" y="430"/>
			<point x="93" y="426" type="curve" smooth="yes"/>
			<point x="93" y="422"/>
			<point x="97" y="418"/>
		</contour>
	</outline>
</glyph>
<glyph name="quotedblleft" format="2">
	<unicode hex="201C"/>
	<advance width="916"/>
	<outline>
		<contour>
			<point x="418" y="834" type="curve" smooth="yes"/>
			<point x="462" y="834"/>
			<point x="500" y="864"/>
			<point x="500" y="916" type="curve" smooth="yes"/>
			<point x="500" y="968"/>
			<point x="462" y="998"/>
			<point x="418" y="998" type="curve" smooth="yes"/>
			<point x="400" y="998"/>
			<point x="366" y="992"/>
			<point x="348" y="960" type="curve"/>
			<point x="330" y="1078"/>
			<point x="362" y="1240"/>
			<point x="470" y="1348" type="curve" smooth="yes"/>
			<point x="478" y="1356"/>
			<point x="482" y="1362"/>
			<point x="482" y="1370" type="curve" smooth="yes"/>
			<point x="482" y="1378"/>
			<point x="474" y="1386"/>
			<point x="466" y="1386" type="curve" smooth="yes"/>
			<point x="452" y="1386"/>
			<point x="310" y="1246"/>
			<point x="310" y="1026" type="curve" smooth="yes"/>
			<point x="310" y="982"/>
			<point x="314" y="834"/>
		</contour>
		<contour>
			<point x="784" y="834" type="curve" smooth="yes"/>
			<point x="828" y="834"/>
			<point x="866" y="864"/>
			<point x="866" y="916" type="curve" smooth="yes"/>
			<point x="866" y="968"/>
			<point x="828" y="998"/>
			<point x="784" y="998" type="curve" smooth="yes"/>
			<point x="766" y="998"/>
			<point x="732" y="992"/>
			<point x="714" y="960" type="curve"/>
			<point x="696" y="1078"/>
			<point x="728" y="1240"/>
			<point x="836" y="1348" type="curve" smooth="yes"/>
			<point x="844" y="1356"/>
			<point x="848" y="1362"/>
			<point x="848" y="1370" type="curve" smooth="yes"/>
			<point x="848" y="1378"/>
			<point x="840" y="1386"/>
			<point x="832" y="1386" type="curve" smooth="yes"/>
			<point x="818" y="1386"/>
			<point x="676" y="1246"/>
			<point x="676" y="1026" type="curve" smooth="yes"/>
			<point x="676" y="982"/>
			<point x="680" y="834"/>
		</contour>
	</outline>
</glyph>
<glyph name="quotedblright" format="2">
	<unicode hex="201D"/>
	<advance width="916"/>
	<outline>
		<contour>
			<point x="84" y="836" type="curve" smooth="yes"/>
			<point x="98" y="836"/>
			<point x="240" y="976"/>
			<point x="240" y="1196" type="curve" smooth="yes"/>
			<point x="240" y="1240"/>
			<point x="236" y="1388"/>
			<point x="132" y="1388" type="curve" smooth="yes"/>
			<point x="88" y="1388"/>
			<point x="50" y="1358"/>
			<point x="50" y="1306" type="curve" smooth="yes"/>
			<point x="50" y="1254"/>
			<point x="88" y="1224"/>
			<point x="132" y="1224" type="curve" smooth="yes"/>
			<point x="150" y="1224"/>
			<point x="184" y="1230"/>
			<point x="202" y="1262" type="curve"/>
			<point x="220" y="1144"/>
			<point x="188" y="982"/>
			<point x="80" y="874" type="curve" smooth="yes"/>
			<point x="72" y="866"/>
			<point x="68" y="860"/>
			<point x="68" y="852" type="curve" smooth="yes"/>
			<point x="68" y="844"/>
			<point x="76" y="836"/>
		</contour>
		<contour>
			<point x="450" y="836" type="curve" smooth="yes"/>
			<point x="464" y="836"/>
			<point x="606" y="976"/>
			<point x="606" y="1196" type="curve" smooth="yes"/>
			<point x="606" y="1240"/>
			<point x="602" y="1388"/>
			<point x="498" y="1388" type="curve" smooth="yes"/>
			<point x="454" y="1388"/>
			<point x="416" y="1358"/>
			<point x="416" y="1306" type="curve" smooth="yes"/>
			<point x="416" y="1254"/>
			<point x="454" y="1224"/>
			<point x="498" y="1224" type="curve" smooth="yes"/>
			<point x="516" y="1224"/>
			<point x="550" y="1230"/>
			<point x="568" y="1262" type="curve"/>
			<point x="586" y="1144"/>
			<point x="554" y="982"/>
			<point x="446" y="874" type="curve" smooth="yes"/>
			<point x="438" y="866"/>
			<point x="434" y="860"/>
			<point x="434" y="852" type="curve" smooth="yes"/>
			<point x="434" y="844"/>
			<point x="442" y="836"/>
		</contour>
	</outline>
</glyph>
<glyph name="a.alt" format="2">
	<advance width="916"/>
	<outline>
		<contour>
			<point x="80" y="182" type="curve" smooth="yes"/>
			<point x="80" y="28"/>
			<point x="260" y="-16"/>
			<point x="366" y="-16" type="curve" smooth="yes"/>
			<point x="476" y="-16"/>
			<point x="580" y="42"/>
			<point x="624" y="162" type="curve"/>
			<point x="624" y="58"/>
			<point x="656" y="0"/>
			<point x="754" y="0" type="curve" smooth="yes"/>
			<point x="775" y="0"/>
			<point x="797" y="0"/>
			<point x="818" y="0" type="curve" smooth="yes"/>
			<point x="852" y="0"/>
			<point x="864" y="4"/>
			<point x="864" y="22" type="curve" smooth="yes"/>
			<point x="864" y="38"/>
			<point x="850" y="42"/>
			<point x="830" y="42" type="curve" smooth="yes"/>
			<point x="720" y="42"/>
			<point x="720" y="58"/>
			<point x="720" y="128" type="curve" smooth="yes"/>
			<point x="720" y="518" type="line" smooth="yes"/>
			<point x="720" y="650"/>
			<point x="720" y="720"/>
			<point x="636" y="798" type="curve" smooth="yes"/>
			<point x="562" y="864"/>
			<point x="476" y="884"/>
			<point x="408" y="884" type="curve" smooth="yes"/>
			<point x="250" y="884"/>
			<point x="136" y="760"/>
			<point x="136" y="628" type="curve" smooth="yes"/>
			<point x="136" y="554"/>
			<point x="196" y="550"/>
			<point x="208" y="550" type="curve" smooth="yes"/>
			<point x="234" y="550"/>
			<point x="280" y="566"/>
			<point x="280" y="622" type="curve" smooth="yes"/>
			<point x="280" y="684"/>
			<point x="222" y="704"/>
			<point x="184" y="690" type="curve"/>
			<point x="226" y="816"/>
			<point x="334" y="852"/>
			<point x="404" y="852" type="curve" smooth="yes"/>
			<point x="504" y="852"/>
			<point x="614" y="764"/>
			<point x="614" y="596" type="curve" smooth="yes"/>
			<point x="614" y="508" type="line"/>
			<point x="496" y="504"/>
			<point x="354" y="488"/>
			<point x="242" y="428" type="curve" smooth="yes"/>
			<point x="116" y="358"/>
			<point x="80" y="258"/>
		</contour>
		<contour>
			<point x="614" y="278" type="line" smooth="yes"/>
			<point x="614" y="193"/>
			<point x="585" y="129"/>
			<point x="542" y="85" type="curve" smooth="yes"/>
			<point x="497" y="39"/>
			<point x="436" y="16"/>
			<point x="380" y="16" type="curve" smooth="yes"/>
			<point x="280" y="16"/>
			<point x="202" y="90"/>
			<point x="202" y="182" type="curve" smooth="yes"/>
			<point x="202" y="328"/>
			<point x="320" y="466"/>
			<point x="614" y="478" type="curve"/>
		</contour>
	</outline>
</glyph>
<glyph name="ff" format="2">
	<advance width="1050"/>
	<outline>
		<contour>
			<point x="798" y="808" type="line"/>
			<point x="1026" y="808" type="line"/>
			<point x="1026" y="860" type="line"/>
			<point x="794" y="860" type="line"/>
			<point x="794" y="1102" type="line" smooth="yes"/>
			<point x="794" y="1268"/>
			<point x="878" y="1372"/>
			<point x="964" y="1372" type="curve" smooth="yes"/>
			<point x="990" y="1372"/>
			<point x="1020" y="1364"/>
			<point x="1040" y="1350" type="curve"/>
			<point x="1024" y="1346"/>
			<point x="982" y="1332"/>
			<point x="982" y="1282" type="curve" smooth="yes"/>
			<point x="982" y="1230"/>
			<point x="1022" y="1214"/>
			<point x="1050" y="1214" type="curve" smooth="yes"/>
			<point x="1078" y="1214"/>
			<point x="1118" y="1230"/>
			<point x="1118" y="1282" type="curve" smooth="yes"/>
			<point x="1118" y="1358"/>
			<point x="1046" y="1404"/>
			<point x="966" y="1404" type="curve" smooth="yes"/>
			<point x="888" y="1404"/>
			<point x="824" y="1366"/>
			<point x="774" y="1318" type="curve"/>
			<point x="728" y="1384"/>
			<point x="652" y="1404"/>
			<point x="574" y="1404" type="curve" smooth="yes"/>
			<point x="418" y="1404"/>
			<point x="198" y="1314"/>
			<point x="198" y="1094" type="curve" smooth="yes"/>
			<point x="198" y="860" type="line"/>
			<point x="38" y="860" type="line"/>
			<point x="38" y="808" type="line"/>
			<point x="198" y="808" type="line"/>
			<point x="198" y="138" type="line" smooth="yes"/>
			<point x="198" y="62"/>
			<point x="190" y="52"/>
			<point x="62" y="52" type="curve"/>
			<point x="62" y="0" type="line"/>
			<point x="110" y="4"/>
			<point x="198" y="4"/>
			<point x="248" y="4" type="curve" smooth="yes"/>
			<point x="300" y="4"/>
			<point x="388" y="4"/>
			<point x="436" y="0" type="curve"/>
			<point x="436" y="52" type="line"/>
			<point x="308" y="52"/>
			<point x="300" y="60"/>
			<point x="300" y="138" type="curve" smooth="yes"/>
			<point x="300" y="808" type="line"/>
			<point x="696" y="808" type="line"/>
			<point x="696" y="138" type="line" smooth="yes"/>
			<point x="696" y="62"/>
			<point x="688" y="52"/>
			<point x="560" y="52" type="curve"/>
			<point x="560" y="0" type="line"/>
			<point x="608" y="4"/>
			<point x="700" y="4"/>
			<point x="752" y="4" type="curve" smooth="yes"/>
			<point x="810" y="4"/>
			<point x="912" y="4"/>
			<point x="966" y="0" type="curve"/>
			<point x="966" y="52" type="line"/>
			<point x="966" y="52" type="line"/>
			<point x="822" y="52"/>
			<point x="798" y="52"/>
			<point x="798" y="142" type="curve" smooth="yes"/>
		</contour>
		<contour>
			<point x="296" y="860" type="line"/>
			<point x="296" y="1094" type="line" smooth="yes"/>
			<point x="296" y="1276"/>
			<point x="436" y="1372"/>
			<point x="570" y="1372" type="curve" smooth="yes"/>
			<point x="600" y="1372"/>
			<point x="678" y="1366"/>
			<point x="726" y="1322" type="curve"/>
			<point x="690" y="1320"/>
			<point x="656" y="1304"/>
			<point x="656" y="1254" type="curve" smooth="yes"/>
			<point x="656" y="1202"/>
			<point x="702" y="1188"/>
			<point x="706" y="1188" type="curve"/>
			<point x="696" y="1152"/>
			<point x="696" y="1112"/>
			<point x="696" y="1098" type="curve" smooth="yes"/>
			<point x="696" y="860" type="line"/>
		</contour>
	</outline>
</glyph>
<glyph name="ffi" format="2">
	<advance width="1496"/>
	<outline>
		<contour>
			<point x="574" y="1404" type="curve" smooth="yes"/>
			<point x="420" y="1404"/>
			<point x="198" y="1314"/>
			<point x="198" y="1094" type="curve" smooth="yes"/>
			<point x="198" y="1016"/>
			<point x="198" y="938"/>
			<point x="198" y="860" type="curve"/>
			<point x="145" y="860"/>
			<point x="91" y="860"/>
			<point x="38" y="860" type="curve"/>
			<point x="38" y="843"/>
			<point x="38" y="825"/>
			<point x="38" y="808" type="curve"/>
			<point x="91" y="808"/>
			<point x="145" y="808"/>
			<point x="198" y="808" type="curve"/>
			<point x="198" y="585"/>
			<point x="198" y="362"/>
			<point x="198" y="138" type="curve" smooth="yes"/>
			<point x="198" y="62"/>
			<point x="190" y="52"/>
			<point x="62" y="52" type="curve"/>
			<point x="62" y="35"/>
			<point x="62" y="17"/>
			<point x="62" y="0" type="curve"/>
			<point x="110" y="4"/>
			<point x="198" y="4"/>
			<point x="248" y="4" type="curve" smooth="yes"/>
			<point x="300" y="4"/>
			<point x="388" y="4"/>
			<point x="436" y="0" type="curve"/>
			<point x="436" y="17"/>
			<point x="436" y="35"/>
			<point x="436" y="52" type="curve"/>
			<point x="308" y="52"/>
			<point x="300" y="60"/>
			<point x="300" y="138" type="curve" smooth="yes"/>
			<point x="300" y="361"/>
			<point x="300" y="584"/>
			<point x="300" y="808" type="curve"/>
			<point x="433" y="808"/>
			<point x="565" y="808"/>
			<point x="698" y="808" type="curve"/>
			<point x="698" y="585"/>
			<point x="698" y="362"/>
			<point x="698" y="138" type="curve" smooth="yes"/>
			<point x="698" y="62"/>
			<point x="690" y="52"/>
			<point x="562" y="52" type="curve"/>
			<point x="562" y="35"/>
			<point x="562" y="17"/>
			<point x="562" y="0" type="curve"/>
			<point x="610" y="4"/>
			<point x="698" y="4"/>
			<point x="748" y="4" type="curve" smooth="yes"/>
			<point x="800" y="4"/>
			<point x="888" y="4"/>
			<point x="936" y="0" type="curve"/>
			<point x="936" y="17"/>
			<point x="936" y="35"/>
			<point x="936" y="52" type="curve"/>
			<point x="808" y="52"/>
			<point x="800" y="60"/>
			<point x="800" y="138" type="curve" smooth="yes"/>
			<point x="800" y="361"/>
			<point x="800" y="584"/>
			<point x="800" y="808" type="curve"/>
			<point x="898" y="808"/>
			<point x="996" y="808"/>
			<point x="1094" y="808" type="curve" smooth="yes"/>
			<point x="1180" y="808"/>
			<point x="1196" y="790"/>
			<point x="1196" y="702" type="curve" smooth="yes"/>
			<point x="1196" y="514"/>
			<point x="1196" y="326"/>
			<point x="1196" y="138" type="curve" smooth="yes"/>
			<point x="1196" y="62"/>
			<point x="1188" y="52"/>
			<point x="1060" y="52" type="curve"/>
			<point x="1060" y="35"/>
			<point x="1060" y="17"/>
			<point x="1060" y="0" type="curve"/>
			<point x="1108" y="4"/>
			<point x="1196" y="4"/>
			<point x="1246" y="4" type="curve" smooth="yes"/>
			<point x="1298" y="4"/>
			<point x="1386" y="4"/>
			<point x="1434" y="0" type="curve"/>
			<point x="1434" y="17"/>
			<point x="1434" y="35"/>
			<point x="1434" y="52" type="curve"/>
			<point x="1306" y="52"/>
			<point x="1298" y="60"/>
			<point x="1298" y="138" type="curve" smooth="yes"/>
			<point x="1298" y="384"/>
			<point x="1298" y="631"/>
			<point x="1298" y="878" type="curve"/>
			<point x="1220" y="872"/>
			<point x="1142" y="866"/>
			<point x="1064" y="860" type="curve"/>
			<point x="796" y="860" type="line"/>
			<point x="796" y="938"/>
			<point x="796" y="1016"/>
			<point x="796" y="1094" type="curve" smooth="yes"/>
			<point x="796" y="1284"/>
			<point x="948" y="1372"/>
			<point x="1068" y="1372" type="curve" smooth="yes"/>
			<point x="1106" y="1372"/>
			<point x="1192" y="1362"/>
			<point x="1236" y="1294" type="curve"/>
			<point x="1216" y="1294"/>
			<point x="1152" y="1294"/>
			<point x="1152" y="1224" type="curve" smooth="yes"/>
			<point x="1152" y="1176"/>
			<point x="1184" y="1152"/>
			<point x="1224" y="1152" type="curve" smooth="yes"/>
			<point x="1260" y="1152"/>
			<point x="1296" y="1172"/>
			<point x="1296" y="1226" type="curve" smooth="yes"/>
			<point x="1296" y="1326"/>
			<point x="1200" y="1404"/>
			<point x="1076" y="1404" type="curve" smooth="yes"/>
			<point x="1014" y="1404"/>
			<point x="884" y="1390"/>
			<point x="780" y="1292" type="curve"/>
			<point x="754" y="1344"/>
			<point x="688" y="1404"/>
		</contour>
		<contour>
			<point x="296" y="860" type="line"/>
			<point x="296" y="938"/>
			<point x="296" y="1016"/>
			<point x="296" y="1094" type="curve" smooth="yes"/>
			<point x="296" y="1282"/>
			<point x="444" y="1372"/>
			<point x="568" y="1372" type="curve" smooth="yes"/>
			<point x="638" y="1372"/>
			<point x="706" y="1342"/>
			<point x="736" y="1294" type="curve"/>
			<point x="716" y="1294"/>
			<point x="650" y="1294"/>
			<point x="650" y="1224" type="curve" smooth="yes"/>
			<point x="650" y="1188"/>
			<point x="670" y="1164"/>
			<point x="702" y="1154" type="curve"/>
			<point x="698" y="1136"/>
			<point x="698" y="1096"/>
			<point x="698" y="1094" type="curve" smooth="yes"/>
			<point x="698" y="860" type="line"/>
		</contour>
	</outline>
</glyph>
